<svg width="58" height="52" viewBox="0 0 58 52" fill="none" xmlns="http://www.w3.org/2000/svg">
<circle cx="40.4434" cy="17" r="17" fill="#FBA600" fill-opacity="0.1"/>
<path d="M48.2129 29.75H46.3848C45.7676 29.75 45.2441 29.0312 45.2441 28.1875V16.375C45.2441 15.5078 45.8066 14.75 46.4473 14.75H48.2129C48.6273 14.75 49.0247 14.5854 49.3177 14.2923C49.6108 13.9993 49.7754 13.6019 49.7754 13.1875C49.7754 12.7731 49.6108 12.3757 49.3177 12.0826C49.0247 11.7896 48.6273 11.625 48.2129 11.625H46.4473C45.6834 11.6349 44.9363 11.8506 44.2846 12.2493C43.6329 12.648 43.1008 13.215 42.7441 13.8906H32.5176L31.0254 12.5859C29.6979 11.3961 28.1019 10.5458 26.3739 10.1077C24.6459 9.66954 22.8375 9.65672 21.1035 10.0703C16.7285 11.1797 13.8379 14.7031 12.8301 16.1562H11.2676C11.2851 14.9959 10.8506 13.8743 10.056 13.0287C9.26132 12.183 8.1689 11.6796 7.00977 11.625H2.90039C2.48599 11.625 2.08856 11.7896 1.79554 12.0826C1.50251 12.3757 1.33789 12.7731 1.33789 13.1875C1.33789 13.6019 1.50251 13.9993 1.79554 14.2923C2.08856 14.5854 2.48599 14.75 2.90039 14.75H6.99414C7.61133 14.75 8.13477 15.4609 8.13477 16.3125V28.1172C8.13477 28.9844 7.57227 29.75 6.93164 29.75H2.90039C2.48599 29.75 2.08856 29.9146 1.79554 30.2076C1.50251 30.5007 1.33789 30.8981 1.33789 31.3125C1.33789 31.7269 1.50251 32.1243 1.79554 32.4173C2.08856 32.7104 2.48599 32.875 2.90039 32.875H6.93164C7.69117 32.8592 8.4327 32.6409 9.07961 32.2426C9.72651 31.8443 10.2553 31.2805 10.6113 30.6094H11.1582C11.7521 30.6106 12.3357 30.7639 12.8535 31.0547C12.8139 31.2662 12.8185 31.4837 12.8669 31.6934C12.9153 31.9031 13.0065 32.1006 13.1348 32.2734L14.9395 34.6875C15.1519 34.9635 15.4479 35.1635 15.7832 35.2578L18.1738 35.8984L19.2441 38.1797C19.3399 38.3842 19.4789 38.5656 19.6516 38.7113C19.8242 38.8569 20.0264 38.9634 20.2441 39.0234L22.7598 39.7109L24.3926 42.3047C24.5986 42.6321 24.9187 42.8715 25.291 42.9766L29.6426 44.1875C29.7797 44.2275 29.9216 44.2485 30.0645 44.25C30.3204 44.2504 30.5725 44.1879 30.7986 44.068C31.0248 43.9481 31.218 43.7745 31.3613 43.5625L39.5254 31.4375C39.5971 31.3315 39.6937 31.2447 39.8067 31.1847C39.9198 31.1248 40.0459 31.0935 40.1738 31.0937H43.041C43.4169 31.6348 43.9162 32.0786 44.4977 32.3884C45.0791 32.6981 45.726 32.8649 46.3848 32.875H48.2129C48.6273 32.875 49.0247 32.7104 49.3177 32.4173C49.6108 32.1243 49.7754 31.7269 49.7754 31.3125C49.7754 30.8981 49.6108 30.5007 49.3177 30.2076C49.0247 29.9146 48.6273 29.75 48.2129 29.75ZM15.3535 17.9687C16.1895 16.789 18.4785 13.9531 21.8691 13.0937C23.1138 12.8063 24.4095 12.8239 25.646 13.1449C26.8824 13.4659 28.023 14.0809 28.9707 14.9375L32.166 17.7187C32.5549 18.0161 32.8127 18.4532 32.8848 18.9375C32.8908 19.0594 32.8718 19.1813 32.8288 19.2955C32.7857 19.4097 32.7197 19.5139 32.6348 19.6016L31.3066 21.0234C30.9691 21.3887 30.5075 21.6151 30.0121 21.6584C29.5166 21.7017 29.0228 21.5589 28.627 21.2578L28.3145 21.0234C27.3474 20.2923 26.1483 19.9362 24.939 20.0209C23.7297 20.1056 22.5919 20.6255 21.7363 21.4844L14.8379 28.6172C13.7811 27.8989 12.5374 27.5051 11.2598 27.4844V19.2812H12.8223C13.318 19.2789 13.8062 19.1587 14.2463 18.9305C14.6864 18.7023 15.066 18.3726 15.3535 17.9687ZM36.9395 29.6875L29.4004 40.875L26.7129 40.0937L25.0801 37.5C24.8722 37.171 24.549 36.9314 24.1738 36.8281L21.7676 36.1719L20.6895 33.8828C20.5937 33.6782 20.4547 33.4969 20.282 33.3512C20.1094 33.2056 19.9072 33.0991 19.6895 33.0391L17.1191 32.3515L16.4316 31.4375L23.9473 23.625C24.2729 23.3044 24.703 23.1114 25.159 23.0813C25.615 23.0512 26.0666 23.1859 26.4316 23.4609L26.7441 23.6953C27.7581 24.4608 29.02 24.823 30.2856 24.7118C31.5512 24.6007 32.7306 24.0242 33.5957 23.0937L34.9316 21.7344C35.3031 21.3397 35.5908 20.8738 35.7775 20.365C35.9641 19.8561 36.0458 19.3147 36.0176 18.7734C35.9849 18.1594 35.8197 17.5597 35.5332 17.0156H42.1191V27.9531H40.1738C39.5339 27.9552 38.9042 28.1144 38.3403 28.4168C37.7763 28.7192 37.2953 29.1556 36.9395 29.6875Z" fill="#FBA600"/>
</svg>
