<svg width="58" height="52" viewBox="0 0 58 52" fill="none" xmlns="http://www.w3.org/2000/svg">
<circle cx="40.4434" cy="17" r="17" fill="#FBA600" fill-opacity="0.1"/>
<path d="M48.1348 36.7656C47.1191 33.4062 43.7598 31.5312 40.5566 32.4687C37.9004 33.25 34.2285 34.3438 31.3379 35.2031C31.5723 34.2656 31.416 33.4844 31.1816 32.8594C30.4004 30.9844 28.3691 30.125 26.5723 30.125H18.6816C18.0566 30.125 17.3535 29.8125 16.6504 29.1875C15.791 28.4062 14.6191 27.9375 13.4473 27.9375H7.11914C4.30664 27.9375 1.96289 30.3594 1.96289 33.3281V43.4844C1.96289 46.5312 4.30664 48.9531 7.19727 48.9531H14.9316C15.8691 48.9531 16.8848 48.6406 17.7441 48.0938C20.0098 49.3438 22.5879 49.9688 25.166 49.9688C26.7285 49.9688 28.291 49.7344 29.6973 49.2656L43.916 44.9688H43.9941C48.291 43.3281 48.916 39.5781 48.1348 36.7656ZM7.19727 45.4375C6.25977 45.4375 5.47852 44.5781 5.47852 43.4844V33.3281C5.47852 32.3125 6.18164 31.4531 7.11914 31.4531H13.5254C13.916 31.4531 14.2285 31.6094 14.3848 31.7656C14.6191 32 14.8535 32.1562 15.0879 32.3125V45.3594C15.0098 45.3594 15.0098 45.3594 14.9316 45.3594H7.19727V45.4375ZM42.8223 41.6094L28.5254 45.9844C27.4316 46.2969 26.2598 46.5312 25.0098 46.5312C22.9785 46.5312 21.0254 45.9844 19.3066 45.0469L18.5254 44.6562V33.7187C18.6035 33.7187 18.6035 33.7187 18.6816 33.7187H26.6504C27.3535 33.7187 27.9004 34.0312 27.9785 34.2656C28.0566 34.5 27.9004 35.3594 26.2598 36.9219L25.2441 37.8594L25.9473 39.0313C26.6504 40.2813 27.3535 40.0469 30.0879 39.2656C31.3379 38.875 33.0566 38.4062 34.7754 37.9375C38.1348 36.9219 41.5723 35.9063 41.5723 35.9063C42.9004 35.5156 44.3066 36.375 44.7754 37.8594C45.166 39.1094 45.0879 40.75 42.8223 41.6094Z" fill="#FBA600"/>
</svg>
