<svg width="51" height="50" viewBox="0 0 51 50" fill="none" xmlns="http://www.w3.org/2000/svg">
<path d="M48.2129 27.75H46.3848C45.7676 27.75 45.2441 27.0312 45.2441 26.1875V14.375C45.2441 13.5078 45.8066 12.75 46.4473 12.75H48.2129C48.6273 12.75 49.0247 12.5854 49.3177 12.2923C49.6108 11.9993 49.7754 11.6019 49.7754 11.1875C49.7754 10.7731 49.6108 10.3757 49.3177 10.0826C49.0247 9.78961 48.6273 9.62499 48.2129 9.62499H46.4473C45.6834 9.63494 44.9363 9.85061 44.2846 10.2493C43.6329 10.648 43.1008 11.215 42.7441 11.8906H32.5176L31.0254 10.5859C29.6979 9.39613 28.1019 8.54577 26.3739 8.10766C24.6459 7.66954 22.8375 7.65672 21.1035 8.0703C16.7285 9.17967 13.8379 12.7031 12.8301 14.1562H11.2676C11.2851 12.9959 10.8506 11.8743 10.056 11.0287C9.26132 10.183 8.1689 9.67963 7.00977 9.62499H2.90039C2.48599 9.62499 2.08856 9.78961 1.79554 10.0826C1.50251 10.3757 1.33789 10.7731 1.33789 11.1875C1.33789 11.6019 1.50251 11.9993 1.79554 12.2923C2.08856 12.5854 2.48599 12.75 2.90039 12.75H6.99414C7.61133 12.75 8.13477 13.4609 8.13477 14.3125V26.1172C8.13477 26.9844 7.57227 27.75 6.93164 27.75H2.90039C2.48599 27.75 2.08856 27.9146 1.79554 28.2076C1.50251 28.5007 1.33789 28.8981 1.33789 29.3125C1.33789 29.7269 1.50251 30.1243 1.79554 30.4173C2.08856 30.7104 2.48599 30.875 2.90039 30.875H6.93164C7.69117 30.8592 8.4327 30.6409 9.07961 30.2426C9.72651 29.8443 10.2553 29.2805 10.6113 28.6094H11.1582C11.7521 28.6106 12.3357 28.7639 12.8535 29.0547C12.8139 29.2662 12.8185 29.4837 12.8669 29.6934C12.9153 29.9031 13.0065 30.1006 13.1348 30.2734L14.9395 32.6875C15.1519 32.9635 15.4479 33.1635 15.7832 33.2578L18.1738 33.8984L19.2441 36.1797C19.3399 36.3842 19.4789 36.5656 19.6516 36.7113C19.8242 36.8569 20.0264 36.9634 20.2441 37.0234L22.7598 37.7109L24.3926 40.3047C24.5986 40.6321 24.9187 40.8715 25.291 40.9766L29.6426 42.1875C29.7797 42.2275 29.9216 42.2485 30.0645 42.25C30.3204 42.2504 30.5725 42.1879 30.7986 42.068C31.0248 41.9481 31.218 41.7745 31.3613 41.5625L39.5254 29.4375C39.5971 29.3315 39.6937 29.2447 39.8067 29.1847C39.9198 29.1248 40.0459 29.0935 40.1738 29.0937H43.041C43.4169 29.6348 43.9162 30.0786 44.4977 30.3884C45.0791 30.6981 45.726 30.8649 46.3848 30.875H48.2129C48.6273 30.875 49.0247 30.7104 49.3177 30.4173C49.6108 30.1243 49.7754 29.7269 49.7754 29.3125C49.7754 28.8981 49.6108 28.5007 49.3177 28.2076C49.0247 27.9146 48.6273 27.75 48.2129 27.75ZM15.3535 15.9687C16.1895 14.789 18.4785 11.9531 21.8691 11.0937C23.1138 10.8063 24.4095 10.8239 25.646 11.1449C26.8824 11.4659 28.023 12.0809 28.9707 12.9375L32.166 15.7187C32.5549 16.0161 32.8127 16.4532 32.8848 16.9375C32.8908 17.0594 32.8718 17.1813 32.8288 17.2955C32.7857 17.4097 32.7197 17.5139 32.6348 17.6016L31.3066 19.0234C30.9691 19.3887 30.5075 19.6151 30.0121 19.6584C29.5166 19.7017 29.0228 19.5589 28.627 19.2578L28.3145 19.0234C27.3474 18.2923 26.1483 17.9362 24.939 18.0209C23.7297 18.1056 22.5919 18.6255 21.7363 19.4844L14.8379 26.6172C13.7811 25.8989 12.5374 25.5051 11.2598 25.4844V17.2812H12.8223C13.318 17.2789 13.8062 17.1587 14.2463 16.9305C14.6864 16.7023 15.066 16.3726 15.3535 15.9687ZM36.9395 27.6875L29.4004 38.875L26.7129 38.0937L25.0801 35.5C24.8722 35.171 24.549 34.9314 24.1738 34.8281L21.7676 34.1719L20.6895 31.8828C20.5937 31.6782 20.4547 31.4969 20.282 31.3512C20.1094 31.2056 19.9072 31.0991 19.6895 31.0391L17.1191 30.3515L16.4316 29.4375L23.9473 21.625C24.2729 21.3044 24.703 21.1114 25.159 21.0813C25.615 21.0512 26.0666 21.1859 26.4316 21.4609L26.7441 21.6953C27.7581 22.4608 29.02 22.823 30.2856 22.7118C31.5512 22.6007 32.7306 22.0242 33.5957 21.0937L34.9316 19.7344C35.3031 19.3397 35.5908 18.8738 35.7775 18.365C35.9641 17.8561 36.0458 17.3147 36.0176 16.7734C35.9849 16.1594 35.8197 15.5597 35.5332 15.0156H42.1191V25.9531H40.1738C39.5339 25.9552 38.9042 26.1144 38.3403 26.4168C37.7763 26.7192 37.2953 27.1556 36.9395 27.6875Z" fill="#FBA600"/>
</svg>
