<svg width="58" height="52" viewBox="0 0 58 52" fill="none" xmlns="http://www.w3.org/2000/svg">
<circle cx="40.4434" cy="17" r="17" fill="#FBA600" fill-opacity="0.1"/>
<path d="M45.9473 19.2656H41.2598V10.125C41.2598 7.46875 39.1504 5.35938 36.4942 5.35938H10.7129C8.05667 5.35938 5.9473 7.46875 5.9473 10.125V23.7969C5.47855 24.1875 5.08792 24.7344 4.85355 25.4375L1.96292 39.5C1.80667 40.2812 2.04105 41.1406 2.58792 41.7656C3.05667 42.3906 3.83792 42.7031 4.61917 42.7031H29.7754V45.4375C29.7754 47.2344 31.2598 48.7188 33.0567 48.7188H45.9473C47.7442 48.7188 49.2285 47.2344 49.2285 45.4375V22.5469C49.2285 20.75 47.7442 19.2656 45.9473 19.2656ZM5.6348 39.1875L8.21292 26.7656H8.60355H29.8535V39.1875H5.6348ZM29.7754 22.5469V23.25H9.46292V10.125C9.46292 9.42187 10.0098 8.875 10.7129 8.875H36.4942C37.1973 8.875 37.7442 9.42187 37.7442 10.125V19.2656H33.0567C31.2598 19.2656 29.7754 20.75 29.7754 22.5469ZM45.7129 45.125H33.2911V22.7812H45.7129V45.125Z" fill="#FBA600"/>
<path d="M37.7441 28.7969H41.6504C42.5879 28.7969 43.4473 28.0156 43.4473 27C43.4473 26.0625 42.666 25.2031 41.6504 25.2031H37.7441C36.8066 25.2031 35.9473 25.9844 35.9473 27C35.9473 27.9375 36.7285 28.7969 37.7441 28.7969Z" fill="#FBA600"/>
<path d="M39.541 40.9062C39.4629 40.9062 39.3066 40.9844 39.2285 40.9844C39.1504 41.0625 38.9941 41.0625 38.916 41.1406C38.8379 41.2187 38.7598 41.2969 38.6816 41.375C38.3691 41.6875 38.1348 42.1562 38.1348 42.625C38.1348 43.0937 38.291 43.5625 38.6816 43.875C38.7598 43.9531 38.8379 44.0313 38.916 44.1094C38.9941 44.1875 39.1504 44.2656 39.2285 44.2656C39.3066 44.3437 39.4629 44.3438 39.541 44.3438C39.6191 44.3438 39.7754 44.3438 39.8535 44.3438C40.3223 44.3438 40.791 44.1875 41.1035 43.7969C41.416 43.4844 41.6504 43.0156 41.6504 42.5469C41.6504 42.0781 41.4941 41.6094 41.1035 41.2969C40.7129 40.9844 40.0879 40.8281 39.541 40.9062Z" fill="#FBA600"/>
</svg>
