<svg width="51" height="50" viewBox="0 0 51 50" fill="none" xmlns="http://www.w3.org/2000/svg">
<path d="M45.9473 17.2656H41.2598V8.125C41.2598 5.46875 39.1504 3.35938 36.4942 3.35938H10.7129C8.05667 3.35938 5.9473 5.46875 5.9473 8.125V21.7969C5.47855 22.1875 5.08792 22.7344 4.85355 23.4375L1.96292 37.5C1.80667 38.2812 2.04105 39.1406 2.58792 39.7656C3.05667 40.3906 3.83792 40.7031 4.61917 40.7031H29.7754V43.4375C29.7754 45.2344 31.2598 46.7188 33.0567 46.7188H45.9473C47.7442 46.7188 49.2285 45.2344 49.2285 43.4375V20.5469C49.2285 18.75 47.7442 17.2656 45.9473 17.2656ZM5.6348 37.1875L8.21292 24.7656H8.60355H29.8535V37.1875H5.6348ZM29.7754 20.5469V21.25H9.46292V8.125C9.46292 7.42187 10.0098 6.875 10.7129 6.875H36.4942C37.1973 6.875 37.7442 7.42187 37.7442 8.125V17.2656H33.0567C31.2598 17.2656 29.7754 18.75 29.7754 20.5469ZM45.7129 43.125H33.2911V20.7812H45.7129V43.125Z" fill="#FBA600"/>
<path d="M37.7441 26.7969H41.6504C42.5879 26.7969 43.4473 26.0156 43.4473 25C43.4473 24.0625 42.666 23.2031 41.6504 23.2031H37.7441C36.8066 23.2031 35.9473 23.9844 35.9473 25C35.9473 25.9375 36.7285 26.7969 37.7441 26.7969Z" fill="#FBA600"/>
<path d="M39.541 38.9062C39.4629 38.9062 39.3066 38.9844 39.2285 38.9844C39.1504 39.0625 38.9941 39.0625 38.916 39.1406C38.8379 39.2187 38.7598 39.2969 38.6816 39.375C38.3691 39.6875 38.1348 40.1562 38.1348 40.625C38.1348 41.0937 38.291 41.5625 38.6816 41.875C38.7598 41.9531 38.8379 42.0313 38.916 42.1094C38.9941 42.1875 39.1504 42.2656 39.2285 42.2656C39.3066 42.3437 39.4629 42.3438 39.541 42.3438C39.6191 42.3438 39.7754 42.3438 39.8535 42.3438C40.3223 42.3438 40.791 42.1875 41.1035 41.7969C41.416 41.4844 41.6504 41.0156 41.6504 40.5469C41.6504 40.0781 41.4941 39.6094 41.1035 39.2969C40.7129 38.9844 40.0879 38.8281 39.541 38.9062Z" fill="#FBA600"/>
</svg>
