<svg width="446" height="385" viewBox="0 0 446 385" fill="none" xmlns="http://www.w3.org/2000/svg">
<path d="M339.519 278.541C339.519 278.541 328.124 311.544 337.749 330.442C337.749 330.442 232.002 333.153 212.537 330.711C193.067 328.269 190.2 296.559 190.2 296.559L199.581 282.062L215.999 275.508L339.519 278.538V278.541Z" fill="#FFAB3B"/>
<path d="M111.061 329.82L212.537 330.715C212.537 330.715 181.848 300.23 215.999 275.512L116.646 274.16C116.646 274.16 88.0509 294.26 111.061 329.816V329.82Z" fill="#7EA387"/>
<path d="M156.491 330.505C144.606 314.147 145.302 299.746 147.979 290.545C150.88 280.579 156.678 274.392 156.738 274.328L157.311 274.871C157.255 274.931 151.568 281.002 148.727 290.796C146.111 299.818 145.444 313.952 157.131 330.037L156.491 330.502V330.505Z" fill="#C65B42"/>
<path d="M167.665 330.809C150.46 304.746 166.415 275.115 166.579 274.819L167.272 275.201C167.111 275.493 151.385 304.716 168.324 330.374L167.665 330.809Z" fill="#C65B42"/>
<path d="M210.631 279.92L341.795 281.272L342.825 278.062L215.999 275.512L205.398 279.74L210.631 279.92Z" fill="#7EA387"/>
<path d="M208.056 326.94L342.218 326.779L342.084 330.726C342.084 330.726 224.924 334.236 212.537 330.715C200.15 327.198 208.056 326.94 208.056 326.94Z" fill="#7EA387"/>
<path d="M330.135 247.056C330.135 247.056 319.2 265.991 329.232 277.01C329.232 277.01 222.584 277.437 202.897 275.815C183.215 274.193 179.782 255.853 179.782 255.853L189.002 247.58L205.454 243.974L330.138 247.056H330.135Z" fill="#E6E7E8"/>
<path d="M100.494 274.204L202.897 275.815C202.897 275.815 171.416 257.879 205.454 243.974L105.184 242.124C105.184 242.124 76.671 253.423 100.498 274.204H100.494Z" fill="#C65B42"/>
<path d="M132.167 275.231C124.568 269.302 120.903 263.194 121.273 257.07C121.824 247.932 131.107 242.24 131.5 242L132.182 243.127C132.092 243.183 123.089 248.715 122.587 257.157C122.25 262.816 125.747 268.549 132.979 274.193L132.17 275.231H132.167Z" fill="#7EA387"/>
<path d="M138.553 275.362C133.084 270.68 130.153 265.377 129.846 259.602C129.333 250 136.187 242.61 136.479 242.3L137.437 243.202C137.37 243.273 130.673 250.505 131.163 259.542C131.455 264.943 134.229 269.928 139.414 274.362L138.556 275.362H138.553Z" fill="#7EA387"/>
<path d="M200.112 246.464L332.478 248.655L333.466 246.816L205.454 243.974L194.831 246.303L200.112 246.464Z" fill="#C65B42"/>
<path d="M198.316 273.587L333.68 274.939L333.612 277.216C333.612 277.216 215.456 277.98 202.901 275.815C190.342 273.65 198.319 273.587 198.319 273.587H198.316Z" fill="#C65B42"/>
<path d="M204.708 286.266L204.675 287.568L336.355 290.903L336.388 289.6L204.708 286.266Z" fill="#F1F2F2"/>
<path d="M201.028 293.941L201.026 295.245L336.195 295.504L336.197 294.201L201.028 293.941Z" fill="#F1F2F2"/>
<path d="M199.87 303.755L199.861 305.058L334.122 305.949L334.131 304.646L199.87 303.755Z" fill="#F1F2F2"/>
<path d="M333.884 311.126L202.408 314.364L202.44 315.667L333.916 312.429L333.884 311.126Z" fill="#F1F2F2"/>
<path d="M334.444 318.915L204.979 319.796L204.988 321.1L334.453 320.218L334.444 318.915Z" fill="#F1F2F2"/>
<path d="M335.227 322.52L207.601 323.991L207.616 325.294L335.242 323.823L335.227 322.52Z" fill="#F1F2F2"/>
<path d="M227.05 293.484L247.575 293.492C247.575 293.492 262.765 310.873 256.836 340.688L244.404 329.232C244.404 329.232 238.085 342.067 234.334 346.407C234.334 346.407 238.886 305.533 227.046 293.484H227.05Z" fill="#C65B42"/>
<circle cx="252.667" cy="104" r="1.66667" transform="rotate(-90 252.667 104)" fill="#FBA600"/>
<circle cx="267.333" cy="104" r="1.66667" transform="rotate(-90 267.333 104)" fill="#FBA600"/>
<circle cx="282" cy="104" r="1.66667" transform="rotate(-90 282 104)" fill="#FBA600"/>
<circle cx="296.667" cy="104" r="1.66667" transform="rotate(-90 296.667 104)" fill="#FBA600"/>
<circle cx="311.333" cy="104" r="1.66667" transform="rotate(-90 311.333 104)" fill="#FBA600"/>
<circle cx="339.667" cy="104" r="1.66667" transform="rotate(-90 339.667 104)" fill="#FBA600"/>
<circle cx="368.667" cy="104" r="1.66667" transform="rotate(-90 368.667 104)" fill="#FBA600"/>
<circle cx="325.667" cy="104" r="1.66667" transform="rotate(-90 325.667 104)" fill="#FBA600"/>
<circle cx="354" cy="104" r="1.66667" transform="rotate(-90 354 104)" fill="#FBA600"/>
<circle cx="383" cy="104" r="1.66667" transform="rotate(-90 383 104)" fill="#FBA600"/>
<circle cx="252.667" cy="89.3333" r="1.66667" transform="rotate(-90 252.667 89.3333)" fill="#FBA600"/>
<circle cx="267.333" cy="89.3333" r="1.66667" transform="rotate(-90 267.333 89.3333)" fill="#FBA600"/>
<circle cx="282" cy="89.3333" r="1.66667" transform="rotate(-90 282 89.3333)" fill="#FBA600"/>
<circle cx="296.667" cy="89.3333" r="1.66667" transform="rotate(-90 296.667 89.3333)" fill="#FBA600"/>
<circle cx="311.333" cy="89.3336" r="1.66667" transform="rotate(-90 311.333 89.3336)" fill="#FBA600"/>
<circle cx="339.667" cy="89.3336" r="1.66667" transform="rotate(-90 339.667 89.3336)" fill="#FBA600"/>
<circle cx="368.667" cy="89.3336" r="1.66667" transform="rotate(-90 368.667 89.3336)" fill="#FBA600"/>
<circle cx="325.667" cy="89.3336" r="1.66667" transform="rotate(-90 325.667 89.3336)" fill="#FBA600"/>
<circle cx="354" cy="89.3336" r="1.66667" transform="rotate(-90 354 89.3336)" fill="#FBA600"/>
<circle cx="383" cy="89.3336" r="1.66667" transform="rotate(-90 383 89.3336)" fill="#FBA600"/>
<circle cx="252.667" cy="74.6668" r="1.66667" transform="rotate(-90 252.667 74.6668)" fill="#FBA600"/>
<circle cx="252.667" cy="31.0001" r="1.66667" transform="rotate(-90 252.667 31.0001)" fill="#FBA600"/>
<circle cx="267.333" cy="74.6668" r="1.66667" transform="rotate(-90 267.333 74.6668)" fill="#FBA600"/>
<circle cx="267.333" cy="31.0001" r="1.66667" transform="rotate(-90 267.333 31.0001)" fill="#FBA600"/>
<circle cx="282" cy="74.6668" r="1.66667" transform="rotate(-90 282 74.6668)" fill="#FBA600"/>
<circle cx="282" cy="31.0001" r="1.66667" transform="rotate(-90 282 31.0001)" fill="#FBA600"/>
<circle cx="296.667" cy="74.6668" r="1.66667" transform="rotate(-90 296.667 74.6668)" fill="#FBA600"/>
<circle cx="296.667" cy="31.0001" r="1.66667" transform="rotate(-90 296.667 31.0001)" fill="#FBA600"/>
<circle cx="311.333" cy="74.6666" r="1.66667" transform="rotate(-90 311.333 74.6666)" fill="#FBA600"/>
<circle cx="311.333" cy="30.9998" r="1.66667" transform="rotate(-90 311.333 30.9998)" fill="#FBA600"/>
<circle cx="339.667" cy="74.6666" r="1.66667" transform="rotate(-90 339.667 74.6666)" fill="#FBA600"/>
<circle cx="339.667" cy="30.9998" r="1.66667" transform="rotate(-90 339.667 30.9998)" fill="#FBA600"/>
<circle cx="368.667" cy="74.6666" r="1.66667" transform="rotate(-90 368.667 74.6666)" fill="#FBA600"/>
<circle cx="368.667" cy="30.9998" r="1.66667" transform="rotate(-90 368.667 30.9998)" fill="#FBA600"/>
<circle cx="325.667" cy="74.6666" r="1.66667" transform="rotate(-90 325.667 74.6666)" fill="#FBA600"/>
<circle cx="325.667" cy="30.9998" r="1.66667" transform="rotate(-90 325.667 30.9998)" fill="#FBA600"/>
<circle cx="354" cy="74.6666" r="1.66667" transform="rotate(-90 354 74.6666)" fill="#FBA600"/>
<circle cx="354" cy="30.9998" r="1.66667" transform="rotate(-90 354 30.9998)" fill="#FBA600"/>
<circle cx="383" cy="74.6666" r="1.66667" transform="rotate(-90 383 74.6666)" fill="#FBA600"/>
<circle cx="383" cy="30.9998" r="1.66667" transform="rotate(-90 383 30.9998)" fill="#FBA600"/>
<circle cx="252.667" cy="60.0001" r="1.66667" transform="rotate(-90 252.667 60.0001)" fill="#FBA600"/>
<circle cx="252.667" cy="16.3333" r="1.66667" transform="rotate(-90 252.667 16.3333)" fill="#FBA600"/>
<circle cx="267.333" cy="60.0001" r="1.66667" transform="rotate(-90 267.333 60.0001)" fill="#FBA600"/>
<circle cx="267.333" cy="16.3333" r="1.66667" transform="rotate(-90 267.333 16.3333)" fill="#FBA600"/>
<circle cx="282" cy="60.0001" r="1.66667" transform="rotate(-90 282 60.0001)" fill="#FBA600"/>
<circle cx="282" cy="16.3333" r="1.66667" transform="rotate(-90 282 16.3333)" fill="#FBA600"/>
<circle cx="296.667" cy="60.0001" r="1.66667" transform="rotate(-90 296.667 60.0001)" fill="#FBA600"/>
<circle cx="296.667" cy="16.3333" r="1.66667" transform="rotate(-90 296.667 16.3333)" fill="#FBA600"/>
<circle cx="311.333" cy="60.0001" r="1.66667" transform="rotate(-90 311.333 60.0001)" fill="#FBA600"/>
<circle cx="311.333" cy="16.3333" r="1.66667" transform="rotate(-90 311.333 16.3333)" fill="#FBA600"/>
<circle cx="339.667" cy="60.0001" r="1.66667" transform="rotate(-90 339.667 60.0001)" fill="#FBA600"/>
<circle cx="339.667" cy="16.3333" r="1.66667" transform="rotate(-90 339.667 16.3333)" fill="#FBA600"/>
<circle cx="368.667" cy="60.0001" r="1.66667" transform="rotate(-90 368.667 60.0001)" fill="#FBA600"/>
<circle cx="368.667" cy="16.3333" r="1.66667" transform="rotate(-90 368.667 16.3333)" fill="#FBA600"/>
<circle cx="325.667" cy="60.0001" r="1.66667" transform="rotate(-90 325.667 60.0001)" fill="#FBA600"/>
<circle cx="325.667" cy="16.3333" r="1.66667" transform="rotate(-90 325.667 16.3333)" fill="#FBA600"/>
<circle cx="354" cy="60.0001" r="1.66667" transform="rotate(-90 354 60.0001)" fill="#FBA600"/>
<circle cx="354" cy="16.3333" r="1.66667" transform="rotate(-90 354 16.3333)" fill="#FBA600"/>
<circle cx="383" cy="60.0001" r="1.66667" transform="rotate(-90 383 60.0001)" fill="#FBA600"/>
<circle cx="383" cy="16.3333" r="1.66667" transform="rotate(-90 383 16.3333)" fill="#FBA600"/>
<circle cx="252.667" cy="45.3333" r="1.66667" transform="rotate(-90 252.667 45.3333)" fill="#FBA600"/>
<circle cx="252.667" cy="1.66659" r="1.66667" transform="rotate(-90 252.667 1.66659)" fill="#FBA600"/>
<circle cx="267.333" cy="45.3333" r="1.66667" transform="rotate(-90 267.333 45.3333)" fill="#FBA600"/>
<circle cx="267.333" cy="1.66659" r="1.66667" transform="rotate(-90 267.333 1.66659)" fill="#FBA600"/>
<circle cx="282" cy="45.3333" r="1.66667" transform="rotate(-90 282 45.3333)" fill="#FBA600"/>
<circle cx="282" cy="1.66659" r="1.66667" transform="rotate(-90 282 1.66659)" fill="#FBA600"/>
<circle cx="296.667" cy="45.3333" r="1.66667" transform="rotate(-90 296.667 45.3333)" fill="#FBA600"/>
<circle cx="296.667" cy="1.66659" r="1.66667" transform="rotate(-90 296.667 1.66659)" fill="#FBA600"/>
<circle cx="311.333" cy="45.3336" r="1.66667" transform="rotate(-90 311.333 45.3336)" fill="#FBA600"/>
<circle cx="311.333" cy="1.66683" r="1.66667" transform="rotate(-90 311.333 1.66683)" fill="#FBA600"/>
<circle cx="339.667" cy="45.3336" r="1.66667" transform="rotate(-90 339.667 45.3336)" fill="#FBA600"/>
<circle cx="339.667" cy="1.66683" r="1.66667" transform="rotate(-90 339.667 1.66683)" fill="#FBA600"/>
<circle cx="368.667" cy="45.3336" r="1.66667" transform="rotate(-90 368.667 45.3336)" fill="#FBA600"/>
<circle cx="368.667" cy="1.66683" r="1.66667" transform="rotate(-90 368.667 1.66683)" fill="#FBA600"/>
<circle cx="325.667" cy="45.3336" r="1.66667" transform="rotate(-90 325.667 45.3336)" fill="#FBA600"/>
<circle cx="325.667" cy="1.66683" r="1.66667" transform="rotate(-90 325.667 1.66683)" fill="#FBA600"/>
<circle cx="354" cy="45.3336" r="1.66667" transform="rotate(-90 354 45.3336)" fill="#FBA600"/>
<circle cx="354" cy="1.66683" r="1.66667" transform="rotate(-90 354 1.66683)" fill="#FBA600"/>
<circle cx="383" cy="45.3336" r="1.66667" transform="rotate(-90 383 45.3336)" fill="#FBA600"/>
<circle cx="383" cy="1.66683" r="1.66667" transform="rotate(-90 383 1.66683)" fill="#FBA600"/>
<g clip-path="url(#clip0_95_76)">
<path d="M209.905 28.4931C204.266 29.1778 192.763 42.1987 188.058 52.8405C185.018 59.7223 186.138 60.7667 183.475 63.7202C176.322 71.6639 165.984 66.6679 153.425 74.2402C146.834 78.2149 143.284 83.4488 142.054 85.3114C136.276 94.0326 131.467 109.705 138.498 119.807C146.759 131.674 169.308 135.962 179.93 132.805C206.366 124.954 217.859 89.2281 219.953 66.9C221.525 50.0843 217.29 27.6053 209.899 28.4989L209.905 28.4931Z" fill="#0E1647"/>
<path d="M218.566 25.3249C200.444 28.4641 192.652 42.6745 190.93 56.9835C190.599 59.7165 189.404 69.6562 195.454 78.3716C200.896 86.205 210.729 90.9398 219.002 89.0888C237.513 84.9458 261.391 48.5118 248.182 34.2724C241.162 26.7001 226.201 24.002 218.566 25.3249Z" fill="#0E1647"/>
<path d="M244.306 318.613C244.318 320.389 243.349 320.697 242.955 324.021C242.496 327.88 243.57 329.4 242.502 330.671C241.197 332.226 238.169 331.652 235.97 331.234C233.075 330.683 228.214 329.766 225.383 325.263C224.849 324.416 222.384 320.493 223.921 315.799C224.983 312.556 227.692 309.736 231.132 308.923C237.792 307.357 244.283 314.041 244.312 318.613H244.306Z" fill="#EB8E6C"/>
<path d="M322.6 328.924C323.319 330.41 322.658 330.944 322.936 333.828C323.725 341.98 329.747 345.067 328.511 347.69C327.096 350.701 317.953 349.146 313.474 347.858C310.249 346.93 303.943 345.125 302.324 340.419C302.145 339.891 302.029 338.313 301.82 335.18C301.495 330.41 301.338 328.019 301.651 327.404C304.134 322.542 319.664 322.878 322.605 328.924H322.6Z" fill="#EB8E6C"/>
<path d="M323.406 330.694C323.406 320.192 322.658 301.653 322.391 278.721C322.06 250.318 319.862 229.255 317.576 225.228C315.685 221.897 312.593 220.411 311.49 219.907C306.049 217.383 298.356 217.922 294.76 222.187C292.822 224.485 292.631 227.2 292.48 229.794C291.343 249.36 290.78 259.277 291.215 265.793C291.726 273.47 291.998 277.386 292.99 281.257C294.423 286.874 295.885 288.922 297.55 296.216C298.414 299.987 298.78 302.732 299.325 306.863C300.526 315.944 301.129 320.482 300.59 324.358C300.062 328.158 299.209 329.789 300.335 331.205C301.605 332.801 304.013 332.394 310.98 331.965C321.306 331.332 323.4 332.383 323.4 330.7L323.406 330.694Z" fill="#334D7C"/>
<path d="M277.025 209.01C260.585 206.567 252.335 205.348 250.92 205.458C237.589 206.538 224.693 213.541 225.319 216.866C226.062 220.777 244.399 213.681 268.405 222.442C280.048 226.696 286.696 232.365 298.31 231.059C301.46 230.705 319.188 229.249 317.57 225.228C315.383 219.791 305.822 213.286 277.019 209.004L277.025 209.01Z" fill="#334D7C"/>
<path d="M326.092 334.611C327.705 335.458 327.537 337.901 328.006 340.808C328.256 342.369 330.014 346.019 333.529 353.318C337.416 361.395 338.193 362.382 339.162 363.345C340.728 364.912 341.396 365.028 344.459 367.964C347.51 370.894 347.22 371.138 349.303 372.809C350.26 373.575 351.008 374.074 351.67 375.176C352.586 376.702 352.656 378.246 352.685 379.006C352.731 380.352 352.778 381.716 351.896 382.836C351.107 383.839 349.987 384.135 348.403 384.524C346.182 385.075 344.372 385 343.786 384.977C338.895 384.75 336.447 384.634 333.419 383.625C331.69 383.05 328.128 381.82 324.746 378.78C322.269 376.551 322.42 375.629 317.988 369.989C315.754 367.151 314.64 365.73 313.033 364.128C310.574 361.68 307.749 359.753 302.104 355.9C299.673 354.241 297.324 352.703 295.009 349.813C293.06 347.382 292.828 346.106 292.868 345.195C292.944 343.645 293.808 343.286 295.235 340.239C296.262 338.046 295.96 337.93 297.04 335.504C298.287 332.702 299.372 330.276 300.642 330.323C301.814 330.363 302.731 332.481 303.456 334.152C304.181 335.829 303.926 336.056 304.581 337.535C305.028 338.545 305.927 340.5 307.963 341.928C308.654 342.409 310.522 343.727 312.697 343.39C313.741 343.228 313.648 342.874 315.174 342.375C317.901 341.481 319.107 342.317 319.908 341.359C320.517 340.634 319.89 340.065 320.471 338.092C320.726 337.228 321.033 336.178 321.933 335.388C323.029 334.425 324.885 333.967 326.098 334.599L326.092 334.611Z" fill="#0F2251"/>
<path d="M292.857 345.206C292.932 343.657 293.797 343.297 295.224 340.251C295.496 339.671 295.676 339.235 295.81 338.864C296.047 339.682 296.367 340.529 296.802 341.377C297.475 342.705 298.269 343.75 299.731 345.322C304.216 350.144 306.762 351.084 310.997 355.013C313.898 357.699 312.755 357.31 317.419 362.109C320.413 365.19 322.779 367.604 326.318 370.221C329.19 372.345 331.621 374.138 335.444 375.519C339.603 377.016 343.003 377.149 344.905 377.207C346.976 377.271 348.137 377.097 349.076 376.871C350.19 376.598 351.165 376.203 351.983 375.774C352.598 377.091 352.656 378.344 352.679 379.012C352.725 380.358 352.772 381.722 351.89 382.841C351.101 383.845 349.981 384.141 348.398 384.53C346.176 385.081 344.366 385.006 343.78 384.983C338.889 384.756 336.441 384.64 333.413 383.631C331.684 383.056 328.122 381.826 324.74 378.786C322.263 376.557 322.414 375.635 317.982 369.995C315.748 367.157 314.635 365.736 313.028 364.134C310.568 361.685 307.743 359.759 302.098 355.906C299.667 354.247 297.318 352.709 295.003 349.819C293.054 347.388 292.822 346.112 292.863 345.201L292.857 345.206Z" fill="#566B7C"/>
<path d="M295.757 224.63C296.401 225.564 298.194 228.361 299.215 235.295C300.659 245.101 298.832 251.322 298.061 258.064C297.277 264.923 298.594 272.53 301.228 287.756C303.502 300.893 305.208 304.432 307.279 318.596C308.091 324.132 308.59 328.791 308.897 332.093C303.514 332.452 301.472 332.621 300.34 331.199C299.209 329.783 300.068 328.153 300.596 324.352C301.135 320.482 300.532 315.938 299.331 306.857C298.786 302.726 298.42 299.982 297.556 296.21C295.885 288.916 294.429 286.868 292.996 281.251C292.004 277.375 291.731 273.458 291.221 265.787C290.797 259.422 291.325 249.807 292.41 231.123C284.12 230.34 277.936 225.912 268.411 222.437C244.405 213.675 226.062 220.771 225.325 216.86C225.087 215.59 226.822 213.779 229.803 211.969C253.159 212.752 270.07 213.988 278.18 215.398C285.872 216.739 292.132 219.373 295.757 224.624V224.63Z" fill="#2B4770"/>
<path d="M187.553 216.617C186.196 218.682 186.022 220.922 185.778 223.968C185.488 227.653 184.948 234.506 189.328 239.687C192.734 243.714 197.467 244.794 201.749 245.774C206.413 246.842 221.989 247.364 248.889 247.039C259.564 246.912 257.191 246.738 261.814 246.784C277.779 246.952 281.829 248.786 287.665 245.769C288.291 245.444 296.616 240.999 296.79 233.856C296.912 228.86 292.979 225.146 291.47 223.713C286.47 218.984 280.32 217.998 278.035 217.626C255.474 213.994 243.436 212.16 206.308 211.29C200.89 211.162 191.283 210.93 187.553 216.611V216.617Z" fill="#3D5586"/>
<path d="M289.446 223.968C294.058 225.019 297.005 232.846 297.051 238.927C297.057 239.734 297.022 241.892 295.786 246.024C294.423 250.579 292.642 254.043 285.141 265.544C278.516 275.704 276.782 277.798 275.256 279.487C271.955 283.148 272.164 282.15 267.146 287.344C260.144 294.597 256.094 300.318 254.725 302.303C252.712 305.221 251.703 306.683 250.67 308.639C248.214 313.296 246.018 317.437 244.08 321.062C242.862 323.337 239.294 321.555 237.49 321.062C233.853 320.07 229.554 317.163 228.875 313.205C228.353 310.182 227.97 308.842 242.815 276.951C248.976 263.716 252.161 257.171 253.461 255.151C268.161 232.336 259.03 250.051 276.016 233.601C283.702 226.156 286.226 223.232 289.451 223.968H289.446Z" fill="#3D5586"/>
<path d="M244.753 328.304C245.409 330.108 243.825 331.257 241.261 336.189C238.082 342.311 239.486 342.52 236.191 348.81C234.798 351.467 233.661 353.121 233.151 356.132C232.843 357.949 232.884 359.533 232.924 361.204C233 364.053 233.377 365.712 233.261 369.206C233.22 370.511 233.139 371.173 232.924 371.91C232.687 372.745 232.089 374.706 230.221 375.965C230.035 376.093 229.183 376.65 228.08 376.865C227.425 376.993 224.977 377.335 221.096 374.161C214.72 368.944 212.266 360.612 211.86 359.173C211.472 357.798 209.917 351.978 210.735 344.748C211.036 342.067 211.35 342.021 211.976 337.535C212.417 334.361 212.951 330.555 212.991 325.704C213.02 322.13 213.473 318.573 213.554 314.998C213.572 314.198 213.595 312.759 214.569 311.616C215.701 310.287 217.627 309.939 218.961 309.701C220.458 309.434 220.603 309.689 222.117 309.364C223.561 309.051 223.938 308.714 225.383 308.238C226.352 307.919 229.769 306.799 230.337 307.676C230.784 308.36 229.038 309.556 227.523 312.973C226.543 315.19 226.334 316.803 226.282 317.256C226.137 318.561 225.806 321.52 227.407 322.78C228.115 323.331 228.875 323.302 230.001 323.342C230.001 323.342 232.443 323.429 237.212 324.358C239.097 324.723 243.79 325.64 244.759 328.304H244.753Z" fill="#0F2251"/>
<path d="M210.735 344.754C211.037 342.073 211.35 342.027 211.976 337.541C212.417 334.367 212.951 330.561 212.992 325.71C213.021 322.136 213.473 318.579 213.554 315.004C213.572 314.204 213.595 312.764 214.569 311.621C215.701 310.293 217.627 309.944 218.961 309.707C220.115 309.498 220.469 309.602 221.264 309.509C220.933 310.002 220.643 310.554 220.423 311.169C220.052 312.196 220.005 313.031 219.97 313.763C219.646 320.482 219.576 324.294 219.181 327.845C219.181 327.863 219.181 327.845 218.619 331.675C217.424 339.804 217.296 340.68 217.157 342.044C216.739 346.03 216.53 348.021 216.704 349.93C216.803 350.962 217.325 355.819 220.533 360.972C221.699 362.846 223.265 364.436 226.392 367.621C228.649 369.919 229.682 370.697 231.126 371.004C231.822 371.149 232.489 371.161 233.116 371.086C233.07 371.37 233.006 371.631 232.93 371.904C232.692 372.739 232.095 374.701 230.227 375.96C230.041 376.087 229.189 376.644 228.086 376.859C227.431 376.987 224.983 377.329 221.102 374.155C214.726 368.939 212.272 360.606 211.866 359.167C211.477 357.792 209.923 351.972 210.741 344.742L210.735 344.754Z" fill="#566B7C"/>
<path d="M185.778 223.968C186.016 220.922 186.196 218.682 187.553 216.617C190.715 211.801 198.094 211.232 203.57 211.249C203.686 214.742 204.255 218.491 205.554 222.332C206.604 225.436 208.049 229.533 211.895 232.707C216.82 236.775 222.842 236.972 226.015 237.03C258.867 237.657 269.356 236.554 271.259 240.488C272.756 243.581 267.807 247.434 259.732 258.934C255.584 264.841 251.877 271.804 244.457 285.742C238.981 296.024 234.131 306.295 229.931 315.869C229.409 315.051 229.032 314.157 228.869 313.205C228.347 310.182 227.964 308.842 242.81 276.951C248.971 263.716 252.155 257.17 253.455 255.151C255.897 251.356 257.684 248.687 259.036 246.796C257.458 246.836 256.414 246.952 248.889 247.039C221.983 247.358 206.413 246.836 201.749 245.774C197.467 244.8 192.734 243.714 189.328 239.687C184.948 234.506 185.488 227.653 185.778 223.968Z" fill="#334D7C"/>
<path d="M257.034 181.877C260.474 184.065 259.477 185.741 265.313 193.204C269.252 198.24 271.288 200.84 275.111 203.004C278.36 204.843 280.593 205.058 280.686 206.387C280.825 208.302 276.387 210.675 272.239 210.948C269.669 211.116 267.436 210.466 265.481 209.596C261.165 207.675 258.293 204.721 250.102 193.029C243.738 183.943 243.21 182.492 243.848 181.366C245.31 178.802 252.289 178.865 257.028 181.871L257.034 181.877Z" fill="#EB8E6C"/>
<path d="M250.444 148.414C252.283 148.942 250.694 153.16 253.484 165.653C253.484 165.653 256.414 178.761 261.6 185.614C261.617 185.637 261.762 185.829 261.931 186.101C262.134 186.438 263.12 188.045 262.777 188.973C262.453 189.85 261.165 189.507 259.395 190.325C257.028 191.422 255.81 193.674 255.34 194.55C253.983 197.068 254.47 198.64 253.652 198.942C252.051 199.534 248.634 194.039 247.909 192.855C241.783 182.881 238.72 177.891 238.279 172.744C237.177 159.903 247.114 147.445 250.444 148.408V148.414Z" fill="#566B7C"/>
<path d="M264.414 215.218H314.78C315.876 215.218 316.885 214.626 317.419 213.669L344.151 169.57C344.725 168.543 342.66 166.094 341.483 166.094H287.618C286.505 166.094 285.484 166.703 284.956 167.684L259.918 213.466C258.833 215.485 262.116 215.212 264.408 215.212L264.414 215.218Z" fill="#929292"/>
<path d="M226.079 97.7172C230.256 98.8893 228.33 98.4077 232.164 99.4928C235.976 100.572 241 101.773 243.645 104.001C248.599 108.173 247.108 115.316 247.184 117.347C247.294 120.48 251.424 124.037 252.944 128.389C253.762 130.716 255.213 134.993 254.975 140.302C254.87 142.559 254.644 146.574 252.184 150.445C251.013 152.296 250.467 152.319 249.394 153.996C246.946 157.831 247.062 161.98 247.114 164.388C247.561 185.892 245.182 185.573 247.369 194.555C249.058 201.472 251.308 205.11 249.145 208.244C247.631 210.437 244.956 210.924 241.29 211.539C224.576 214.342 222.256 214.423 217.719 215.34C209.708 216.965 204.893 219.158 197.949 220.156C192.896 220.882 193.923 219.936 188.568 220.661C187.008 220.87 185.842 221.102 185.018 220.406C183.336 218.984 184.618 214.934 185.018 213.559C186.845 207.257 184.954 205.65 185.523 192.264C186.004 181.001 188.017 166.448 191.353 134.969C192.507 124.072 193.499 113.43 187.298 108.353C184.415 105.992 180.238 105.046 179.948 102.266C179.576 98.7443 185.592 95.5529 186.793 94.9146C193.714 91.2242 199.463 92.1178 203.385 92.112C206.883 92.112 215.155 94.6361 226.079 97.6998V97.7172Z" fill="#566B7C"/>
<path d="M185.529 192.275C186.01 181.012 188.023 166.46 191.359 134.981C191.747 131.291 192.119 127.629 192.2 124.2C192.856 125.355 193.465 126.556 194.022 127.809C196.464 133.316 196.835 144.236 197.479 165.856C198.106 186.972 197.624 195.519 201.801 207.797C203.182 211.859 204.754 215.387 206.256 218.323C203.594 219.065 191.817 222.326 185.018 220.417C182.895 219.82 184.618 214.946 185.018 213.57C186.845 207.269 184.954 205.662 185.523 192.275H185.529Z" fill="#566B7C"/>
<path d="M228.196 111.51C223.445 111.51 217.644 110.639 211.071 106.665C203.535 102.104 199.567 95.7095 197.723 92.0539C199.887 91.9785 201.784 92.1294 203.385 92.1236C206.883 92.1236 215.155 94.6477 226.079 97.7114C230.256 98.8835 228.33 98.4019 232.164 99.487C232.901 99.6959 238.697 111.516 228.196 111.504V111.51Z" fill="white"/>
<path d="M191.469 171.734C192.763 168.16 191.84 168.015 192.821 158.887C194.091 147.056 195.849 145.309 196.539 134.72C196.986 127.856 196.557 123.875 196.371 122.384C195.82 117.939 195.153 112.96 191.811 108.017C191.568 107.657 184.043 95.7618 180.58 99.928C178.95 101.889 178.074 104.303 176.943 108.017C174.344 116.581 173.485 123.62 173.392 124.409C172.545 131.685 172.018 137.227 171.872 138.776C170.335 155.116 170.225 157.733 170.184 160.239C170.138 162.827 170.092 169.158 171.536 177.142C172.557 182.788 175.411 186.925 177.221 187.732C181.398 189.6 188.162 180.891 191.475 171.734H191.469Z" fill="#566B7C"/>
<path d="M196.203 177.485C198.72 178.111 198.738 179.689 203.976 184.923C210.683 191.619 211.303 189.676 217.157 195.739C219.889 198.571 221.803 201.118 225.435 201.826C225.783 201.896 226.578 202.029 229.827 201.826C233.545 201.594 236.312 201.182 239.799 200.642C248.042 199.372 249.22 199.128 251.291 199.795C251.686 199.923 253.13 200.666 256.025 202.163C259.03 203.712 260.248 204.437 260.927 205.882C261.391 206.874 261.606 208.215 261.095 208.586C260.44 209.068 258.815 207.762 258.56 208.081C258.305 208.4 260.004 209.752 259.575 210.449C258.902 211.545 256.959 211.128 256.959 211.128C256.959 211.128 256.21 212.439 255.352 212.816C254.279 213.286 253.142 212.625 250.96 211.464C249.295 210.582 244.939 208.261 244.707 208.592C244.486 208.905 248.234 211.336 247.747 212.48C247.503 213.054 246.244 213.141 245.38 212.984C243.587 212.665 243.326 211.296 241.493 210.449C239.955 209.741 238.482 209.932 237.101 210.112C234.885 210.402 234.195 211.151 232.031 211.969C230.726 212.462 227.146 213.826 223.074 212.984C220.191 212.387 217.94 210.866 217.331 210.449C216.536 209.903 216.002 209.433 215.811 209.265C211.982 205.969 204.319 203.178 204.319 203.178C197.085 200.55 181.856 195.008 181.34 188.306C180.917 182.863 190.129 175.976 196.209 177.49L196.203 177.485Z" fill="#EB8E6C"/>
<path d="M258.131 207.658C258.322 207.402 258.264 207.031 258.003 206.845C257.295 206.34 256.559 205.847 255.816 205.389C254.667 204.675 253.733 204.176 252.318 203.428C251.517 202.998 250.694 202.575 249.864 202.157C249.58 202.012 249.232 202.128 249.087 202.418C248.947 202.702 249.063 203.045 249.342 203.19C250.16 203.602 250.978 204.025 251.773 204.449C253.165 205.192 254.087 205.679 255.201 206.375C255.92 206.822 256.634 207.298 257.319 207.791C257.574 207.977 257.933 207.919 258.119 207.669L258.131 207.658Z" fill="#C36252"/>
<path d="M256.356 210.611C256.53 210.344 256.46 209.984 256.193 209.81C255.456 209.323 254.714 208.835 253.966 208.348C252.098 207.135 250.183 205.928 248.275 204.756C248.002 204.588 247.648 204.675 247.48 204.948C247.312 205.22 247.399 205.574 247.671 205.737C249.574 206.909 251.477 208.11 253.339 209.317C254.087 209.799 254.824 210.286 255.561 210.773C255.828 210.948 256.182 210.878 256.356 210.611Z" fill="#C36252"/>
<path d="M244.359 208.081C244.504 207.797 244.393 207.443 244.109 207.298C243.43 206.961 242.74 206.648 242.05 206.358C241.388 206.085 240.704 205.824 240.025 205.592C239.723 205.487 239.393 205.661 239.294 205.963C239.196 206.265 239.364 206.584 239.66 206.683C240.315 206.909 240.971 207.153 241.609 207.42C242.276 207.698 242.943 208 243.593 208.325C243.877 208.464 244.219 208.36 244.364 208.075L244.359 208.081Z" fill="#C36252"/>
<path d="M217.719 213.472H269.745C270.708 213.472 271.491 214.255 271.491 215.218C271.491 216.181 270.708 216.965 269.745 216.965H217.719C216.756 216.965 215.973 216.181 215.973 215.218C215.973 214.255 216.756 213.472 217.719 213.472Z" fill="#DEDEDE"/>
<path d="M231.689 88.7465C231.439 90.1217 230.697 89.8432 229.438 92.3499C229.09 93.0404 227.442 98.5818 229.983 103.34C230.935 105.115 234.711 110.97 220.638 107.216C215.991 105.974 211.46 103.607 207.765 100.7C205.241 98.7153 202.393 93.7657 203.187 92.3499C203.791 91.2764 206.198 91.3635 208.838 90.5337C214.836 88.6363 211.692 68.1186 216.664 66.2792C221.688 64.4224 232.629 83.6461 231.689 88.7465Z" fill="#EB8E6C"/>
<path d="M216.658 78.2613C217.087 77.8204 217.58 77.4722 218.166 77.2517C223.19 75.3949 232.617 83.6461 231.683 88.7465C231.434 90.1217 230.691 89.8432 229.432 92.3499C229.334 92.553 229.119 93.1622 228.933 94.0442C227.698 93.4872 226.63 92.8605 225.719 92.228C220.62 88.6769 217.992 83.2863 216.652 78.2613H216.658Z" fill="#DD7858"/>
<path d="M241.539 38.1427C243.686 39.3206 247.399 41.4212 249.905 45.7498C251.604 48.6859 252.266 49.0921 252.991 54.5697C253.6 59.1711 252.857 62.8847 252.44 63.7493C251.575 65.5422 250.398 65.8846 249.905 68.0605C249.359 70.4918 250.549 70.8167 249.452 73.9791C248.083 77.919 247.613 77.2749 245.594 81.7487C241.174 91.5607 236.457 91.8683 236.034 92.0365C233.412 93.0926 230.239 91.6188 227.854 89.6053C222.407 85.0097 219.686 82.7177 218.224 80.9885C213.282 75.1396 212.255 60.6507 217.4 50.183C218.566 47.8097 206.03 44.3224 213.914 37.8932C224.629 29.1546 240.733 37.7017 241.539 38.1485V38.1427Z" fill="#EB8E6C"/>
<path d="M188.742 162.177C190.726 163.338 193.418 171.183 196.847 174.49C198.715 176.295 200.629 177.067 200.565 178.546C200.519 179.62 199.469 180.345 198.709 180.914C198.709 180.914 195.669 183.159 191.614 187.505C187.385 192.037 187.559 196.818 185.36 196.801C185.012 196.801 184.67 196.679 183.33 195.449C181.16 193.465 171.171 183.676 171.171 175.007C171.171 166.413 184.421 159.659 188.742 162.177Z" fill="#566B7C"/>
<path d="M265.539 216.965H315.905C317.001 216.965 318.011 216.373 318.545 215.421L343.948 170.144C344.522 169.117 343.78 167.852 342.608 167.852H288.744C287.63 167.852 286.609 168.462 286.081 169.442L262.87 212.503C261.785 214.522 263.242 216.971 265.533 216.971L265.539 216.965Z" fill="#F4F2F0"/>
<path d="M179.913 169.297C180.116 169.523 180.464 169.552 180.702 169.361C181.938 168.357 184.125 167.017 187.019 166.976C188.139 166.959 189.247 167.139 190.326 167.516C190.616 167.614 190.929 167.469 191.04 167.185C191.167 166.877 190.999 166.529 190.686 166.419C189.485 166.007 188.255 165.81 187.002 165.821C183.771 165.868 181.34 167.353 179.977 168.462C179.722 168.67 179.693 169.048 179.913 169.291V169.297Z" fill="#566B7C"/>
<path d="M326.84 167.852L334.8 186.461L330.437 194.236L319.16 167.852H326.84Z" fill="#F5F5F5"/>
<path d="M262.876 212.503L286.087 169.442C286.615 168.462 287.642 167.852 288.75 167.852H290.269C288.999 171.647 287.845 176.823 288.065 182.933C288.216 186.96 288.605 197.671 296.134 205.992C302.655 213.199 311.531 215.311 318.342 215.735C317.773 216.506 316.874 216.971 315.905 216.971H265.539C263.247 216.971 261.785 214.522 262.876 212.503Z" fill="#DFDFDF"/>
<path d="M239.393 60.8016C238.476 60.4186 237.531 60.0937 236.579 59.8442C235.059 59.4438 233.493 59.2175 231.915 59.1653C231.521 59.1537 231.196 59.467 231.196 59.8616C231.196 60.233 231.492 60.5405 231.857 60.5521C233.336 60.5985 234.804 60.8132 236.225 61.1846C237.125 61.4225 238.006 61.7242 238.865 62.084C239.207 62.229 239.602 62.0724 239.758 61.7358C239.921 61.3819 239.758 60.9583 239.399 60.8074L239.393 60.8016Z" fill="#161237"/>
<path d="M242.073 65.7047C241.789 65.6583 241.528 65.8149 241.493 66.0528C241.232 67.7704 241.081 69.5227 241.029 71.2693C241.006 72.1049 241.011 72.8128 241.011 73.4394C241.023 75.1802 241.023 76.0506 240.437 76.509C239.718 77.066 238.186 76.921 236.086 76.1028C235.831 76.0042 235.541 76.0912 235.431 76.3059C235.315 76.5322 235.448 76.7991 235.715 76.9035C236.121 77.0602 236.51 77.1995 236.875 77.3097C238.824 77.9074 240.257 77.8668 241.139 77.1763C242.038 76.4742 242.032 75.4123 242.021 73.4859C242.021 72.865 242.015 72.1629 242.038 71.3389C242.085 69.6214 242.241 67.898 242.496 66.2095C242.531 65.9716 242.34 65.7453 242.061 65.6989L242.073 65.7047Z" fill="#C36252"/>
<path d="M235.181 63.6216C234.502 63.4707 233.76 64.2134 233.528 65.2753C233.296 66.3372 233.661 67.3178 234.34 67.4686C235.019 67.6195 235.761 66.8768 235.993 65.8149C236.225 64.7531 235.86 63.7724 235.181 63.6216Z" fill="#23173D"/>
<path d="M247.201 66.3024C246.522 66.1515 245.78 66.8942 245.548 67.9561C245.316 69.0179 245.681 69.9986 246.36 70.1494C247.039 70.3003 247.781 69.5576 248.013 68.4957C248.245 67.4339 247.88 66.4532 247.201 66.3024Z" fill="#23173D"/>
<path d="M251.738 63.0588C250.705 62.7744 249.644 62.5598 248.588 62.4205C247.781 62.3102 246.975 62.2464 246.192 62.2232C245.797 62.2116 245.478 62.5307 245.478 62.9253C245.478 63.2967 245.78 63.5984 246.151 63.61C246.888 63.6274 247.642 63.6912 248.402 63.7957C249.406 63.9291 250.403 64.1322 251.384 64.405C251.744 64.5036 252.115 64.2947 252.219 63.9349C252.335 63.5578 252.115 63.1632 251.732 63.0646L251.738 63.0588Z" fill="#161237"/>
<path d="M239.973 81.6268L239.056 81.5978C237.728 81.5572 236.376 81.2961 235.036 80.8319L233.296 80.2284C232.901 80.0891 232.623 80.5011 232.808 80.9479C233.36 82.2825 235.349 84.2031 237.159 84.5745C238.958 84.94 240.031 83.6635 240.53 82.5552C240.698 82.178 240.385 81.6384 239.985 81.6268H239.973Z" fill="#FEFDFB"/>
<path d="M242.705 30.8315C242.125 30.553 241.574 30.2338 241.011 29.9785C237.855 28.5569 234.711 28.0173 231.88 27.9361C227.17 27.8026 223.358 28.9457 221.92 29.4331C211.274 33.0191 206.575 42.1116 204.713 45.7208C202.149 50.6819 212.87 67.3816 212.551 71.7161C225.383 50.9082 245.02 64.1612 248.501 45.0593C248.808 43.3766 256.686 53.6006 250.067 67.486C255.352 65.5422 263.305 40.7538 242.705 30.8315Z" fill="#0E1647"/>
<path d="M216.942 57.8771C219.239 57.8017 220.649 60.7493 220.725 60.906C222.784 65.3507 219.657 74.0371 216.942 74.1474C216.171 74.1764 215.712 72.807 214.935 71.7973C213.253 69.633 211.576 65.7337 212.498 62.6584C213.067 60.7726 214.726 57.9467 216.942 57.8771Z" fill="#EB8E6C"/>
<path d="M216.803 68.5596C216.873 68.6698 216.913 68.7336 216.913 68.7453C216.913 68.7453 216.867 68.6698 216.803 68.5596Z" fill="#C36252"/>
<path d="M218.596 62.7918C219.327 63.1864 219.785 63.9698 219.86 64.8749C219.889 65.2057 219.599 65.49 219.274 65.4668C219.025 65.4494 218.851 65.2463 218.828 64.9968C218.781 64.434 218.509 63.9523 218.073 63.7202C217.482 63.4011 216.687 63.61 216.292 63.993C215.863 64.4049 215.712 65.2463 215.886 66.2966C216.014 67.0683 216.356 67.7704 216.612 68.223C216.42 67.9039 216.281 67.6602 216.623 68.2404C216.681 68.339 216.728 68.4261 216.774 68.4957C216.82 68.5711 216.867 68.6466 216.919 68.7452C217.586 69.8825 216.768 69.7897 216.693 69.7723C216.002 69.6156 215.515 68.6234 215.271 68.0025C214.691 66.5113 214.43 64.3759 215.602 63.2444C216.275 62.6004 217.551 62.2232 218.596 62.786V62.7918Z" fill="#C36252"/>
<path d="M216.768 68.5015C216.71 68.4029 216.658 68.3159 216.617 68.2462C216.617 68.2404 216.612 68.2346 216.606 68.2288C216.675 68.3449 216.745 68.4667 216.803 68.5654C216.791 68.548 216.78 68.5248 216.768 68.5073V68.5015Z" fill="#C36252"/>
<path d="M213.862 59.6759C213.166 60.5811 212.313 62.1594 212.191 64.5152C212.023 67.7994 213.34 70.8747 214.697 71.6813C214.697 71.6987 214.697 71.7103 214.703 71.7277C214.79 72.3718 215.028 74.0835 216.681 74.4607C217.952 74.7508 218.508 73.9385 218.81 73.2132C218.932 72.9288 218.787 72.6097 218.503 72.5227C218.247 72.4472 217.963 72.5923 217.859 72.8476C217.603 73.4743 217.395 73.5381 216.954 73.4395C216.078 73.2422 215.846 72.4066 215.73 71.5362C215.683 71.2171 215.648 70.9386 215.347 70.8225C214.384 70.4396 213.067 67.6253 213.224 64.521C213.311 62.8557 213.792 61.4341 214.662 60.2968C215.005 59.85 215.48 59.2291 216.258 59.0202C217.087 58.7997 217.807 59.1537 218.108 59.3045C219.187 59.8442 219.692 60.8654 219.918 61.5559C219.999 61.8054 220.26 61.9389 220.522 61.8692C220.817 61.788 220.997 61.4689 220.899 61.1787C220.614 60.3258 219.976 59.0492 218.596 58.3587C218.224 58.173 217.238 57.6798 216.031 58.0048C214.894 58.3123 214.239 59.1653 213.85 59.6759H213.862Z" fill="#C36252"/>
<path d="M219.64 65.3391C219.669 65.5016 219.118 65.5828 218.596 66.0645C217.586 66.9987 217.725 68.4783 217.517 68.4725C217.36 68.4725 217.192 67.6485 217.36 66.842C217.441 66.4706 217.598 65.7163 218.224 65.3507C218.822 65.0026 219.605 65.1477 219.64 65.3391Z" fill="#C36252"/>
</g>
<g style="mix-blend-mode:multiply">
<path d="M223 358.549C346.16 358.549 446 349.696 446 338.775C446 327.853 346.16 319 223 319C99.8405 319 0 327.853 0 338.775C0 349.696 99.8405 358.549 223 358.549Z" fill="#F1F2F2"/>
</g>
<defs>
<clipPath id="clip0_95_76">
<rect width="217.696" height="360" fill="white" transform="translate(135 25)"/>
</clipPath>
</defs>
</svg>
