<svg width="218" height="360" viewBox="0 0 218 360" fill="none" xmlns="http://www.w3.org/2000/svg">
<g clip-path="url(#clip0_76_1514)">
<path d="M74.9052 3.49311C69.2664 4.17781 57.7626 17.1987 53.0578 27.8405C50.018 34.7223 51.1376 35.7667 48.4749 38.7202C41.322 46.6639 30.9842 41.6679 18.4246 49.2402C11.8344 53.2149 8.28408 58.4488 7.05422 60.3114C1.27622 69.0326 -3.53299 84.7052 3.49808 94.8074C11.759 106.674 34.3083 110.962 44.9303 107.805C71.3665 99.9542 82.8587 64.2281 84.9529 41.9C86.525 25.0843 82.2902 2.60532 74.8994 3.49891L74.9052 3.49311Z" fill="#0E1647"/>
<path d="M83.5665 0.324945C65.4435 3.46411 57.6525 17.6745 55.9295 31.9835C55.5989 34.7165 54.4038 44.6562 60.4545 53.3716C65.896 61.205 75.7291 65.9398 84.0016 64.0888C102.513 59.9458 126.391 23.5118 113.182 9.27243C106.162 1.70014 91.2009 -0.99803 83.5665 0.324945Z" fill="#0E1647"/>
<path d="M109.306 293.613C109.318 295.389 108.349 295.697 107.955 299.021C107.496 302.88 108.57 304.4 107.502 305.671C106.197 307.226 103.169 306.652 100.97 306.234C98.0753 305.683 93.2139 304.766 90.3829 300.263C89.8492 299.416 87.3836 295.493 88.921 290.799C89.9826 287.556 92.6917 284.736 96.1319 283.923C102.792 282.357 109.283 289.041 109.312 293.613H109.306Z" fill="#EB8E6C"/>
<path d="M187.6 303.924C188.319 305.41 187.658 305.944 187.936 308.828C188.725 316.98 194.747 320.067 193.511 322.69C192.096 325.701 182.953 324.146 178.474 322.858C175.249 321.93 168.943 320.125 167.324 315.419C167.145 314.891 167.029 313.313 166.82 310.18C166.495 305.41 166.338 303.019 166.651 302.404C169.134 297.542 184.664 297.878 187.605 303.924H187.6Z" fill="#EB8E6C"/>
<path d="M188.406 305.694C188.406 295.192 187.658 276.653 187.391 253.721C187.06 225.318 184.862 204.255 182.576 200.228C180.685 196.897 177.593 195.411 176.49 194.907C171.049 192.383 163.356 192.922 159.76 197.187C157.822 199.485 157.631 202.2 157.48 204.794C156.343 224.36 155.78 234.277 156.215 240.793C156.726 248.47 156.998 252.386 157.99 256.257C159.423 261.874 160.885 263.922 162.55 271.216C163.414 274.987 163.78 277.732 164.325 281.863C165.526 290.944 166.129 295.482 165.59 299.358C165.062 303.158 164.209 304.789 165.335 306.205C166.605 307.801 169.013 307.394 175.98 306.965C186.306 306.332 188.4 307.383 188.4 305.7L188.406 305.694Z" fill="#334D7C"/>
<path d="M142.025 184.01C125.585 181.567 117.335 180.348 115.92 180.458C102.589 181.538 89.6925 188.541 90.3191 191.866C91.0616 195.777 109.399 188.681 133.405 197.442C145.048 201.696 151.696 207.365 163.31 206.059C166.46 205.705 184.188 204.249 182.57 200.228C180.383 194.791 170.822 188.286 142.019 184.004L142.025 184.01Z" fill="#334D7C"/>
<path d="M191.092 309.611C192.705 310.458 192.537 312.901 193.006 315.808C193.256 317.369 195.014 321.019 198.529 328.318C202.416 336.395 203.193 337.382 204.162 338.345C205.728 339.912 206.396 340.028 209.459 342.964C212.51 345.894 212.22 346.138 214.303 347.809C215.26 348.575 216.008 349.074 216.67 350.176C217.586 351.702 217.656 353.246 217.685 354.006C217.731 355.352 217.778 356.716 216.896 357.836C216.107 358.839 214.987 359.135 213.403 359.524C211.182 360.075 209.372 360 208.786 359.977C203.895 359.75 201.447 359.634 198.419 358.625C196.69 358.05 193.128 356.82 189.746 353.78C187.269 351.551 187.42 350.629 182.988 344.989C180.754 342.151 179.64 340.73 178.033 339.128C175.574 336.68 172.749 334.753 167.104 330.9C164.673 329.241 162.324 327.703 160.009 324.813C158.06 322.382 157.828 321.106 157.868 320.195C157.944 318.645 158.808 318.286 160.235 315.239C161.262 313.046 160.96 312.93 162.04 310.504C163.287 307.702 164.372 305.276 165.642 305.323C166.814 305.363 167.731 307.481 168.456 309.152C169.181 310.829 168.926 311.056 169.581 312.535C170.028 313.545 170.927 315.5 172.963 316.928C173.654 317.409 175.522 318.727 177.697 318.39C178.741 318.228 178.648 317.874 180.174 317.375C182.901 316.481 184.107 317.317 184.908 316.359C185.517 315.634 184.89 315.065 185.471 313.092C185.726 312.228 186.033 311.178 186.933 310.388C188.029 309.425 189.885 308.967 191.098 309.599L191.092 309.611Z" fill="#0F2251"/>
<path d="M157.857 320.206C157.932 318.657 158.797 318.297 160.224 315.251C160.496 314.671 160.676 314.235 160.81 313.864C161.047 314.682 161.367 315.529 161.802 316.377C162.475 317.705 163.269 318.75 164.731 320.322C169.216 325.144 171.762 326.084 175.997 330.013C178.898 332.699 177.755 332.31 182.419 337.109C185.413 340.19 187.779 342.604 191.318 345.221C194.19 347.345 196.621 349.138 200.444 350.519C204.603 352.016 208.003 352.149 209.905 352.207C211.976 352.271 213.137 352.097 214.076 351.871C215.19 351.598 216.165 351.203 216.983 350.774C217.598 352.091 217.656 353.344 217.679 354.012C217.725 355.358 217.772 356.722 216.89 357.841C216.101 358.845 214.981 359.141 213.398 359.53C211.176 360.081 209.366 360.006 208.78 359.983C203.889 359.756 201.441 359.64 198.413 358.631C196.684 358.056 193.122 356.826 189.74 353.786C187.263 351.557 187.414 350.635 182.982 344.995C180.748 342.157 179.635 340.736 178.028 339.134C175.568 336.685 172.743 334.759 167.098 330.906C164.667 329.247 162.318 327.709 160.003 324.819C158.054 322.388 157.822 321.112 157.863 320.201L157.857 320.206Z" fill="#566B7C"/>
<path d="M160.757 199.63C161.401 200.564 163.194 203.361 164.215 210.295C165.659 220.101 163.832 226.322 163.061 233.064C162.277 239.923 163.594 247.53 166.228 262.756C168.502 275.893 170.208 279.432 172.279 293.596C173.091 299.132 173.59 303.791 173.897 307.093C168.514 307.452 166.472 307.621 165.34 306.199C164.209 304.783 165.068 303.153 165.596 299.352C166.135 295.482 165.532 290.938 164.331 281.857C163.786 277.726 163.42 274.982 162.556 271.21C160.885 263.916 159.429 261.868 157.996 256.251C157.004 252.375 156.731 248.458 156.221 240.787C155.797 234.422 156.325 224.807 157.41 206.123C149.12 205.34 142.936 200.912 133.411 197.437C109.405 188.675 91.0616 195.771 90.3249 191.86C90.087 190.59 91.8216 188.779 94.8034 186.969C118.159 187.752 135.07 188.988 143.18 190.398C150.872 191.739 157.132 194.373 160.757 199.624V199.63Z" fill="#2B4770"/>
<path d="M52.5531 191.617C51.1957 193.682 51.0216 195.922 50.778 198.968C50.4879 202.653 49.9484 209.506 54.3283 214.687C57.7336 218.714 62.4674 219.794 66.7487 220.774C71.4129 221.842 86.9891 222.364 113.889 222.039C124.564 221.912 122.191 221.738 126.814 221.784C142.779 221.952 146.829 223.786 152.665 220.769C153.291 220.444 161.616 215.999 161.79 208.856C161.912 203.86 157.979 200.146 156.47 198.713C151.47 193.984 145.32 192.998 143.035 192.626C120.474 188.994 108.436 187.16 71.3085 186.29C65.8901 186.162 56.2833 185.93 52.5531 191.611V191.617Z" fill="#3D5586"/>
<path d="M154.446 198.968C159.058 200.019 162.005 207.846 162.051 213.927C162.057 214.734 162.022 216.892 160.786 221.024C159.423 225.579 157.642 229.043 150.141 240.544C143.516 250.704 141.782 252.798 140.256 254.487C136.955 258.148 137.164 257.15 132.146 262.344C125.144 269.597 121.094 275.318 119.725 277.303C117.712 280.221 116.703 281.683 115.67 283.639C113.214 288.296 111.018 292.437 109.08 296.062C107.862 298.337 104.294 296.555 102.49 296.062C98.8526 295.07 94.5539 292.163 93.8752 288.205C93.3531 285.182 92.9702 283.842 107.815 251.951C113.976 238.716 117.161 232.171 118.461 230.151C133.161 207.336 124.03 225.051 141.016 208.601C148.702 201.156 151.226 198.232 154.451 198.968H154.446Z" fill="#3D5586"/>
<path d="M109.753 303.304C110.409 305.108 108.825 306.257 106.261 311.189C103.082 317.311 104.486 317.52 101.191 323.81C99.7982 326.467 98.6612 328.121 98.1507 331.132C97.8432 332.949 97.8838 334.533 97.9244 336.204C97.9998 339.053 98.3769 340.712 98.2609 344.206C98.2203 345.511 98.1391 346.173 97.9244 346.91C97.6866 347.745 97.089 349.706 95.2211 350.965C95.0354 351.093 94.1826 351.65 93.0804 351.865C92.4249 351.993 89.9768 352.335 86.0958 349.161C79.7202 343.944 77.2663 335.612 76.8602 334.173C76.4715 332.798 74.9168 326.978 75.7348 319.748C76.0364 317.067 76.3497 317.021 76.9762 312.535C77.4171 309.361 77.9508 305.555 77.9915 300.704C78.0205 297.13 78.473 293.573 78.5542 289.998C78.5716 289.198 78.5948 287.759 79.5694 286.616C80.7006 285.287 82.6266 284.939 83.9609 284.701C85.4576 284.434 85.6026 284.689 87.1168 284.364C88.5613 284.051 88.9383 283.714 90.3828 283.238C91.3517 282.919 94.7686 281.799 95.3371 282.676C95.7838 283.36 94.0376 284.556 92.5235 287.973C91.5431 290.19 91.3342 291.803 91.282 292.256C91.137 293.561 90.8063 296.52 92.4075 297.78C93.1152 298.331 93.8752 298.302 95.0006 298.342C95.0006 298.342 97.4429 298.429 102.212 299.358C104.097 299.723 108.79 300.64 109.759 303.304H109.753Z" fill="#0F2251"/>
<path d="M75.7348 319.754C76.0365 317.073 76.3498 317.027 76.9763 312.541C77.4172 309.367 77.9509 305.561 77.9915 300.71C78.0205 297.136 78.473 293.579 78.5542 290.004C78.5716 289.204 78.5948 287.764 79.5694 286.621C80.7007 285.293 82.6267 284.944 83.961 284.707C85.1154 284.498 85.4693 284.602 86.264 284.509C85.9334 285.002 85.6433 285.554 85.4229 286.169C85.0516 287.196 85.0052 288.031 84.9704 288.763C84.6455 295.482 84.5759 299.294 84.1814 302.845C84.1814 302.863 84.1814 302.845 83.6187 306.675C82.4236 314.804 82.296 315.68 82.1568 317.044C81.7391 321.03 81.5303 323.021 81.7043 324.93C81.8029 325.962 82.325 330.819 85.5331 335.972C86.6991 337.846 88.2655 339.436 91.3923 342.621C93.649 344.919 94.6816 345.697 96.1261 346.004C96.8223 346.149 97.4894 346.161 98.1159 346.086C98.0695 346.37 98.0057 346.631 97.9303 346.904C97.6924 347.739 97.0949 349.701 95.2269 350.96C95.0413 351.087 94.1885 351.644 93.0863 351.859C92.4307 351.987 89.9826 352.329 86.1016 349.155C79.7261 343.939 77.2722 335.606 76.8661 334.167C76.4774 332.792 74.9227 326.972 75.7406 319.742L75.7348 319.754Z" fill="#566B7C"/>
<path d="M50.778 198.968C51.0158 195.922 51.1957 193.682 52.5531 191.617C55.7148 186.801 63.0939 186.232 68.5703 186.249C68.6863 189.742 69.2548 193.491 70.5543 197.332C71.6043 200.436 73.0488 204.533 76.895 207.707C81.8203 211.775 87.8419 211.972 91.0152 212.03C123.867 212.657 134.356 211.554 136.259 215.488C137.756 218.581 132.807 222.434 124.732 233.934C120.584 239.841 116.877 246.804 109.457 260.742C103.981 271.024 99.1311 281.295 94.931 290.869C94.4089 290.051 94.0318 289.157 93.8694 288.205C93.3473 285.182 92.9644 283.842 107.81 251.951C113.971 238.716 117.155 232.17 118.455 230.151C120.897 226.356 122.684 223.687 124.036 221.796C122.458 221.836 121.414 221.952 113.889 222.039C86.9833 222.358 71.4129 221.836 66.7487 220.774C62.4674 219.8 57.7336 218.714 54.3283 214.687C49.9484 209.506 50.4879 202.653 50.778 198.968Z" fill="#334D7C"/>
<path d="M122.034 156.877C125.474 159.065 124.477 160.741 130.313 168.204C134.252 173.24 136.288 175.84 140.111 178.004C143.36 179.843 145.593 180.058 145.686 181.387C145.825 183.302 141.387 185.675 137.239 185.948C134.669 186.116 132.436 185.466 130.481 184.596C126.165 182.675 123.293 179.721 115.102 168.029C108.738 158.943 108.21 157.492 108.848 156.366C110.31 153.802 117.289 153.865 122.028 156.871L122.034 156.877Z" fill="#EB8E6C"/>
<path d="M115.444 123.414C117.283 123.942 115.694 128.16 118.484 140.653C118.484 140.653 121.414 153.761 126.6 160.614C126.617 160.637 126.762 160.829 126.931 161.101C127.134 161.438 128.12 163.045 127.777 163.973C127.453 164.85 126.165 164.507 124.395 165.325C122.028 166.422 120.81 168.674 120.34 169.55C118.983 172.068 119.47 173.64 118.652 173.942C117.051 174.534 113.634 169.039 112.909 167.855C106.783 157.881 103.72 152.891 103.279 147.744C102.177 134.903 112.114 122.445 115.444 123.408V123.414Z" fill="#566B7C"/>
<path d="M129.414 190.218H179.78C180.876 190.218 181.885 189.626 182.419 188.669L209.151 144.57C209.725 143.543 207.66 141.094 206.483 141.094H152.618C151.505 141.094 150.484 141.703 149.956 142.684L124.918 188.466C123.833 190.485 127.116 190.212 129.408 190.212L129.414 190.218Z" fill="#929292"/>
<path d="M91.079 72.7172C95.2559 73.8893 93.3299 73.4077 97.1645 74.4928C100.976 75.5721 106 76.7732 108.645 79.0013C113.599 83.1734 112.108 90.3163 112.184 92.3471C112.294 95.4805 116.424 99.0374 117.944 103.389C118.762 105.716 120.213 109.993 119.975 115.302C119.87 117.559 119.644 121.574 117.184 125.445C116.013 127.296 115.467 127.319 114.394 128.996C111.946 132.831 112.062 136.98 112.114 139.388C112.561 160.892 110.182 160.573 112.369 169.555C114.058 176.472 116.308 180.11 114.145 183.244C112.631 185.437 109.956 185.924 106.29 186.539C89.5765 189.342 87.256 189.423 82.7194 190.34C74.708 191.965 69.893 194.158 62.9489 195.156C57.8961 195.882 58.9229 194.936 53.5683 195.661C52.0078 195.87 50.8418 196.102 50.018 195.406C48.3357 193.984 49.6177 189.934 50.018 188.559C51.8454 182.257 49.9542 180.65 50.5227 167.264C51.0042 156.001 53.0172 141.448 56.3529 109.969C57.5074 99.0723 58.4994 88.4304 52.2979 83.3532C49.4147 80.9916 45.2378 80.0458 44.9477 77.2664C44.5765 73.7443 50.5923 70.5529 51.7932 69.9146C58.714 66.2242 64.463 67.1178 68.3846 67.112C71.8828 67.112 80.1553 69.6361 91.079 72.6998V72.7172Z" fill="#566B7C"/>
<path d="M50.5286 167.275C51.0101 156.012 53.0231 141.46 56.3588 109.981C56.7475 106.291 57.1188 102.629 57.2 99.2C57.8555 100.355 58.4646 101.556 59.0216 102.809C61.4639 108.316 61.8351 119.236 62.4791 140.856C63.1056 161.972 62.6241 170.519 66.801 182.797C68.1817 186.859 69.7538 190.387 71.2563 193.323C68.5936 194.065 56.8171 197.326 50.0181 195.417C47.8948 194.82 49.6178 189.946 50.0181 188.57C51.8455 182.269 49.9543 180.662 50.5228 167.275H50.5286Z" fill="#566B7C"/>
<path d="M93.1964 86.5098C88.4452 86.5098 82.644 85.6394 76.0712 81.6647C68.5355 77.1039 64.5674 70.7095 62.7227 67.0539C64.8865 66.9785 66.7835 67.1294 68.3846 67.1236C71.8828 67.1236 80.1553 69.6477 91.079 72.7114C95.2559 73.8835 93.3299 73.4019 97.1645 74.487C97.9012 74.6959 103.697 86.5156 93.1964 86.504V86.5098Z" fill="white"/>
<path d="M56.469 146.734C57.7627 143.16 56.8403 143.015 57.8207 133.887C59.0911 122.056 60.8489 120.309 61.5393 109.72C61.986 102.856 61.5567 98.875 61.371 97.3837C60.8199 92.939 60.1528 87.9604 56.8113 83.0167C56.5676 82.6569 49.0434 70.7618 45.5801 74.928C43.95 76.8892 43.074 79.3031 41.9428 83.0167C39.3438 91.5812 38.4852 98.6197 38.3924 99.4088C37.5454 106.685 37.0175 112.227 36.8725 113.776C35.3352 130.116 35.225 132.733 35.1843 135.239C35.1379 137.827 35.0915 144.158 36.536 152.142C37.557 157.788 40.4112 161.925 42.2212 162.732C46.3981 164.6 53.1623 155.891 56.4748 146.734H56.469Z" fill="#566B7C"/>
<path d="M61.2027 152.485C63.7205 153.111 63.7379 154.689 68.9764 159.923C75.6826 166.619 76.3033 164.676 82.1567 170.739C84.8891 173.571 86.8035 176.118 90.435 176.826C90.7831 176.896 91.5779 177.029 94.8266 176.826C98.5451 176.594 101.312 176.182 104.799 175.642C113.042 174.372 114.22 174.128 116.291 174.795C116.686 174.923 118.13 175.666 121.025 177.163C124.03 178.712 125.248 179.437 125.927 180.882C126.391 181.874 126.606 183.215 126.095 183.586C125.44 184.068 123.815 182.762 123.56 183.081C123.305 183.4 125.004 184.752 124.575 185.449C123.902 186.545 121.959 186.128 121.959 186.128C121.959 186.128 121.21 187.439 120.352 187.816C119.279 188.286 118.142 187.625 115.96 186.464C114.295 185.582 109.939 183.261 109.707 183.592C109.486 183.905 113.234 186.336 112.747 187.48C112.503 188.054 111.244 188.141 110.38 187.984C108.587 187.665 108.326 186.296 106.493 185.449C104.955 184.741 103.482 184.932 102.101 185.112C99.8852 185.402 99.1949 186.151 97.031 186.969C95.7257 187.462 92.1464 188.826 88.074 187.984C85.1908 187.387 82.9399 185.866 82.3307 185.449C81.536 184.903 81.0023 184.433 80.8108 184.265C76.982 180.969 69.3186 178.178 69.3186 178.178C62.0845 175.55 46.8563 170.008 46.34 163.306C45.9165 157.863 55.1289 150.976 61.2085 152.49L61.2027 152.485Z" fill="#EB8E6C"/>
<path d="M123.131 182.658C123.322 182.402 123.264 182.031 123.003 181.845C122.295 181.34 121.559 180.847 120.816 180.389C119.667 179.675 118.733 179.176 117.318 178.428C116.517 177.998 115.694 177.575 114.864 177.157C114.58 177.012 114.232 177.128 114.087 177.418C113.947 177.702 114.063 178.045 114.342 178.19C115.16 178.602 115.978 179.025 116.773 179.449C118.165 180.192 119.087 180.679 120.201 181.375C120.92 181.822 121.634 182.298 122.319 182.791C122.574 182.977 122.933 182.919 123.119 182.669L123.131 182.658Z" fill="#C36252"/>
<path d="M121.356 185.611C121.53 185.344 121.46 184.984 121.193 184.81C120.456 184.323 119.714 183.835 118.966 183.348C117.098 182.135 115.183 180.928 113.275 179.756C113.002 179.588 112.648 179.675 112.48 179.948C112.312 180.22 112.399 180.574 112.671 180.737C114.574 181.909 116.477 183.11 118.339 184.317C119.087 184.799 119.824 185.286 120.561 185.773C120.828 185.948 121.182 185.878 121.356 185.611Z" fill="#C36252"/>
<path d="M109.359 183.081C109.504 182.797 109.393 182.443 109.109 182.298C108.43 181.961 107.74 181.648 107.05 181.358C106.388 181.085 105.704 180.824 105.025 180.592C104.723 180.487 104.393 180.661 104.294 180.963C104.196 181.265 104.364 181.584 104.66 181.683C105.315 181.909 105.971 182.153 106.609 182.42C107.276 182.698 107.943 183 108.593 183.325C108.877 183.464 109.219 183.36 109.364 183.075L109.359 183.081Z" fill="#C36252"/>
<path d="M82.7194 188.472H134.745C135.708 188.472 136.491 189.255 136.491 190.218C136.491 191.181 135.708 191.965 134.745 191.965H82.7194C81.7564 191.965 80.9733 191.181 80.9733 190.218C80.9733 189.255 81.7564 188.472 82.7194 188.472Z" fill="#DEDEDE"/>
<path d="M96.6888 63.7465C96.4394 65.1217 95.6968 64.8432 94.4379 67.3499C94.0899 68.0404 92.4423 73.5818 94.9833 78.3399C95.9347 80.1154 99.7113 85.9702 85.6375 82.216C80.9907 80.9742 76.46 78.6068 72.7646 75.6997C70.2411 73.7153 67.3927 68.7657 68.1875 67.3499C68.7908 66.2764 71.1983 66.3635 73.8378 65.5337C79.8363 63.6363 76.692 43.1186 81.6637 41.2792C86.6875 39.4224 97.6286 58.6461 96.6888 63.7465Z" fill="#EB8E6C"/>
<path d="M81.6579 53.2613C82.0872 52.8204 82.5803 52.4722 83.1662 52.2517C88.1901 50.3949 97.617 58.6461 96.683 63.7465C96.4336 65.1217 95.691 64.8432 94.4322 67.3499C94.3336 67.553 94.1189 68.1622 93.9333 69.0442C92.6976 68.4872 91.6302 67.8605 90.7194 67.228C85.6201 63.6769 82.9922 58.2863 81.6521 53.2613H81.6579Z" fill="#DD7858"/>
<path d="M106.539 13.1427C108.686 14.3206 112.399 16.4212 114.905 20.7498C116.604 23.6859 117.266 24.0921 117.991 29.5697C118.6 34.1711 117.857 37.8847 117.44 38.7493C116.575 40.5422 115.398 40.8846 114.905 43.0605C114.359 45.4918 115.549 45.8167 114.452 48.9791C113.083 52.919 112.613 52.2749 110.594 56.7487C106.174 66.5607 101.457 66.8683 101.034 67.0365C98.4118 68.0926 95.2385 66.6188 92.8542 64.6053C87.4069 60.0097 84.6861 57.7177 83.2242 55.9885C78.2816 50.1396 77.2548 35.6507 82.4004 25.183C83.5665 22.8097 71.0301 19.3224 78.9139 12.8932C89.6288 4.15462 105.733 12.7017 106.539 13.1485V13.1427Z" fill="#EB8E6C"/>
<path d="M53.7424 137.177C55.7264 138.338 58.4182 146.183 61.8467 149.49C63.7147 151.295 65.6291 152.067 65.5653 153.546C65.5189 154.62 64.4689 155.345 63.7089 155.914C63.7089 155.914 60.6691 158.159 56.614 162.505C52.3849 167.037 52.559 171.818 50.3603 171.801C50.0122 171.801 49.67 171.679 48.3299 170.449C46.1602 168.465 36.1705 158.676 36.1705 150.007C36.1705 141.413 49.4205 134.659 53.7424 137.177Z" fill="#566B7C"/>
<path d="M130.539 191.965H180.905C182.001 191.965 183.011 191.373 183.545 190.421L208.948 145.144C209.522 144.117 208.78 142.852 207.608 142.852H153.744C152.63 142.852 151.609 143.462 151.081 144.442L127.87 187.503C126.785 189.522 128.242 191.971 130.533 191.971L130.539 191.965Z" fill="#F4F2F0"/>
<path d="M44.9129 144.297C45.116 144.523 45.4641 144.552 45.7019 144.361C46.9376 143.357 49.1246 142.017 52.0194 141.976C53.1391 141.959 54.2471 142.139 55.3261 142.516C55.6162 142.614 55.9295 142.469 56.0397 142.185C56.1673 141.877 55.9991 141.529 55.6858 141.419C54.4849 141.007 53.2551 140.81 52.002 140.821C48.7708 140.868 46.34 142.353 44.9768 143.462C44.7215 143.67 44.6925 144.048 44.9129 144.291V144.297Z" fill="#566B7C"/>
<path d="M191.84 142.852L199.8 161.461L195.437 169.236L184.16 142.852H191.84Z" fill="#F5F5F5"/>
<path d="M127.876 187.503L151.087 144.442C151.615 143.462 152.642 142.852 153.75 142.852H155.269C153.999 146.647 152.845 151.823 153.065 157.933C153.216 161.96 153.605 172.671 161.134 180.992C167.655 188.199 176.531 190.311 183.342 190.735C182.773 191.506 181.874 191.971 180.905 191.971H130.539C128.247 191.971 126.785 189.522 127.876 187.503Z" fill="#DFDFDF"/>
<path d="M104.393 35.8016C103.476 35.4186 102.531 35.0937 101.579 34.8442C100.059 34.4438 98.493 34.2175 96.915 34.1653C96.5205 34.1537 96.1957 34.467 96.1957 34.8616C96.1957 35.233 96.4915 35.5405 96.857 35.5521C98.3363 35.5985 99.804 35.8132 101.225 36.1846C102.125 36.4225 103.006 36.7242 103.865 37.084C104.207 37.229 104.602 37.0724 104.758 36.7358C104.921 36.3819 104.758 35.9583 104.399 35.8074L104.393 35.8016Z" fill="#161237"/>
<path d="M107.073 40.7047C106.789 40.6583 106.528 40.8149 106.493 41.0528C106.232 42.7704 106.081 44.5227 106.029 46.2693C106.006 47.1049 106.011 47.8128 106.011 48.4394C106.023 50.1802 106.023 51.0506 105.437 51.509C104.718 52.066 103.186 51.921 101.086 51.1028C100.831 51.0042 100.541 51.0912 100.431 51.3059C100.315 51.5322 100.448 51.7991 100.715 51.9035C101.121 52.0602 101.51 52.1995 101.875 52.3097C103.824 52.9074 105.257 52.8668 106.139 52.1763C107.038 51.4742 107.032 50.4123 107.021 48.4859C107.021 47.865 107.015 47.1629 107.038 46.3389C107.085 44.6214 107.241 42.898 107.496 41.2095C107.531 40.9716 107.34 40.7453 107.061 40.6989L107.073 40.7047Z" fill="#C36252"/>
<path d="M100.181 38.6216C99.5024 38.4707 98.7599 39.2134 98.5278 40.2753C98.2958 41.3372 98.6613 42.3178 99.34 42.4686C100.019 42.6195 100.761 41.8768 100.993 40.8149C101.225 39.7531 100.86 38.7724 100.181 38.6216Z" fill="#23173D"/>
<path d="M112.201 41.3024C111.522 41.1515 110.78 41.8942 110.548 42.9561C110.316 44.0179 110.681 44.9986 111.36 45.1494C112.039 45.3003 112.781 44.5576 113.013 43.4957C113.245 42.4339 112.88 41.4532 112.201 41.3024Z" fill="#23173D"/>
<path d="M116.738 38.0588C115.705 37.7744 114.644 37.5598 113.588 37.4205C112.781 37.3102 111.975 37.2464 111.192 37.2232C110.797 37.2116 110.478 37.5307 110.478 37.9253C110.478 38.2967 110.78 38.5984 111.151 38.61C111.888 38.6274 112.642 38.6912 113.402 38.7957C114.406 38.9291 115.403 39.1322 116.384 39.405C116.744 39.5036 117.115 39.2947 117.219 38.9349C117.335 38.5578 117.115 38.1632 116.732 38.0646L116.738 38.0588Z" fill="#161237"/>
<path d="M104.973 56.6268L104.056 56.5978C102.728 56.5572 101.376 56.2961 100.036 55.8319L98.2958 55.2284C97.9013 55.0891 97.6228 55.5011 97.8085 55.9479C98.3596 57.2825 100.349 59.2031 102.159 59.5745C103.958 59.94 105.031 58.6635 105.53 57.5552C105.698 57.178 105.385 56.6384 104.985 56.6268H104.973Z" fill="#FEFDFB"/>
<path d="M107.705 5.83151C107.125 5.55299 106.574 5.23385 106.011 4.97854C102.855 3.55692 99.7112 3.01729 96.8802 2.93605C92.1696 2.80259 88.3582 3.94569 86.9195 4.4331C76.2743 8.01906 71.5753 17.1116 69.7131 20.7208C67.149 25.6819 77.8696 42.3816 77.5506 46.7161C90.3828 25.9082 110.02 39.1612 113.501 20.0593C113.808 18.3766 121.686 28.6006 115.067 42.486C120.352 40.5422 128.305 15.7538 107.705 5.83151Z" fill="#0E1647"/>
<path d="M81.9422 32.8771C84.2395 32.8017 85.6492 35.7493 85.7246 35.906C87.784 40.3507 84.6572 49.0371 81.9422 49.1474C81.1706 49.1764 80.7123 47.807 79.935 46.7973C78.2526 44.633 76.5761 40.7337 77.4985 37.6584C78.067 35.7726 79.7261 32.9467 81.9422 32.8771Z" fill="#EB8E6C"/>
<path d="M81.803 43.5596C81.8726 43.6698 81.9132 43.7336 81.9132 43.7453C81.9132 43.7453 81.8668 43.6698 81.803 43.5596Z" fill="#C36252"/>
<path d="M83.5956 37.7918C84.3265 38.1864 84.7848 38.9698 84.8602 39.8749C84.8892 40.2057 84.5992 40.49 84.2743 40.4668C84.0248 40.4494 83.8508 40.2463 83.8276 39.9968C83.7812 39.434 83.5085 38.9523 83.0734 38.7202C82.4817 38.4011 81.687 38.61 81.2925 38.993C80.8632 39.4049 80.7123 40.2463 80.8864 41.2966C81.014 42.0683 81.3563 42.7704 81.6115 43.223C81.4201 42.9039 81.2809 42.6602 81.6231 43.2404C81.6811 43.339 81.7276 43.4261 81.774 43.4957C81.8204 43.5711 81.8668 43.6466 81.919 43.7452C82.5861 44.8825 81.7682 44.7897 81.6928 44.7723C81.0024 44.6156 80.5151 43.6234 80.2715 43.0025C79.6913 41.5113 79.4303 39.3759 80.6021 38.2444C81.2751 37.6004 82.5513 37.2232 83.5956 37.786V37.7918Z" fill="#C36252"/>
<path d="M81.7681 43.5015C81.7101 43.4029 81.6579 43.3159 81.6173 43.2462C81.6173 43.2404 81.6115 43.2346 81.6057 43.2288C81.6753 43.3449 81.7449 43.4667 81.803 43.5654C81.7913 43.548 81.7797 43.5248 81.7681 43.5073V43.5015Z" fill="#C36252"/>
<path d="M78.8617 34.6759C78.1656 35.5811 77.3128 37.1594 77.191 39.5152C77.0227 42.7994 78.3396 45.8747 79.6971 46.6813C79.6971 46.6987 79.6971 46.7103 79.7029 46.7277C79.7899 47.3718 80.0278 49.0835 81.6811 49.4607C82.9516 49.7508 83.5085 48.9385 83.8101 48.2132C83.932 47.9288 83.7869 47.6097 83.5027 47.5227C83.2474 47.4472 82.9632 47.5923 82.8587 47.8476C82.6035 48.4743 82.3947 48.5381 81.9538 48.4395C81.0778 48.2422 80.8457 47.4066 80.7297 46.5362C80.6833 46.2171 80.6485 45.9386 80.3468 45.8225C79.3838 45.4396 78.0669 42.6253 78.2236 39.521C78.3106 37.8557 78.7921 36.4341 79.6623 35.2968C80.0046 34.85 80.4803 34.2291 81.2576 34.0202C82.0872 33.7997 82.8065 34.1537 83.1082 34.3045C84.1872 34.8442 84.6919 35.8654 84.9182 36.5559C84.9994 36.8054 85.2604 36.9389 85.5215 36.8692C85.8174 36.788 85.9972 36.4689 85.8986 36.1787C85.6143 35.3258 84.9762 34.0492 83.5955 33.3587C83.2242 33.173 82.238 32.6798 81.0314 33.0048C79.8943 33.3123 79.2388 34.1653 78.8501 34.6759H78.8617Z" fill="#C36252"/>
<path d="M84.6398 40.3391C84.6688 40.5016 84.1177 40.5828 83.5956 41.0645C82.5861 41.9987 82.7254 43.4783 82.5165 43.4725C82.3599 43.4725 82.1917 42.6485 82.3599 41.842C82.4411 41.4706 82.5977 40.7163 83.2243 40.3507C83.8218 40.0026 84.605 40.1477 84.6398 40.3391Z" fill="#C36252"/>
</g>
<defs>
<clipPath id="clip0_76_1514">
<rect width="217.696" height="360" fill="white"/>
</clipPath>
</defs>
</svg>
