<svg width="446" height="385" viewBox="0 0 446 385" fill="none" xmlns="http://www.w3.org/2000/svg">
<g style="mix-blend-mode:multiply">
<path d="M223 347.549C346.16 347.549 446 338.696 446 327.775C446 316.853 346.16 308 223 308C99.8405 308 0 316.853 0 327.775C0 338.696 99.8405 347.549 223 347.549Z" fill="#F1F2F2"/>
</g>
<path d="M355.519 269.541C355.519 269.541 344.124 302.544 353.749 321.442C353.749 321.442 248.002 324.153 228.537 321.711C209.067 319.27 206.2 287.559 206.2 287.559L215.581 273.062L231.999 266.508L355.519 269.538V269.541Z" fill="#FFAB3B"/>
<path d="M127.061 320.82L228.537 321.715C228.537 321.715 197.848 291.23 231.999 266.512L132.646 265.16C132.646 265.16 104.051 285.26 127.061 320.816V320.82Z" fill="#567A6C"/>
<path d="M172.491 321.505C160.606 305.147 161.302 290.746 163.979 281.545C166.88 271.579 172.678 265.392 172.738 265.328L173.311 265.871C173.255 265.931 167.568 272.002 164.727 281.796C162.111 290.818 161.444 304.952 173.131 321.037L172.491 321.502V321.505Z" fill="#B62A2A"/>
<path d="M183.665 321.809C166.46 295.746 182.415 266.115 182.579 265.819L183.272 266.201C183.111 266.493 167.385 295.716 184.324 321.374L183.665 321.809Z" fill="#B62A2A"/>
<path d="M226.631 270.92L357.795 272.272L358.825 269.062L231.999 266.512L221.398 270.74L226.631 270.92Z" fill="#567A6C"/>
<path d="M224.056 317.94L358.218 317.779L358.084 321.726C358.084 321.726 240.924 325.236 228.537 321.715C216.15 318.198 224.056 317.94 224.056 317.94Z" fill="#567A6C"/>
<path d="M346.135 238.056C346.135 238.056 335.2 256.991 345.232 268.01C345.232 268.01 238.584 268.437 218.897 266.815C199.215 265.193 195.782 246.853 195.782 246.853L205.002 238.58L221.454 234.974L346.138 238.056H346.135Z" fill="#E6E7E8"/>
<path d="M116.494 265.205L218.897 266.815C218.897 266.815 187.416 248.879 221.454 234.974L121.184 233.124C121.184 233.124 92.671 244.423 116.498 265.205H116.494Z" fill="#B62A2A"/>
<path d="M148.167 266.231C140.568 260.302 136.903 254.194 137.273 248.07C137.824 238.932 147.107 233.24 147.5 233L148.182 234.127C148.092 234.183 139.089 239.715 138.587 248.157C138.25 253.816 141.747 259.549 148.979 265.193L148.17 266.231H148.167Z" fill="#567A6C"/>
<path d="M154.553 266.362C149.084 261.68 146.153 256.377 145.846 250.602C145.333 241 152.187 233.61 152.479 233.3L153.437 234.202C153.37 234.273 146.673 241.505 147.163 250.542C147.455 255.943 150.229 260.928 155.414 265.362L154.556 266.362H154.553Z" fill="#567A6C"/>
<path d="M216.112 237.464L348.478 239.655L349.466 237.816L221.454 234.974L210.831 237.303L216.112 237.464Z" fill="#B62A2A"/>
<path d="M214.316 264.587L349.68 265.939L349.612 268.216C349.612 268.216 231.456 268.98 218.901 266.815C206.342 264.65 214.319 264.587 214.319 264.587H214.316Z" fill="#B62A2A"/>
<path d="M220.708 277.266L220.675 278.568L352.355 281.903L352.388 280.6L220.708 277.266Z" fill="#F1F2F2"/>
<path d="M217.028 284.941L217.026 286.245L352.195 286.504L352.197 285.201L217.028 284.941Z" fill="#F1F2F2"/>
<path d="M215.87 294.755L215.861 296.058L350.122 296.949L350.131 295.646L215.87 294.755Z" fill="#F1F2F2"/>
<path d="M349.884 302.126L218.408 305.364L218.44 306.667L349.916 303.429L349.884 302.126Z" fill="#F1F2F2"/>
<path d="M350.444 309.915L220.979 310.796L220.988 312.1L350.453 311.218L350.444 309.915Z" fill="#F1F2F2"/>
<path d="M351.227 313.52L223.601 314.991L223.616 316.294L351.242 314.823L351.227 313.52Z" fill="#F1F2F2"/>
<path d="M243.05 284.485L263.575 284.492C263.575 284.492 278.765 301.873 272.836 331.688L260.404 320.232C260.404 320.232 254.085 333.067 250.334 337.407C250.334 337.407 254.886 296.533 243.046 284.485H243.05Z" fill="#B62A2A"/>
<circle cx="99.4208" cy="63.651" r="0.920776" transform="rotate(-90 99.4208 63.651)" fill="#FBA600" stroke="#FB5151"/>
<circle cx="99.4208" cy="26.4266" r="0.920776" transform="rotate(-90 99.4208 26.4266)" fill="#FBA600" stroke="#FB5151"/>
<circle cx="111.924" cy="63.651" r="0.920776" transform="rotate(-90 111.924 63.651)" fill="#FBA600" stroke="#FB5151"/>
<circle cx="111.924" cy="26.4266" r="0.920776" transform="rotate(-90 111.924 26.4266)" fill="#FBA600" stroke="#FB5151"/>
<circle cx="124.426" cy="63.651" r="0.920776" transform="rotate(-90 124.426 63.651)" fill="#FBA600" stroke="#FB5151"/>
<circle cx="124.426" cy="26.4266" r="0.920776" transform="rotate(-90 124.426 26.4266)" fill="#FBA600" stroke="#FB5151"/>
<circle cx="136.929" cy="63.651" r="0.920776" transform="rotate(-90 136.929 63.651)" fill="#FBA600" stroke="#FB5151"/>
<circle cx="136.929" cy="26.4266" r="0.920776" transform="rotate(-90 136.929 26.4266)" fill="#FBA600" stroke="#FB5151"/>
<circle cx="149.432" cy="63.6506" r="0.920776" transform="rotate(-90 149.432 63.6506)" fill="#FBA600" stroke="#FB5151"/>
<circle cx="161.772" cy="63.6506" r="0.920776" transform="rotate(-90 161.772 63.6506)" fill="#FBA600" stroke="#FB5151"/>
<circle cx="149.432" cy="26.4264" r="0.920776" transform="rotate(-90 149.432 26.4264)" fill="#FBA600" stroke="#FB5151"/>
<circle cx="161.772" cy="26.4264" r="0.920776" transform="rotate(-90 161.772 26.4264)" fill="#FBA600" stroke="#FB5151"/>
<circle cx="99.4208" cy="51.1482" r="0.920776" transform="rotate(-90 99.4208 51.1482)" fill="#FBA600" stroke="#FB5151"/>
<circle cx="99.4208" cy="13.9237" r="0.920776" transform="rotate(-90 99.4208 13.9237)" fill="#FBA600" stroke="#FB5151"/>
<circle cx="111.924" cy="51.1482" r="0.920776" transform="rotate(-90 111.924 51.1482)" fill="#FBA600" stroke="#FB5151"/>
<circle cx="111.924" cy="13.9237" r="0.920776" transform="rotate(-90 111.924 13.9237)" fill="#FBA600" stroke="#FB5151"/>
<circle cx="124.426" cy="51.1482" r="0.920776" transform="rotate(-90 124.426 51.1482)" fill="#FBA600" stroke="#FB5151"/>
<circle cx="124.426" cy="13.9237" r="0.920776" transform="rotate(-90 124.426 13.9237)" fill="#FBA600" stroke="#FB5151"/>
<circle cx="136.929" cy="51.1482" r="0.920776" transform="rotate(-90 136.929 51.1482)" fill="#FBA600" stroke="#FB5151"/>
<circle cx="136.929" cy="13.9237" r="0.920776" transform="rotate(-90 136.929 13.9237)" fill="#FBA600" stroke="#FB5151"/>
<circle cx="149.432" cy="51.1482" r="0.920776" transform="rotate(-90 149.432 51.1482)" fill="#FBA600" stroke="#FB5151"/>
<circle cx="161.772" cy="51.1482" r="0.920776" transform="rotate(-90 161.772 51.1482)" fill="#FBA600" stroke="#FB5151"/>
<circle cx="149.432" cy="13.9236" r="0.920776" transform="rotate(-90 149.432 13.9236)" fill="#FBA600" stroke="#FB5151"/>
<circle cx="161.772" cy="13.9236" r="0.920776" transform="rotate(-90 161.772 13.9236)" fill="#FBA600" stroke="#FB5151"/>
<circle cx="99.4208" cy="38.6452" r="0.920776" transform="rotate(-90 99.4208 38.6452)" fill="#FBA600" stroke="#FB5151"/>
<circle cx="99.4208" cy="1.42078" r="0.920776" transform="rotate(-90 99.4208 1.42078)" fill="#FBA600" stroke="#FB5151"/>
<circle cx="111.924" cy="38.6452" r="0.920776" transform="rotate(-90 111.924 38.6452)" fill="#FBA600" stroke="#FB5151"/>
<circle cx="111.924" cy="1.42078" r="0.920776" transform="rotate(-90 111.924 1.42078)" fill="#FBA600" stroke="#FB5151"/>
<circle cx="124.426" cy="38.6452" r="0.920776" transform="rotate(-90 124.426 38.6452)" fill="#FBA600" stroke="#FB5151"/>
<circle cx="124.426" cy="1.42078" r="0.920776" transform="rotate(-90 124.426 1.42078)" fill="#FBA600" stroke="#FB5151"/>
<circle cx="136.929" cy="38.6452" r="0.920776" transform="rotate(-90 136.929 38.6452)" fill="#FBA600" stroke="#FB5151"/>
<circle cx="136.929" cy="1.42078" r="0.920776" transform="rotate(-90 136.929 1.42078)" fill="#FBA600" stroke="#FB5151"/>
<circle cx="149.432" cy="38.6454" r="0.920776" transform="rotate(-90 149.432 38.6454)" fill="#FBA600" stroke="#FB5151"/>
<circle cx="161.772" cy="38.6454" r="0.920776" transform="rotate(-90 161.772 38.6454)" fill="#FBA600" stroke="#FB5151"/>
<circle cx="149.432" cy="1.42103" r="0.920776" transform="rotate(-90 149.432 1.42103)" fill="#FBA600" stroke="#FB5151"/>
<circle cx="161.772" cy="1.42103" r="0.920776" transform="rotate(-90 161.772 1.42103)" fill="#FBA600" stroke="#FB5151"/>
<g clip-path="url(#clip0_95_75)">
<path d="M204.597 181.492C198.775 181.987 198.107 184.628 184.409 192.683C173.579 199.053 142.425 214.246 138.929 223.166C135.459 232.025 136.42 235.425 140.781 232.025C151.049 224.016 150.589 247.451 161.292 245.23C164.272 244.612 166.113 243.231 168.131 241.81C175.117 236.892 165.946 244.359 194.83 226.884C219.52 211.944 231.872 204.39 231.948 200.146C232.115 190.917 217.026 180.434 204.597 181.492Z" fill="#E26F50"/>
<path d="M178.865 342.86C177.692 340.139 177.095 338.747 176.245 337.675C172.254 332.63 160.549 331.76 155.642 336.425C153.897 338.084 154.676 338.864 151.332 344.297C150.457 345.719 148.813 348.37 146.274 351.274C142.936 355.094 142.227 354.573 137.472 359.501C133.603 363.513 134.043 363.882 131.853 365.405C130.133 366.599 128.18 367.884 127.887 368.476C121.205 382.025 147.2 377.851 163.144 369.594C175.739 363.073 182.265 354.512 182.128 353.708C181.754 351.497 181.794 351.724 181.111 349.311C180.707 347.884 180.059 345.653 178.865 342.871V342.86Z" fill="#0F2251"/>
<path d="M182.133 353.698C180.302 355.468 178.663 356.855 177.368 357.887C175.501 359.374 175.673 359.076 169.877 363.255C165.015 366.756 164.413 367.317 162.572 368.264C159.557 369.807 155.708 372.483 153.589 372.994C148.985 374.102 128.585 377.826 127.892 368.471C127.639 368.78 127.396 369.129 127.174 369.518C126.293 371.061 126.243 372.362 126.238 372.736C126.238 373.065 126.238 374.542 126.986 375.777C127.973 377.406 129.956 378.134 132.793 378.64C135.297 379.086 139.096 379.465 145.53 378.64C148.965 378.2 152.698 377.699 157.145 375.959C159.097 375.195 160.685 374.573 162.577 373.277C164.413 372.018 165 371.173 167.261 369.7C168.359 368.987 168.647 368.906 171.197 367.555C176.948 364.504 178.557 363.275 179.437 362.546C181.819 360.583 182.401 359.43 182.619 358.433C182.76 357.775 182.74 357.219 182.431 355.393C182.33 354.785 182.234 354.239 182.138 353.708L182.133 353.698Z" fill="white"/>
<path d="M165.587 347.409C163.852 346.422 162.011 345.587 160.114 344.93C157.939 344.176 155.673 343.645 153.376 343.356C153.108 343.321 152.86 343.508 152.83 343.766C152.799 344.019 152.987 344.247 153.25 344.282C155.475 344.565 157.671 345.076 159.78 345.81C161.621 346.448 163.402 347.257 165.086 348.213C165.314 348.345 165.612 348.279 165.749 348.061C165.891 347.839 165.82 347.545 165.587 347.414V347.409Z" fill="white"/>
<path d="M160.417 349.261C160.392 349.24 159.785 348.709 159.117 348.218C157.104 346.731 154.696 345.714 152.89 345.087C152.632 344.995 152.354 345.127 152.263 345.375C152.177 345.618 152.304 345.876 152.557 345.962C154.297 346.564 156.608 347.54 158.52 348.957C159.153 349.422 159.75 349.949 159.755 349.954C160.675 350.758 161.515 351.649 162.259 352.6C162.415 352.802 162.714 352.853 162.931 352.706C163.154 352.554 163.21 352.261 163.048 352.048C162.269 351.041 161.383 350.111 160.417 349.261Z" fill="white"/>
<path d="M157.913 350.338C156.689 350.035 155.435 349.832 154.18 349.731C152.562 349.6 150.923 349.64 149.309 349.847C149.041 349.883 148.854 350.126 148.894 350.384C148.935 350.637 149.178 350.804 149.446 350.773C150.988 350.576 152.552 350.541 154.099 350.662C155.298 350.758 156.497 350.955 157.666 351.244C157.924 351.31 158.187 351.168 158.257 350.92C158.333 350.667 158.176 350.404 157.913 350.338Z" fill="white"/>
<path d="M157.706 353.485C155.961 351.37 153.857 349.559 151.444 348.082C151.216 347.94 150.908 348.011 150.766 348.234C150.624 348.451 150.695 348.734 150.923 348.871C153.245 350.288 155.268 352.033 156.942 354.062C157.746 355.033 158.47 356.076 159.102 357.163C159.234 357.386 159.522 357.472 159.755 357.351C159.997 357.229 160.089 356.941 159.957 356.713C159.299 355.58 158.546 354.492 157.711 353.48L157.706 353.485Z" fill="white"/>
<path d="M154.671 353.849C153.943 353.495 153.184 353.202 152.41 352.969C150.579 352.423 148.667 352.22 146.709 352.367C146.436 352.387 146.239 352.625 146.269 352.883C146.299 353.136 146.532 353.318 146.8 353.298C148.626 353.161 150.412 353.349 152.116 353.86C152.84 354.077 153.548 354.35 154.226 354.684C154.464 354.801 154.752 354.72 154.878 354.497C155.015 354.264 154.914 353.971 154.666 353.849H154.671Z" fill="white"/>
<path d="M153.953 356.151C152.324 354.32 150.341 352.848 148.055 351.765C147.812 351.649 147.513 351.755 147.397 351.988C147.286 352.22 147.387 352.488 147.63 352.6C149.795 353.627 151.671 355.023 153.209 356.753C154.13 357.791 154.919 358.939 155.551 360.169C155.667 360.396 155.951 360.497 156.194 360.391C156.441 360.28 156.553 359.997 156.431 359.764C155.759 358.464 154.929 357.249 153.953 356.151Z" fill="white"/>
<path d="M150.427 358.883C149.117 356.971 147.443 355.332 145.455 354.006C145.232 353.86 144.918 353.92 144.772 354.138C144.625 354.35 144.686 354.634 144.903 354.78C146.785 356.035 148.368 357.583 149.608 359.394C150.366 360.508 150.989 361.702 151.459 362.961C151.55 363.199 151.818 363.331 152.071 363.255C152.329 363.174 152.476 362.906 152.385 362.658C151.889 361.327 151.231 360.057 150.427 358.883Z" fill="white"/>
<path d="M150.756 356.981C149.173 356.698 147.569 356.425 145.981 356.172C144.949 356.01 143.912 355.853 142.895 355.701C142.627 355.661 142.379 355.838 142.339 356.096C142.298 356.349 142.48 356.587 142.748 356.627C143.76 356.774 144.792 356.931 145.819 357.092C147.402 357.345 149.001 357.614 150.574 357.897C150.837 357.942 151.09 357.781 151.14 357.528C151.191 357.275 151.019 357.027 150.751 356.981H150.756Z" fill="white"/>
<path d="M146.274 361.879C146.092 361.671 145.996 361.56 145.844 361.403C145.045 360.594 144.301 360.174 143.699 359.835C143.578 359.764 143.456 359.698 143.35 359.632C142.693 359.243 142.081 358.732 141.519 358.109C141.352 357.922 141.059 357.902 140.856 358.054C140.634 358.221 140.609 358.529 140.796 358.732C141.418 359.415 142.101 359.986 142.839 360.422C142.956 360.492 143.077 360.558 143.209 360.634C143.78 360.958 144.433 361.322 145.136 362.035C145.272 362.177 145.363 362.278 145.53 362.471C146.082 363.103 146.613 363.791 147.104 364.53C147.25 364.742 147.544 364.813 147.771 364.682C148.004 364.545 148.075 364.251 147.928 364.034C147.412 363.26 146.856 362.536 146.279 361.874L146.274 361.879Z" fill="white"/>
<path d="M148.571 359.986C145.981 359.253 143.36 359.05 140.771 359.394C139.83 359.521 138.889 359.718 137.968 359.986C137.705 360.062 137.569 360.336 137.655 360.578C137.741 360.821 138.009 360.948 138.262 360.872C139.127 360.619 140.012 360.432 140.902 360.315C143.345 359.991 145.829 360.184 148.282 360.877C148.535 360.948 148.808 360.821 148.889 360.578C148.975 360.33 148.829 360.062 148.571 359.986Z" fill="white"/>
<path d="M179.953 276.289C179.659 266.661 178.127 255.014 175.082 246.464C171.46 236.3 168.45 237.15 166.133 235.804C160.326 232.434 144.605 223.186 138.616 227.082C133.011 230.724 141.474 257.944 143.674 262.937C147.144 270.81 148.166 276.8 149.759 286.18C152.228 300.706 153.194 328.897 151.378 334.27C150.604 336.556 149.638 338.17 150.619 339.961C152.39 343.194 158.738 343.736 165.622 344.323C171.424 344.818 179.275 342.344 179.407 339.673C179.7 333.819 178.653 326.483 178.299 320.619C178.147 318.069 178.198 317.108 178.779 304.52C179.594 286.823 180.003 277.939 179.953 276.279V276.289Z" fill="#E26F50"/>
<path d="M228.842 192.931C227.249 196.897 224.856 201.117 221.234 204.987C217.81 208.64 214.304 208.063 197.996 214.929C172.229 225.781 164.378 229.303 161.657 235.764C159.32 241.314 163.892 243.039 168.005 258.617C171.576 272.14 171.515 283.691 171.424 302.451C171.384 310.313 171.065 314.568 170.939 318.307C170.706 325.132 171.004 333.592 172.613 343.751C176.291 342.906 179.331 341.327 179.412 339.678C179.705 333.824 178.658 326.488 178.304 320.624C178.152 318.075 178.203 317.113 178.784 304.526C179.599 286.828 180.008 277.944 179.958 276.284C179.664 266.656 178.132 255.009 175.087 246.459C174.378 244.476 173.701 242.918 173.038 241.678C176.887 240.509 180.064 238.121 188.85 235.303C196.322 232.9 209.615 229.616 222.711 227.532C225.949 227.016 229.874 226.464 233.132 223.49C238.347 218.729 238.094 211.205 238.013 209.809C237.669 203.723 234.072 197.636 228.847 192.931H228.842Z" fill="#E26F50"/>
<path d="M220.658 348.745C219.484 346.023 218.887 344.631 218.037 343.559C214.046 338.514 202.341 337.644 197.435 342.309C195.69 343.968 196.469 344.748 193.125 350.181C192.25 351.603 190.606 354.254 188.067 357.158C184.728 360.978 184.02 360.457 179.265 365.385C175.395 369.397 175.835 369.766 173.645 371.289C171.925 372.483 169.973 373.768 169.679 374.36C162.997 387.909 188.992 383.735 204.936 375.478C217.527 368.957 224.057 360.396 223.92 359.592C223.546 357.381 223.587 357.609 222.904 355.195C222.499 353.768 221.852 351.537 220.658 348.755V348.745Z" fill="#0F2251"/>
<path d="M223.925 359.577C222.094 361.347 220.455 362.734 219.16 363.766C217.294 365.253 217.466 364.955 211.669 369.134C206.808 372.635 206.206 373.196 204.365 374.143C201.35 375.686 197.5 378.362 195.381 378.873C190.778 379.981 170.377 383.705 169.684 374.35C169.431 374.659 169.189 375.008 168.966 375.397C168.086 376.94 168.035 378.241 168.03 378.615C168.03 378.944 168.03 380.421 168.779 381.656C169.765 383.285 171.748 384.013 174.586 384.519C177.09 384.965 180.889 385.344 187.323 384.519C190.758 384.079 194.491 383.578 198.937 381.838C200.89 381.074 202.478 380.452 204.37 379.156C206.206 377.897 206.793 377.052 209.054 375.579C210.151 374.866 210.44 374.785 212.989 373.434C218.741 370.383 220.349 369.154 221.229 368.425C223.612 366.462 224.194 365.309 224.411 364.312C224.553 363.654 224.532 363.098 224.224 361.272C224.123 360.664 224.027 360.118 223.931 359.587L223.925 359.577Z" fill="white"/>
<path d="M207.38 353.288C205.644 352.301 203.803 351.466 201.906 350.809C199.731 350.055 197.465 349.524 195.169 349.235C194.9 349.2 194.653 349.387 194.622 349.645C194.592 349.898 194.779 350.126 195.042 350.161C197.268 350.444 199.463 350.955 201.572 351.689C203.414 352.327 205.194 353.136 206.879 354.092C207.106 354.224 207.405 354.158 207.541 353.94C207.683 353.718 207.612 353.424 207.38 353.293V353.288Z" fill="white"/>
<path d="M202.215 355.14C202.19 355.119 201.583 354.588 200.915 354.097C198.902 352.61 196.494 351.588 194.688 350.966C194.43 350.875 194.152 351.006 194.061 351.254C193.975 351.497 194.101 351.755 194.354 351.841C196.094 352.443 198.406 353.419 200.318 354.836C200.95 355.301 201.547 355.828 201.552 355.833C202.473 356.637 203.313 357.528 204.056 358.479C204.213 358.681 204.511 358.732 204.729 358.585C204.952 358.433 205.007 358.14 204.845 357.927C204.066 356.92 203.181 355.99 202.215 355.14Z" fill="white"/>
<path d="M199.711 356.217C198.487 355.914 197.232 355.711 195.978 355.61C194.359 355.479 192.72 355.519 191.107 355.726C190.839 355.762 190.651 356.005 190.692 356.263C190.732 356.516 190.975 356.683 191.243 356.652C192.786 356.455 194.349 356.42 195.897 356.541C197.096 356.637 198.295 356.834 199.463 357.123C199.721 357.189 199.984 357.047 200.055 356.799C200.131 356.546 199.974 356.283 199.711 356.217Z" fill="white"/>
<path d="M199.504 359.364C197.758 357.249 195.654 355.438 193.241 353.961C193.014 353.819 192.705 353.89 192.564 354.113C192.422 354.33 192.498 354.613 192.72 354.75C195.042 356.167 197.065 357.912 198.74 359.941C199.544 360.912 200.267 361.955 200.9 363.042C201.031 363.265 201.32 363.351 201.552 363.23C201.795 363.108 201.886 362.82 201.755 362.592C201.097 361.459 200.343 360.371 199.509 359.359L199.504 359.364Z" fill="white"/>
<path d="M196.469 359.733C195.74 359.379 194.981 359.086 194.207 358.853C192.376 358.302 190.464 358.104 188.507 358.251C188.233 358.271 188.036 358.509 188.067 358.767C188.097 359.02 188.33 359.202 188.598 359.182C190.424 359.045 192.209 359.233 193.914 359.744C194.637 359.961 195.346 360.234 196.023 360.568C196.261 360.685 196.549 360.604 196.676 360.381C196.813 360.148 196.711 359.855 196.463 359.733H196.469Z" fill="white"/>
<path d="M195.745 362.035C194.116 360.204 192.134 358.732 189.847 357.649C189.604 357.533 189.306 357.639 189.19 357.872C189.078 358.104 189.179 358.373 189.422 358.484C191.587 359.511 193.464 360.907 195.002 362.638C195.922 363.675 196.711 364.823 197.344 366.053C197.46 366.28 197.743 366.381 197.986 366.275C198.234 366.164 198.345 365.881 198.224 365.648C197.551 364.348 196.722 363.133 195.745 362.035Z" fill="white"/>
<path d="M192.225 364.762C190.915 362.85 189.24 361.211 187.252 359.885C187.03 359.739 186.716 359.799 186.569 360.017C186.423 360.229 186.483 360.513 186.701 360.659C188.583 361.914 190.166 363.462 191.405 365.273C192.164 366.387 192.786 367.586 193.257 368.84C193.348 369.078 193.616 369.21 193.869 369.134C194.127 369.053 194.273 368.785 194.182 368.537C193.687 367.206 193.029 365.936 192.225 364.762Z" fill="white"/>
<path d="M192.548 362.865C190.965 362.582 189.362 362.309 187.773 362.056C186.741 361.894 185.704 361.737 184.688 361.585C184.42 361.545 184.172 361.722 184.131 361.98C184.091 362.233 184.273 362.471 184.541 362.511C185.553 362.658 186.585 362.815 187.611 362.977C189.195 363.229 190.793 363.498 192.366 363.781C192.629 363.826 192.882 363.665 192.933 363.412C192.983 363.159 192.811 362.911 192.543 362.865H192.548Z" fill="white"/>
<path d="M188.067 367.763C187.884 367.555 187.788 367.444 187.637 367.287C186.837 366.478 186.094 366.058 185.492 365.719C185.37 365.648 185.254 365.582 185.143 365.516C184.485 365.127 183.873 364.616 183.312 363.993C183.145 363.806 182.851 363.786 182.649 363.938C182.426 364.105 182.401 364.413 182.588 364.616C183.211 365.299 183.893 365.87 184.632 366.306C184.748 366.376 184.87 366.442 185.001 366.518C185.573 366.842 186.225 367.206 186.928 367.925C187.065 368.066 187.156 368.167 187.323 368.36C187.874 368.992 188.406 369.68 188.896 370.419C189.038 370.631 189.336 370.702 189.564 370.571C189.797 370.434 189.867 370.141 189.721 369.923C189.205 369.154 188.648 368.425 188.072 367.763H188.067Z" fill="white"/>
<path d="M190.368 365.865C187.778 365.132 185.158 364.929 182.568 365.273C181.627 365.4 180.686 365.597 179.766 365.865C179.503 365.941 179.366 366.215 179.452 366.457C179.538 366.7 179.806 366.827 180.059 366.751C180.924 366.498 181.809 366.311 182.7 366.194C185.143 365.87 187.627 366.063 190.08 366.756C190.333 366.827 190.606 366.7 190.687 366.457C190.773 366.209 190.626 365.941 190.368 365.865Z" fill="white"/>
<path d="M251.155 190.194C244.705 189.804 245.019 192.283 221.528 203.561C216.1 206.166 177.596 220.97 178.531 238.141C178.648 240.261 187.54 240.631 190.924 242.735C193.671 244.445 199.969 248.255 208.831 248.331C216.97 248.402 217.997 245.245 230.643 241.182C238.114 238.779 251.408 235.495 264.504 233.411C267.741 232.895 271.666 232.343 274.924 229.368C280.139 224.608 279.886 217.084 279.805 215.688C279.112 203.363 265.091 191.034 251.155 190.194Z" fill="#E26F50"/>
<path d="M221.75 282.168C221.457 272.54 219.924 260.893 216.879 252.343C213.257 242.179 210.248 243.029 207.931 241.683C202.124 238.313 186.402 229.065 180.413 232.961C174.809 236.603 183.271 263.823 185.472 268.816C188.942 276.689 189.963 282.679 191.557 292.059C194.025 306.585 194.991 334.776 193.176 340.149C192.402 342.435 191.435 344.049 192.417 345.84C194.187 349.073 200.535 349.615 207.42 350.202C213.222 350.697 221.073 348.223 221.204 345.552C221.497 339.698 220.45 332.362 220.096 326.498C219.939 323.948 219.995 322.987 220.577 310.399C221.391 292.702 221.801 283.818 221.75 282.158V282.168Z" fill="#E26F50"/>
<path d="M270.64 198.81C269.046 202.776 266.654 206.996 263.027 210.866C259.602 214.519 255.404 217.525 239.095 224.39C213.328 235.242 206.165 235.182 203.444 241.643C201.107 247.193 205.68 248.918 209.792 264.496C213.363 278.019 213.303 289.57 213.212 308.33C213.171 316.192 212.853 320.447 212.721 324.186C212.488 331.011 212.787 339.471 214.395 349.63C218.073 348.785 221.108 347.206 221.194 345.557C221.487 339.703 220.44 332.367 220.086 326.503C219.929 323.954 219.985 322.992 220.567 310.405C221.381 292.707 221.791 283.823 221.74 282.163C221.447 272.535 219.914 260.888 216.869 252.338C216.161 250.355 215.483 248.797 214.82 247.557C218.67 246.388 221.846 244 230.633 241.182C238.104 238.779 251.397 235.495 264.494 233.411C267.731 232.895 271.656 232.343 274.914 229.369C280.129 224.608 279.876 217.084 279.795 215.688C279.451 209.602 275.86 203.515 270.629 198.81H270.64Z" fill="#E26F50"/>
<path d="M186.852 102.52C185.406 102.55 186.488 101.321 185.406 102.55C182.431 105.93 178.713 113.397 178.39 136.564C178.339 140.177 179.149 142.914 179.857 151.798C180.15 155.486 180.241 157.272 179.533 159.569C178.982 161.355 178.157 162.782 177.58 165.787C177.226 167.629 176.867 169.617 177.742 170.138C178.501 170.589 179.477 169.531 181.485 168.894C184.399 167.973 187.11 168.701 188.972 169.202C193.671 170.467 194.622 172.891 196.296 172.466C199.549 171.646 199.407 161.649 199.387 160.809C199.003 142.362 194.738 102.338 186.852 102.515V102.52Z" fill="#FCBA15"/>
<path d="M134.888 216.745L215.448 222.634V205.397L131.144 206.328L134.888 216.745Z" fill="#969696"/>
<path d="M283.387 115.472C283.898 107.164 288.121 102.732 284.439 97.6527C281.389 93.4433 272.891 90.3469 263.634 86.6586C256.79 83.9316 252.369 83.3195 250.826 83.1373C249.485 82.9754 246.106 82.6364 240.188 83.1373C238.261 83.2992 232.332 83.8659 221.958 86.6586C219.262 87.3821 209.615 90.0484 196.995 95.5733C190.596 98.3762 187.368 99.808 186.144 101.376C181.931 106.76 184.789 113.367 189.184 130.812C193.752 148.94 197.905 176.574 200.47 189.055C201.031 191.793 201.765 195.106 204.592 196.933C208.406 199.397 213.313 197.398 218.918 196.103C229.055 193.766 238.964 194.322 245.181 195.688C260.487 199.053 269.547 210.851 270.144 211.651C275.774 219.204 278.151 228.094 279.831 226.54C282.183 224.365 284.813 200.383 284.904 199.215C285.188 195.582 285.658 187.35 284.687 176.619C283.837 167.255 282.749 165.499 281.212 151.54C280.321 143.455 279.886 139.327 280.124 135.163C280.665 125.833 282.815 124.675 283.382 115.472H283.387Z" fill="#FFC71F"/>
<path d="M283.387 115.472C283.893 107.22 288.061 102.793 284.51 97.7589C278.667 98.6139 272.253 100.764 267.235 105.596C261.241 111.369 262.025 115.952 259.39 124.488C251.878 148.808 258.424 177.13 254.443 198.972C264.104 203.758 269.684 211.028 270.149 211.651C275.779 219.204 278.156 228.094 279.836 226.54C282.188 224.365 284.818 200.383 284.909 199.215C285.193 195.582 285.663 187.35 284.692 176.619C283.842 167.255 282.754 165.499 281.217 151.54C280.326 143.455 279.891 139.327 280.129 135.163C280.67 125.833 282.82 124.675 283.387 115.472Z" fill="#F7B000"/>
<path d="M189.068 131.045C188.952 130.751 188.603 130.609 188.299 130.726C187.996 130.842 187.849 131.166 187.965 131.454C189.984 136.402 191.693 141.512 193.044 146.653C195.26 155.072 196.57 163.758 196.939 172.476C196.954 172.784 197.222 173.027 197.546 173.017C197.875 173.007 198.128 172.744 198.118 172.43C197.743 163.637 196.418 154.874 194.187 146.38C192.826 141.194 191.102 136.043 189.068 131.05V131.045Z" fill="#F7B000"/>
<path d="M237.153 70.0791C235.332 65.4396 236.318 63.4209 234.548 62.4091C228.862 59.166 209.19 74.5313 211.542 84.1745C212.266 87.1545 213.5 87.2202 213.879 92.1127C213.97 93.3168 213.879 95.8515 215.129 101.574C215.518 103.35 212.402 102.889 211.542 104.488C210.45 106.517 209.241 110.21 210.455 112.573C212.529 116.595 221.239 115.947 221.958 115.892C237.624 114.576 252.89 94.1769 248.438 83.9721C246.299 79.0645 240.39 78.336 237.153 70.0841V70.0791Z" fill="#EB8E6C"/>
<path d="M253.562 84.9688C250.831 83.1373 245.009 79.869 242.657 77.7946C240.871 82.7781 238.241 88.9202 232.601 90.8073C229.363 91.89 225.367 93.1852 223.93 92.9778C223.182 92.8716 222.964 96.7369 221.315 104.382C219.98 110.574 220.041 114.01 219.145 114.126C218.432 114.217 217.147 111.531 214.643 99.211C214.416 99.9193 212.069 99.3678 211.669 100.096C210.784 101.705 208.062 104.655 207.207 106.254C206.115 108.282 208.118 113.6 209.332 115.963C211.406 119.985 221.376 119.853 222.094 119.793C237.76 118.477 263.042 91.3234 253.568 84.9688H253.562Z" fill="#FFC71F"/>
<path d="M221.427 125.14C221.002 121.998 220.551 118.831 220.091 115.715C220.046 115.406 219.747 115.194 219.423 115.234C219.1 115.28 218.877 115.563 218.923 115.871C219.383 118.983 219.828 122.145 220.253 125.287C221.705 136.003 223.344 148.145 224.295 162.413C224.871 171.09 225.144 179.964 225.104 188.802C225.104 189.111 225.362 189.364 225.691 189.369C226.02 189.369 226.283 189.121 226.288 188.807C226.328 179.943 226.055 171.044 225.473 162.342C224.522 148.039 222.878 135.876 221.427 125.145V125.14Z" fill="#F7B000"/>
<path d="M221.214 114.349C221.153 114.364 221.103 114.374 221.057 114.384L221.29 115.492C221.346 115.482 221.411 115.467 221.482 115.452C221.528 115.441 221.593 115.426 221.669 115.411C221.968 115.35 222.266 115.517 222.352 115.796C223.743 120.202 225.762 133.787 227.234 148.762C228.903 165.777 229.399 179.301 228.574 185.246C228.534 185.549 228.751 185.827 229.065 185.873C229.393 185.924 229.697 185.706 229.743 185.392C231.65 171.621 226.288 123.101 223.298 114.941C222.944 113.969 221.73 114.237 221.209 114.354L221.214 114.349Z" fill="#F7B000"/>
<path d="M240.193 83.1373C231.255 90.4633 223.47 93.3421 223.409 93.4888C229.141 96.9039 231.584 111.809 231.584 111.809C231.584 111.809 237.315 110.721 244.118 100.152C246.627 96.2512 249.652 90.691 251.878 83.279C251.448 83.2132 251.094 83.1677 250.831 83.1373C249.49 82.9754 244.705 79.444 240.193 83.1373Z" fill="#F7B000"/>
<path d="M202.281 96.575C203.616 101.381 209.767 113.676 209.767 113.676C209.767 113.676 211.714 101.422 216.55 89.4261C212.848 90.5189 208.993 90.605 201.512 93.6659C201.739 94.5715 201.992 95.548 202.276 96.5801L202.281 96.575Z" fill="#F7B000"/>
<path d="M209.494 87.5592C207.673 87.5592 204.122 91.1716 203.636 92.8109C203.216 94.2325 208.573 106.527 209.949 106.249C210.991 106.036 210.414 101.827 212.736 97.6476C213.879 95.5935 213.879 93.0031 213.879 92.1127C213.879 91.2222 210.364 87.5592 209.494 87.5592Z" fill="#FFDF5A"/>
<path d="M275.354 95.1584C271.515 96.0792 268.874 97.9967 267.321 99.5095C263.138 103.587 261.828 108.444 261.246 110.908C257.488 126.749 259.951 167.229 261.226 167.386C266.492 168.029 271.125 183.637 279.133 181.082C280.438 180.667 284.763 175.921 288.597 165.008C292.497 153.903 293.564 144.467 294.025 138.477C295.38 120.749 292.967 112.426 291.637 108.632C290.023 104.027 284.201 93.0335 275.359 95.1584H275.354Z" fill="#FFC71F"/>
<path d="M211.543 84.1745C212.266 87.1545 213.5 87.2202 213.879 92.1126C213.93 92.7451 214.112 95.2697 214.279 96.9039C233.552 95.639 233.739 66.9018 233.552 62.0498C226.875 60.7546 209.317 75.0322 211.543 84.1694V84.1745Z" fill="#C36252"/>
<path d="M143.603 212.48L213.869 219.852L246.921 197.763L140.781 183.875L143.603 212.48Z" fill="#BFBFBF"/>
<path d="M215.448 222.634L246.921 201.562V197.763L213.869 219.25L215.448 222.634Z" fill="#D0D0D0"/>
<path d="M233.465 39.4041C231.907 35.6045 230.491 32.1489 226.955 29.4573C219.165 23.5277 208.275 26.7354 206.767 27.1755C204.41 27.8687 197.075 30.029 193.742 36.2976C191.931 39.7026 191.774 43.4263 191.572 48.3187C191.435 51.5921 191.693 54.2483 191.789 55.159C192.204 59.0243 192.634 58.3514 193.089 62.4141C193.352 64.7667 193.292 65.728 194.177 66.7652C195.093 67.8428 196.099 67.9086 197 69.2544C197.693 70.2916 197.768 71.268 197.87 71.951C198.224 74.3644 199.337 76.12 201.557 79.621C203.621 82.8692 204.648 84.4882 206.55 85.839C207.131 86.2539 208.143 86.8863 209.155 88.1208C210.227 89.4261 210.232 90.099 210.89 90.8174C212.524 92.6034 215.928 92.1885 216.965 92.0621C222.251 91.4195 225.868 86.7345 228.25 83.5623C233.774 76.2161 235.089 68.794 235.63 65.5307C236.43 60.6939 236.237 56.955 236.065 53.717C235.818 49.0219 235.585 44.6 233.46 39.4142L233.465 39.4041Z" fill="#EB8E6C"/>
<path d="M230.537 31.5266C214.492 16.7785 189.928 29.3157 190.054 46.4518C190.065 47.8178 189.351 53.2111 191.537 54.5012C194.88 56.4845 200.146 53.5298 203.08 52.2549C204.653 51.5719 208.437 49.5228 211.33 46.4518C211.714 46.047 212.316 45.3691 213.283 45.2072C215.286 44.8732 217.213 46.9982 217.84 47.6964C219.939 50.0136 220.531 52.3814 221.098 54.1218C223.349 61.0683 227.957 63.9825 228.043 60.3398C228.114 57.5318 228.711 56.0443 229.56 54.9515C230.178 54.1572 230.618 53.5905 231.295 53.4995C233.845 53.1656 234.912 61.4731 236.222 61.1695C237.254 60.9317 237.684 54.9212 236.936 49.7707C235.636 40.8004 235.034 35.6652 230.532 31.5317L230.537 31.5266Z" fill="#0E1647"/>
<path d="M241.296 75.437C240.284 75.1435 240.375 82.0394 234.224 86.8711C230.173 90.0585 226.53 92.1531 223.925 92.9829C222.636 93.3927 225.989 94.617 227.497 96.7167C232.11 103.152 233.142 107.599 233.142 107.599C233.142 107.599 236.404 107.25 245.838 93.4028C248.064 90.1344 249.683 85.4798 250.416 83.1323C250.705 82.2013 250.426 81.1996 249.688 80.5317C248.039 79.0392 244.832 76.464 241.301 75.437H241.296Z" fill="#FFDF5A"/>
<path d="M264.18 163.303C262.915 163.571 261.327 164.624 258.156 166.723C255.12 168.737 251.741 170.973 248.388 174.651C246.916 176.265 246.253 177.277 244.483 178.38C242.844 179.402 242.247 179.265 238.949 180.399C236.733 181.163 233.339 182.326 229.672 184.284C228.625 184.841 227.795 185.337 226.414 185.686C225.822 185.833 223.981 186.242 221.533 185.843C218.943 185.418 218.7 184.583 214.532 182.888C211.563 181.679 210.045 181.087 208.507 181.487C207.956 181.633 206.884 182.311 204.764 183.662C202.822 184.902 201.846 185.524 201.674 185.681C198.876 188.226 198.047 193.083 199.721 194.54C200.191 194.955 200.809 195.046 201.674 195.941C202.286 196.574 202.341 196.902 202.812 197.494C202.994 197.722 204.532 199.665 206.069 199.513C207.673 199.356 208.735 196.963 209.327 195.628C209.914 194.302 209.742 194.019 210.303 193.295C211.558 191.686 213.981 191.089 214.375 191.585C214.603 191.873 214.041 192.708 212.908 194.383C211.957 195.794 211.659 195.992 211.279 196.872C210.885 197.798 210.455 198.79 210.956 199.67C211.396 200.449 212.498 201.026 213.237 200.758C214.031 200.469 213.733 199.442 214.866 198.425C215.018 198.289 215.736 197.672 216.818 197.494C218.002 197.302 218.968 197.742 219.747 198.117C221.29 198.85 221.118 199.341 222.19 199.827C224.694 200.96 227.901 199.296 228.377 199.048C229.48 198.476 229.368 198.248 230.491 197.646C232.666 196.488 234.776 196.437 235.539 196.402C240.502 196.184 249.738 194.13 252.794 193.447C257.731 192.349 261.403 190.487 268.748 186.763C277.286 182.433 281.556 180.267 282.097 177.591C283.407 171.105 271.909 161.649 264.19 163.288L264.18 163.303Z" fill="#EB8E6C"/>
<path d="M211.785 187.163C210.662 187.234 209.555 187.406 208.487 187.674C207.051 188.033 206.095 188.463 205.639 188.954C204.709 189.961 204.739 191.271 204.754 191.904L204.764 192.258C204.8 193.71 204.835 194.975 203.656 198.076C203.565 198.314 203.692 198.582 203.945 198.673C204.198 198.764 204.486 198.638 204.577 198.395C205.816 195.132 205.781 193.725 205.746 192.243L205.735 191.889C205.72 191.337 205.695 190.315 206.373 189.582C206.555 189.384 207.101 188.995 208.735 188.585C209.737 188.332 210.779 188.17 211.841 188.104C212.109 188.089 212.311 187.877 212.301 187.624C212.291 187.36 212.058 187.158 211.785 187.173V187.163Z" fill="#C36252"/>
<path d="M207.207 185.139C207.152 184.871 206.869 184.699 206.595 184.775C205.963 184.947 205.381 185.21 204.86 185.564C204.046 186.121 203.611 186.733 203.11 187.447C203.075 187.502 202.179 188.777 201.648 190.133C200.95 191.924 200.728 194.079 201.072 195.597C201.132 195.865 201.426 196.017 201.699 195.936C201.937 195.86 202.073 195.628 202.023 195.39C201.724 194.054 201.932 192.066 202.564 190.457C203.055 189.207 203.914 187.973 203.925 187.963C204.441 187.229 204.79 186.753 205.432 186.318C205.867 186.025 206.348 185.807 206.874 185.666C207.116 185.6 207.263 185.367 207.213 185.134L207.207 185.139Z" fill="#C36252"/>
<path d="M114.953 162.595L113 164.77L134.923 212.941L213.495 220.975L213.869 219.25L215.296 218.319L199.266 167.341L114.953 162.595Z" fill="#CBCBCB"/>
<path d="M113 164.77L132.971 215.116L213.495 220.975L197.313 169.516L113 164.77Z" fill="#F4F2F0"/>
<path d="M194.445 169.354C194.465 176.498 192.907 185.736 186.493 193.993C177.145 206.035 162.957 208.964 154.15 210.78C145.439 212.576 137.675 212.485 131.676 211.853L132.965 215.111L213.495 220.97L197.313 169.511L194.445 169.349V169.354Z" fill="#F8F9F8"/>
<path d="M122.358 188.357L126.309 198.324L148.646 166.779L138.059 166.182L122.358 188.357Z" fill="#F0F0F0"/>
<path d="M215.078 59.1002C213.475 59.2975 211.902 59.6618 210.389 60.193C209.438 60.527 208.507 60.9267 207.612 61.3871C207.258 61.5692 207.132 61.9942 207.334 62.3281C207.526 62.6418 207.941 62.7581 208.275 62.5861C209.114 62.1561 209.984 61.7817 210.875 61.468C212.286 60.9722 213.763 60.6281 215.265 60.446C215.64 60.4005 215.908 60.0767 215.872 59.7124C215.837 59.3279 215.473 59.0547 215.068 59.1053L215.078 59.1002Z" fill="#49302A"/>
<path d="M199.731 63.6284C198.952 63.7852 198.188 64.0078 197.46 64.2962C196.302 64.7515 195.219 65.3637 194.233 66.1226C193.985 66.3098 193.97 66.7247 194.197 67.0384C194.415 67.3318 194.769 67.4279 195.002 67.2509C195.927 66.5375 196.944 65.9658 198.026 65.5408C198.709 65.2726 199.423 65.0652 200.151 64.9185C200.444 64.8578 200.591 64.534 200.49 64.1899C200.384 63.8257 200.04 63.5727 199.731 63.6334V63.6284Z" fill="#49302A"/>
<path d="M210.834 76.1351C210.718 75.953 210.455 75.8923 210.237 76.0036C208.457 76.9143 207.116 77.1723 206.428 76.722C205.867 76.3578 205.796 75.5634 205.644 73.99C205.594 73.4233 205.533 72.7808 205.432 72.0269C205.23 70.4484 204.936 68.8749 204.552 67.3419C204.496 67.1295 204.253 67.008 204.01 67.0738C203.768 67.1396 203.621 67.3622 203.672 67.5747C204.046 69.0824 204.339 70.6305 204.537 72.1787C204.633 72.9224 204.693 73.5599 204.744 74.1165C204.911 75.8619 204.997 76.8232 205.857 77.3848C206.702 77.9363 207.966 77.8604 209.64 77.1622C209.954 77.0307 210.288 76.8738 210.632 76.7018C210.86 76.5854 210.956 76.3274 210.829 76.1351H210.834Z" fill="#C36252"/>
<path d="M210.996 63.5474C210.313 63.7548 210.04 64.7465 210.379 65.7634C210.718 66.7804 211.547 67.433 212.23 67.2256C212.913 67.0181 213.186 66.0265 212.848 65.0096C212.509 63.9926 211.679 63.34 210.996 63.5474Z" fill="#49302A"/>
<path d="M199.256 67.1396C198.573 67.347 198.3 68.3386 198.639 69.3556C198.977 70.3725 199.807 71.0252 200.49 70.8177C201.173 70.6103 201.446 69.6187 201.107 68.6017C200.768 67.5848 199.939 66.9321 199.256 67.1396Z" fill="#49302A"/>
<path d="M214.891 77.6681L212.797 78.6041C211.183 79.3225 209.479 79.8437 207.728 80.1472L206.514 80.3597C205.988 80.4508 205.771 81.0427 206.135 81.3817C207.213 82.3733 209.114 83.4156 211.371 82.6971C213.642 81.9737 215.569 79.702 215.807 78.2803C215.888 77.8047 215.367 77.4556 214.886 77.6681H214.891Z" fill="white"/>
<path d="M216.803 66.9726C215.099 67.7315 214.117 69.1785 214.618 70.1954C215.114 71.2124 216.904 71.4249 218.609 70.6609C220.314 69.902 221.295 68.455 220.794 67.4381C220.299 66.4211 218.508 66.2086 216.803 66.9726Z" fill="#DD8064"/>
<path d="M230.39 52.9328C228.341 53.0087 227.294 55.8015 227.239 55.9482C225.721 60.1576 229.348 66.5223 231.766 66.4565C233.941 66.3958 236.197 61.1088 234.675 57.0512C234.037 55.3512 232.363 52.862 230.39 52.9328Z" fill="#EB8E6C"/>
<path d="M231.26 62.7379C231.21 62.8395 231.174 62.9055 231.174 62.9156C231.174 62.9156 231.21 62.8395 231.26 62.7379Z" fill="#C36252"/>
<path d="M229.267 57.552C228.645 57.9618 228.291 58.7056 228.291 59.5454C228.291 59.849 228.564 60.0969 228.852 60.0564C229.07 60.0261 229.217 59.8288 229.217 59.596C229.217 59.0749 229.429 58.6196 229.798 58.3767C230.299 58.0428 231.022 58.1895 231.402 58.5133C231.812 58.8675 232.004 59.6314 231.928 60.6079C231.872 61.3263 231.614 61.9891 231.422 62.4192C231.569 62.1105 231.68 61.8778 231.412 62.4394C231.371 62.5305 231.331 62.6165 231.296 62.6823C231.26 62.7531 231.225 62.829 231.184 62.92C230.668 64.0027 231.392 63.8712 231.457 63.851C232.059 63.6638 232.424 62.7227 232.596 62.1358C233.01 60.7344 233.091 58.7511 231.968 57.7898C231.326 57.2384 230.162 56.9702 229.272 57.5571L229.267 57.552Z" fill="#C36252"/>
<path d="M231.291 62.6832C231.336 62.5867 231.372 62.5055 231.407 62.4395C231.407 62.4344 231.412 62.4293 231.417 62.4192C231.367 62.5309 231.311 62.6476 231.265 62.739C231.275 62.7187 231.286 62.7035 231.296 62.6832H231.291Z" fill="#C36252"/>
<path d="M233.253 54.395C232.869 53.9498 232.226 53.206 231.194 52.9986C230.102 52.776 229.257 53.287 228.938 53.4793C227.76 54.1977 227.279 55.4119 227.087 56.2113C227.021 56.4845 227.203 56.7628 227.471 56.8235C227.704 56.8741 227.927 56.7324 227.982 56.4997C228.134 55.8521 228.513 54.8807 229.434 54.3191C229.697 54.1623 230.309 53.7879 231.063 53.9397C231.771 54.0813 232.231 54.6176 232.57 55.0122C233.425 56.0039 233.956 57.2788 234.148 58.8068C234.508 61.6451 233.531 64.3164 232.702 64.7262C232.444 64.8527 232.429 65.1108 232.413 65.4093C232.368 66.2188 232.221 66.9979 231.457 67.2357C231.078 67.3521 230.886 67.3065 230.613 66.75C230.501 66.5173 230.238 66.4009 230.016 66.4869C229.768 66.583 229.667 66.8815 229.793 67.1396C230.112 67.7872 230.663 68.5005 231.776 68.1565C233.223 67.7062 233.309 66.1226 233.344 65.5206C233.344 65.5054 233.344 65.4902 233.344 65.475C234.498 64.6504 235.448 61.7463 235.069 58.7359C234.796 56.5807 233.926 55.1843 233.248 54.395H233.253Z" fill="#C36252"/>
<path d="M229.773 59.8794C229.217 59.596 228.529 59.7782 228.513 59.9552C228.498 60.107 228.994 60.1475 229.495 60.5573C230.456 61.3516 230.436 62.7177 230.623 62.7025C230.759 62.6924 230.855 61.9284 230.643 61.1948C230.547 60.8558 230.35 60.1728 229.768 59.8794H229.773Z" fill="#C36252"/>
</g>
<defs>
<clipPath id="clip0_95_75">
<rect width="181.424" height="360" fill="white" transform="translate(113 25)"/>
</clipPath>
</defs>
</svg>
