<svg width="182" height="360" viewBox="0 0 182 360" fill="none" xmlns="http://www.w3.org/2000/svg">
<g clip-path="url(#clip0_76_1437)">
<path d="M91.5973 156.492C85.7751 156.987 85.1074 159.628 71.4092 167.683C60.5792 174.053 29.4246 189.246 25.9293 198.166C22.4592 207.025 23.4203 210.425 27.7806 207.025C38.0492 199.016 37.5889 222.451 48.2924 220.23C51.2718 219.612 53.113 218.231 55.1313 216.81C62.117 211.892 52.9461 219.359 81.8295 201.884C106.52 186.944 118.872 179.39 118.948 175.146C119.115 165.917 104.026 155.434 91.5973 156.492Z" fill="#E26F50"/>
<path d="M65.8653 317.86C64.6917 315.139 64.0948 313.747 63.245 312.675C59.254 307.63 47.5488 306.76 42.6422 311.425C40.8971 313.084 41.6761 313.864 38.3325 319.297C37.4574 320.719 35.8134 323.37 33.2741 326.274C29.9355 330.094 29.2274 329.573 24.4725 334.501C20.6028 338.513 21.0429 338.882 18.8526 340.405C17.1328 341.599 15.1802 342.884 14.8868 343.476C8.2047 357.025 34.1998 352.851 50.1438 344.594C62.7392 338.073 69.2645 329.512 69.1279 328.708C68.7536 326.497 68.7941 326.724 68.1112 324.311C67.7065 322.884 67.0591 320.653 65.8653 317.871V317.86Z" fill="#0F2251"/>
<path d="M69.133 328.698C67.3019 330.468 65.6629 331.855 64.368 332.887C62.5014 334.374 62.6734 334.076 56.8765 338.255C52.0154 341.756 51.4135 342.317 49.5722 343.264C46.5574 344.807 42.708 347.483 40.5885 347.994C35.9854 349.102 15.5849 352.826 14.8919 343.471C14.639 343.78 14.3962 344.129 14.1736 344.518C13.2934 346.061 13.2429 347.362 13.2378 347.736C13.2378 348.065 13.2378 349.542 13.9864 350.777C14.9728 352.406 16.9557 353.134 19.7935 353.64C22.2974 354.086 26.0962 354.465 32.5305 353.64C35.9651 353.2 39.6982 352.699 44.1445 350.959C46.0971 350.195 47.6854 349.573 49.5773 348.277C51.4135 347.018 52.0002 346.173 54.2613 344.7C55.359 343.987 55.6473 343.906 58.1968 342.555C63.9481 339.504 65.5567 338.275 66.4369 337.546C68.8194 335.583 69.4011 334.43 69.6186 333.433C69.7602 332.775 69.74 332.219 69.4314 330.393C69.3303 329.785 69.2342 329.239 69.138 328.708L69.133 328.698Z" fill="white"/>
<path d="M52.587 322.409C50.852 321.422 49.0107 320.587 47.1138 319.93C44.9387 319.176 42.6726 318.645 40.3761 318.356C40.108 318.321 39.8601 318.508 39.8298 318.766C39.7994 319.019 39.9866 319.247 40.2496 319.282C42.4753 319.565 44.6706 320.076 46.78 320.81C48.6212 321.448 50.4018 322.257 52.0862 323.213C52.3139 323.345 52.6123 323.279 52.7489 323.061C52.8905 322.839 52.8197 322.545 52.587 322.414V322.409Z" fill="white"/>
<path d="M47.4173 324.261C47.392 324.24 46.785 323.709 46.1173 323.218C44.1041 321.731 41.6963 320.714 39.8904 320.087C39.6325 319.995 39.3542 320.127 39.2632 320.375C39.1772 320.618 39.3037 320.876 39.5566 320.962C41.2967 321.564 43.6083 322.54 45.5204 323.957C46.1527 324.422 46.7496 324.949 46.7547 324.954C47.6753 325.758 48.515 326.649 49.2586 327.6C49.4154 327.802 49.7138 327.853 49.9313 327.706C50.1539 327.554 50.2095 327.261 50.0477 327.048C49.2687 326.041 48.3835 325.111 47.4173 324.261Z" fill="white"/>
<path d="M44.9134 325.338C43.6893 325.035 42.4348 324.832 41.1803 324.731C39.5616 324.6 37.9227 324.64 36.3091 324.847C36.041 324.883 35.8538 325.126 35.8943 325.384C35.9348 325.637 36.1776 325.804 36.4457 325.773C37.9885 325.576 39.5515 325.541 41.0994 325.662C42.2982 325.758 43.4971 325.955 44.6655 326.244C44.9235 326.31 45.1866 326.168 45.2574 325.92C45.3333 325.667 45.1764 325.404 44.9134 325.338Z" fill="white"/>
<path d="M44.706 328.485C42.9609 326.37 40.8566 324.559 38.4437 323.082C38.2161 322.94 37.9075 323.011 37.7659 323.234C37.6243 323.451 37.6951 323.734 37.9227 323.871C40.2445 325.288 42.2679 327.033 43.9422 329.062C44.7465 330.033 45.4698 331.076 46.1021 332.163C46.2336 332.386 46.522 332.472 46.7547 332.351C46.9975 332.229 47.0885 331.941 46.957 331.713C46.2994 330.58 45.5457 329.492 44.7111 328.48L44.706 328.485Z" fill="white"/>
<path d="M41.6709 328.849C40.9425 328.495 40.1838 328.202 39.4098 327.969C37.5787 327.423 35.6666 327.22 33.709 327.367C33.4359 327.387 33.2386 327.625 33.269 327.883C33.2993 328.136 33.532 328.318 33.8001 328.298C35.6262 328.161 37.4118 328.349 39.1165 328.86C39.8398 329.077 40.548 329.35 41.2258 329.684C41.4635 329.801 41.7519 329.72 41.8783 329.497C42.0149 329.264 41.9137 328.971 41.6659 328.849H41.6709Z" fill="white"/>
<path d="M40.9527 331.151C39.3239 329.32 37.341 327.848 35.0546 326.765C34.8118 326.649 34.5134 326.755 34.397 326.988C34.2857 327.22 34.3869 327.488 34.6297 327.6C36.7947 328.627 38.6713 330.023 40.2091 331.753C41.1297 332.791 41.9188 333.939 42.5511 335.169C42.6675 335.396 42.9507 335.497 43.1935 335.391C43.4414 335.28 43.5527 334.997 43.4313 334.764C42.7585 333.464 41.929 332.249 40.9527 331.151Z" fill="white"/>
<path d="M37.427 333.883C36.1169 331.971 34.4426 330.332 32.4546 329.006C32.2321 328.86 31.9184 328.92 31.7717 329.138C31.6251 329.35 31.6858 329.634 31.9033 329.78C33.785 331.035 35.3683 332.583 36.6076 334.394C37.3663 335.508 37.9885 336.702 38.4589 337.961C38.55 338.199 38.8181 338.331 39.071 338.255C39.329 338.174 39.4757 337.906 39.3846 337.658C38.8889 336.327 38.2313 335.057 37.427 333.883Z" fill="white"/>
<path d="M37.7558 331.981C36.1725 331.698 34.569 331.425 32.9807 331.172C31.9488 331.01 30.9118 330.853 29.8951 330.701C29.627 330.661 29.3791 330.838 29.3386 331.096C29.2982 331.349 29.4803 331.587 29.7484 331.627C30.76 331.774 31.792 331.931 32.8188 332.092C34.4021 332.345 36.0005 332.614 37.5737 332.897C37.8367 332.942 38.0896 332.781 38.1402 332.528C38.1908 332.275 38.0188 332.027 37.7507 331.981H37.7558Z" fill="white"/>
<path d="M33.274 336.879C33.0919 336.671 32.9958 336.56 32.844 336.403C32.0448 335.594 31.3012 335.174 30.6993 334.835C30.5779 334.764 30.4565 334.698 30.3503 334.632C29.6927 334.243 29.0806 333.732 28.5191 333.109C28.3522 332.922 28.0588 332.902 27.8565 333.054C27.6339 333.221 27.6086 333.529 27.7958 333.732C28.4179 334.415 29.1008 334.986 29.8394 335.422C29.9557 335.492 30.0771 335.558 30.2086 335.634C30.7802 335.958 31.4327 336.322 32.1359 337.035C32.2724 337.177 32.3635 337.278 32.5304 337.471C33.0818 338.103 33.6129 338.791 34.1036 339.53C34.2503 339.742 34.5437 339.813 34.7713 339.682C35.004 339.545 35.0748 339.251 34.9281 339.034C34.4121 338.26 33.8557 337.536 33.2791 336.874L33.274 336.879Z" fill="white"/>
<path d="M35.5706 334.986C32.9807 334.253 30.3604 334.05 27.7705 334.394C26.8297 334.521 25.8888 334.718 24.9682 334.986C24.7051 335.062 24.5686 335.336 24.6546 335.578C24.7406 335.821 25.0087 335.948 25.2616 335.872C26.1266 335.619 27.0118 335.432 27.902 335.315C30.3453 334.991 32.8289 335.184 35.2822 335.877C35.5352 335.948 35.8083 335.821 35.8892 335.578C35.9752 335.33 35.8285 335.062 35.5706 334.986Z" fill="white"/>
<path d="M66.9529 251.289C66.6595 241.661 65.1268 230.014 62.0816 221.464C58.4598 211.3 55.4501 212.15 53.1334 210.804C47.3263 207.434 31.6049 198.186 25.6157 202.082C20.011 205.724 28.4737 232.944 30.6741 237.937C34.1442 245.81 35.166 251.8 36.7594 261.18C39.2278 275.706 40.194 303.897 38.378 309.27C37.6041 311.556 36.638 313.17 37.6193 314.961C39.3897 318.194 45.738 318.736 52.6225 319.323C58.4244 319.818 66.275 317.344 66.4066 314.673C66.7 308.819 65.6529 301.483 65.2988 295.619C65.147 293.069 65.1976 292.108 65.7793 279.52C66.5937 261.823 67.0035 252.939 66.9529 251.279V251.289Z" fill="#E26F50"/>
<path d="M115.842 167.931C114.249 171.897 111.856 176.117 108.234 179.987C104.81 183.64 101.304 183.063 84.996 189.929C59.2286 200.781 51.378 204.303 48.6566 210.764C46.3196 216.314 50.8924 218.039 55.0049 233.617C58.5761 247.14 58.5154 258.691 58.4243 277.451C58.3839 285.313 58.0652 289.568 57.9387 293.307C57.706 300.132 58.0045 308.592 59.6131 318.751C63.2905 317.906 66.3306 316.327 66.4115 314.678C66.7049 308.824 65.6578 301.488 65.3037 295.624C65.152 293.075 65.2026 292.113 65.7843 279.526C66.5987 261.828 67.0084 252.944 66.9578 251.284C66.6644 241.656 65.1318 230.009 62.0866 221.459C61.3784 219.476 60.7006 217.918 60.038 216.678C63.8874 215.509 67.0641 213.121 75.8505 210.303C83.3217 207.9 96.6152 204.616 109.711 202.532C112.949 202.016 116.874 201.464 120.132 198.49C125.347 193.729 125.094 186.205 125.013 184.809C124.669 178.723 121.072 172.636 115.847 167.931H115.842Z" fill="#E26F50"/>
<path d="M107.658 323.745C106.484 321.023 105.887 319.631 105.037 318.559C101.046 313.514 89.3413 312.644 84.4347 317.309C82.6895 318.968 83.4685 319.748 80.1249 325.181C79.2498 326.603 77.6059 329.254 75.0665 332.158C71.728 335.978 71.0198 335.457 66.265 340.385C62.3953 344.397 62.8354 344.766 60.6451 346.289C58.9252 347.483 56.9727 348.768 56.6793 349.36C49.9972 362.909 75.9922 358.735 91.9363 350.478C104.527 343.957 111.057 335.396 110.92 334.592C110.546 332.381 110.587 332.609 109.904 330.195C109.499 328.768 108.852 326.537 107.658 323.755V323.745Z" fill="#0F2251"/>
<path d="M110.925 334.577C109.094 336.347 107.455 337.734 106.16 338.766C104.294 340.253 104.466 339.955 98.669 344.134C93.8079 347.635 93.2059 348.196 91.3647 349.143C88.3499 350.686 84.5004 353.362 82.381 353.873C77.7778 354.981 57.3774 358.705 56.6844 349.35C56.4314 349.659 56.1886 350.008 55.9661 350.397C55.0859 351.94 55.0353 353.241 55.0303 353.615C55.0303 353.944 55.0303 355.421 55.7789 356.656C56.7653 358.285 58.7482 359.013 61.5859 359.519C64.0898 359.965 67.8887 360.344 74.323 359.519C77.7576 359.079 81.4907 358.578 85.937 356.838C87.8896 356.074 89.4779 355.452 91.3697 354.156C93.2059 352.897 93.7927 352.052 96.0538 350.579C97.1515 349.866 97.4398 349.785 99.9892 348.434C105.741 345.383 107.349 344.154 108.229 343.425C110.612 341.462 111.194 340.309 111.411 339.312C111.553 338.654 111.532 338.098 111.224 336.272C111.123 335.664 111.027 335.118 110.931 334.587L110.925 334.577Z" fill="white"/>
<path d="M94.3795 328.288C92.6445 327.301 90.8032 326.466 88.9063 325.809C86.7312 325.055 84.4651 324.524 82.1686 324.235C81.9005 324.2 81.6526 324.387 81.6222 324.645C81.5919 324.898 81.7791 325.126 82.0421 325.161C84.2678 325.444 86.4631 325.955 88.5725 326.689C90.4137 327.327 92.1943 328.136 93.8787 329.092C94.1063 329.224 94.4048 329.158 94.5414 328.94C94.683 328.718 94.6122 328.424 94.3795 328.293V328.288Z" fill="white"/>
<path d="M89.2149 330.14C89.1896 330.119 88.5826 329.588 87.9149 329.097C85.9017 327.61 83.4939 326.588 81.688 325.966C81.4301 325.875 81.1519 326.006 81.0608 326.254C80.9748 326.497 81.1013 326.755 81.3542 326.841C83.0943 327.443 85.406 328.419 87.318 329.836C87.9503 330.301 88.5472 330.828 88.5523 330.833C89.4729 331.637 90.3126 332.528 91.0562 333.479C91.213 333.681 91.5114 333.732 91.7289 333.585C91.9515 333.433 92.0072 333.14 91.8453 332.927C91.0663 331.92 90.1811 330.99 89.2149 330.14Z" fill="white"/>
<path d="M86.711 331.217C85.4869 330.914 84.2324 330.711 82.9779 330.61C81.3592 330.479 79.7203 330.519 78.1067 330.726C77.8386 330.762 77.6514 331.005 77.6919 331.263C77.7324 331.516 77.9752 331.683 78.2433 331.652C79.7861 331.455 81.3491 331.42 82.897 331.541C84.0958 331.637 85.2947 331.834 86.4631 332.123C86.7211 332.189 86.9842 332.047 87.055 331.799C87.1309 331.546 86.974 331.283 86.711 331.217Z" fill="white"/>
<path d="M86.5036 334.364C84.7585 332.249 82.6542 330.438 80.2414 328.961C80.0137 328.819 79.7052 328.89 79.5635 329.113C79.4219 329.33 79.4978 329.613 79.7203 329.75C82.0421 331.167 84.0655 332.912 85.7398 334.941C86.5441 335.912 87.2675 336.955 87.8998 338.042C88.0313 338.265 88.3196 338.351 88.5523 338.23C88.7951 338.108 88.8861 337.82 88.7546 337.592C88.097 336.459 87.3433 335.371 86.5087 334.359L86.5036 334.364Z" fill="white"/>
<path d="M83.4685 334.733C82.7401 334.379 81.9814 334.086 81.2074 333.853C79.3763 333.302 77.4642 333.104 75.5066 333.251C75.2335 333.271 75.0362 333.509 75.0666 333.767C75.0969 334.02 75.3296 334.202 75.5977 334.182C77.4238 334.045 79.2094 334.233 80.9141 334.744C81.6374 334.961 82.3456 335.234 83.0234 335.568C83.2612 335.685 83.5495 335.604 83.6759 335.381C83.8125 335.148 83.7113 334.855 83.4635 334.733H83.4685Z" fill="white"/>
<path d="M82.7453 337.035C81.1165 335.204 79.1336 333.732 76.8472 332.649C76.6044 332.533 76.306 332.639 76.1896 332.872C76.0783 333.104 76.1795 333.373 76.4223 333.484C78.5873 334.511 80.464 335.907 82.0017 337.638C82.9223 338.675 83.7114 339.823 84.3437 341.053C84.4601 341.28 84.7433 341.381 84.9862 341.275C85.234 341.164 85.3453 340.881 85.2239 340.648C84.5511 339.348 83.7216 338.133 82.7453 337.035Z" fill="white"/>
<path d="M79.2246 339.762C77.9145 337.85 76.2402 336.211 74.2522 334.885C74.0297 334.739 73.716 334.799 73.5694 335.017C73.4227 335.229 73.4834 335.513 73.7009 335.659C75.5826 336.914 77.1659 338.462 78.4052 340.273C79.1639 341.387 79.7861 342.586 80.2565 343.84C80.3476 344.078 80.6157 344.21 80.8686 344.134C81.1266 344.053 81.2733 343.785 81.1822 343.537C80.6865 342.206 80.0289 340.936 79.2246 339.762Z" fill="white"/>
<path d="M79.5484 337.865C77.9651 337.582 76.3616 337.309 74.7733 337.056C73.7414 336.894 72.7044 336.737 71.6877 336.585C71.4196 336.545 71.1717 336.722 71.1312 336.98C71.0908 337.233 71.2729 337.471 71.541 337.511C72.5526 337.658 73.5846 337.815 74.6114 337.977C76.1947 338.229 77.7931 338.498 79.3663 338.781C79.6293 338.826 79.8823 338.665 79.9328 338.412C79.9834 338.159 79.8114 337.911 79.5433 337.865H79.5484Z" fill="white"/>
<path d="M75.0666 342.763C74.8845 342.555 74.7884 342.444 74.6366 342.287C73.8374 341.478 73.0938 341.058 72.4919 340.719C72.3705 340.648 72.2541 340.582 72.1428 340.516C71.4853 340.127 70.8732 339.616 70.3117 338.993C70.1448 338.806 69.8514 338.786 69.6491 338.938C69.4265 339.105 69.4012 339.413 69.5884 339.616C70.2105 340.299 70.8934 340.87 71.632 341.306C71.7483 341.376 71.8697 341.442 72.0012 341.518C72.5728 341.842 73.2253 342.206 73.9285 342.925C74.065 343.066 74.1561 343.167 74.323 343.36C74.8744 343.992 75.4055 344.68 75.8962 345.419C76.0378 345.631 76.3363 345.702 76.5639 345.571C76.7966 345.434 76.8674 345.141 76.7207 344.923C76.2047 344.154 75.6483 343.425 75.0717 342.763H75.0666Z" fill="white"/>
<path d="M77.3682 340.865C74.7783 340.132 72.158 339.929 69.5681 340.273C68.6273 340.4 67.6864 340.597 66.7658 340.865C66.5028 340.941 66.3662 341.215 66.4522 341.457C66.5382 341.7 66.8063 341.827 67.0592 341.751C67.9242 341.498 68.8094 341.311 69.6997 341.194C72.1429 340.87 74.6265 341.063 77.0799 341.756C77.3328 341.827 77.6059 341.7 77.6869 341.457C77.7728 341.209 77.6262 340.941 77.3682 340.865Z" fill="white"/>
<path d="M138.155 165.194C131.705 164.804 132.019 167.283 108.528 178.561C103.1 181.166 64.5956 195.97 65.5314 213.141C65.6478 215.261 74.5404 215.631 77.9245 217.735C80.6712 219.445 86.9689 223.255 95.8312 223.331C103.97 223.402 104.997 220.245 117.643 216.182C125.114 213.779 138.408 210.495 151.504 208.411C154.741 207.895 158.666 207.343 161.924 204.368C167.139 199.608 166.886 192.084 166.805 190.688C166.112 178.363 152.091 166.034 138.155 165.194Z" fill="#E26F50"/>
<path d="M108.75 257.168C108.457 247.54 106.924 235.893 103.879 227.343C100.257 217.179 97.2476 218.029 94.9308 216.683C89.1238 213.313 73.4023 204.065 67.4132 207.961C61.8085 211.603 70.2712 238.823 72.4716 243.816C75.9417 251.689 76.9634 257.679 78.5568 267.059C81.0253 281.585 81.9915 309.776 80.1755 315.149C79.4016 317.435 78.4354 319.049 79.4168 320.84C81.1872 324.073 87.5355 324.615 94.4199 325.202C100.222 325.697 108.073 323.223 108.204 320.552C108.497 314.698 107.45 307.362 107.096 301.498C106.939 298.948 106.995 297.987 107.577 285.399C108.391 267.702 108.801 258.818 108.75 257.158V257.168Z" fill="#E26F50"/>
<path d="M157.64 173.81C156.046 177.776 153.654 181.996 150.027 185.866C146.602 189.519 142.404 192.525 126.095 199.39C100.328 210.242 93.1654 210.182 90.4439 216.643C88.107 222.193 92.6797 223.918 96.7922 239.496C100.363 253.019 100.303 264.57 100.212 283.33C100.171 291.192 99.8525 295.447 99.721 299.186C99.4883 306.011 99.7868 314.471 101.395 324.63C105.073 323.785 108.108 322.206 108.194 320.557C108.487 314.703 107.44 307.367 107.086 301.503C106.929 298.954 106.985 297.992 107.567 285.405C108.381 267.707 108.791 258.823 108.74 257.163C108.447 247.535 106.914 235.888 103.869 227.338C103.161 225.355 102.483 223.797 101.82 222.557C105.67 221.388 108.846 219 117.633 216.182C125.104 213.779 138.397 210.495 151.494 208.411C154.731 207.895 158.656 207.343 161.914 204.369C167.129 199.608 166.876 192.084 166.795 190.688C166.451 184.602 162.86 178.515 157.629 173.81H157.64Z" fill="#E26F50"/>
<path d="M73.8524 77.5198C72.4057 77.5501 73.4882 76.3207 72.4057 77.5501C69.4314 80.9298 65.7135 88.3974 65.3898 111.564C65.3392 115.177 66.1485 117.914 66.8567 126.798C67.1501 130.486 67.2411 132.272 66.533 134.569C65.9816 136.355 65.1571 137.782 64.5804 140.787C64.2263 142.629 63.8672 144.617 64.7423 145.138C65.501 145.589 66.4773 144.531 68.4855 143.894C71.3991 142.973 74.1104 143.701 75.9719 144.202C80.6711 145.467 81.6221 147.891 83.2964 147.466C86.549 146.646 86.4074 136.649 86.3871 135.809C86.0027 117.362 81.7385 77.3376 73.8524 77.5147V77.5198Z" fill="#FCBA15"/>
<path d="M21.8876 191.745L102.448 197.634V180.397L18.1444 181.328L21.8876 191.745Z" fill="#969696"/>
<path d="M170.387 90.4718C170.898 82.1643 175.121 77.7323 171.439 72.6527C168.389 68.4433 159.891 65.3469 150.634 61.6586C143.79 58.9316 139.369 58.3195 137.826 58.1373C136.485 57.9754 133.106 57.6364 127.188 58.1373C125.261 58.2992 119.332 58.8659 108.958 61.6586C106.262 62.3821 96.6152 65.0484 83.9946 70.5733C77.5957 73.3762 74.3684 74.808 73.1443 76.3764C68.9307 81.7596 71.7887 88.3671 76.1844 105.812C80.7521 123.94 84.9051 151.574 87.4697 164.055C88.0311 166.793 88.7646 170.106 91.5923 171.933C95.4063 174.397 100.313 172.398 105.918 171.103C116.055 168.766 125.964 169.322 132.181 170.688C147.487 174.053 156.547 185.851 157.144 186.651C162.774 194.204 165.151 203.094 166.831 201.54C169.183 199.365 171.813 175.383 171.904 174.215C172.188 170.582 172.658 162.35 171.687 151.619C170.837 142.255 169.749 140.499 168.212 126.54C167.321 118.455 166.886 114.327 167.124 110.163C167.665 100.833 169.815 99.6748 170.382 90.4718H170.387Z" fill="#FFC71F"/>
<path d="M170.387 90.4718C170.893 82.22 175.061 77.793 171.51 72.7589C165.667 73.6139 159.253 75.7642 154.235 80.5959C148.241 86.3686 149.025 90.9524 146.39 99.4876C138.878 123.808 145.424 152.13 141.443 173.972C151.104 178.758 156.684 186.028 157.149 186.651C162.779 194.204 165.156 203.094 166.836 201.54C169.188 199.365 171.818 175.383 171.909 174.215C172.193 170.582 172.663 162.35 171.692 151.619C170.842 142.255 169.754 140.499 168.217 126.54C167.326 118.455 166.891 114.327 167.129 110.163C167.67 100.833 169.82 99.6748 170.387 90.4718Z" fill="#F7B000"/>
<path d="M76.0681 106.045C75.9518 105.751 75.6027 105.609 75.2992 105.726C74.9957 105.842 74.849 106.166 74.9654 106.454C76.9837 111.402 78.6934 116.512 80.044 121.653C82.2596 130.072 83.5697 138.758 83.9389 147.476C83.9541 147.784 84.2222 148.027 84.546 148.017C84.8748 148.007 85.1277 147.744 85.1176 147.43C84.7432 138.637 83.4179 129.874 81.1872 121.38C79.8265 116.194 78.1016 111.043 76.0681 106.05V106.045Z" fill="#F7B000"/>
<path d="M124.153 45.0791C122.332 40.4396 123.318 38.4209 121.548 37.4091C115.862 34.166 96.1903 49.5313 98.5425 59.1745C99.2658 62.1545 100.5 62.2202 100.879 67.1127C100.97 68.3168 100.879 70.8515 102.129 76.5737C102.518 78.3495 99.4024 77.8891 98.5425 79.4879C97.4498 81.5167 96.2409 85.2101 97.4549 87.5728C99.5288 91.595 108.239 90.9474 108.958 90.8917C124.624 89.5763 139.89 69.1769 135.438 58.9721C133.299 54.0645 127.39 53.336 124.153 45.0841V45.0791Z" fill="#EB8E6C"/>
<path d="M140.562 59.9688C137.831 58.1373 132.009 54.869 129.657 52.7946C127.871 57.7781 125.241 63.9202 119.601 65.8073C116.363 66.89 112.367 68.1852 110.93 67.9778C110.182 67.8716 109.964 71.7369 108.315 79.3816C106.98 85.5743 107.041 89.0096 106.145 89.126C105.432 89.2171 104.147 86.5305 101.643 74.211C101.416 74.9193 99.0685 74.3678 98.6689 75.0963C97.7837 76.7052 95.0623 79.6549 94.2074 81.2536C93.1148 83.2824 95.1179 88.5998 96.3319 90.9626C98.4059 94.9848 108.376 94.8532 109.094 94.7925C124.76 93.4771 150.042 66.3234 140.568 59.9688H140.562Z" fill="#FFC71F"/>
<path d="M108.427 100.14C108.002 96.9984 107.551 93.8312 107.091 90.7146C107.046 90.406 106.747 90.1935 106.423 90.234C106.1 90.2795 105.877 90.5629 105.923 90.8715C106.383 93.983 106.828 97.1451 107.253 100.287C108.705 111.003 110.344 123.145 111.295 137.413C111.871 146.09 112.144 154.964 112.104 163.802C112.104 164.111 112.362 164.364 112.691 164.369C113.02 164.369 113.283 164.121 113.288 163.807C113.328 154.943 113.055 146.044 112.473 137.342C111.522 123.039 109.878 110.876 108.427 100.145V100.14Z" fill="#F7B000"/>
<path d="M108.214 89.3486C108.153 89.3638 108.103 89.3739 108.057 89.384L108.29 90.492C108.346 90.4819 108.411 90.4667 108.482 90.4515C108.528 90.4414 108.593 90.4262 108.669 90.4111C108.968 90.3504 109.266 90.5173 109.352 90.7956C110.743 95.2023 112.762 108.787 114.234 123.762C115.903 140.777 116.399 154.301 115.574 160.246C115.534 160.549 115.751 160.827 116.065 160.873C116.393 160.924 116.697 160.706 116.743 160.392C118.65 146.621 113.288 98.1013 110.298 89.9406C109.944 88.9692 108.73 89.2373 108.209 89.3537L108.214 89.3486Z" fill="#F7B000"/>
<path d="M127.193 58.1373C118.255 65.4633 110.47 68.3421 110.409 68.4888C116.141 71.9039 118.584 86.8088 118.584 86.8088C118.584 86.8088 124.315 85.721 131.118 75.152C133.627 71.2512 136.652 65.691 138.878 58.279C138.448 58.2132 138.094 58.1677 137.831 58.1373C136.49 57.9754 131.705 54.444 127.193 58.1373Z" fill="#F7B000"/>
<path d="M89.2806 71.575C90.616 76.3814 96.767 88.6757 96.767 88.6757C96.767 88.6757 98.7145 76.4219 103.55 64.4261C99.8476 65.5189 95.9931 65.605 88.5117 68.6659C88.7393 69.5715 88.9923 70.548 89.2755 71.5801L89.2806 71.575Z" fill="#F7B000"/>
<path d="M96.4938 62.5592C94.6728 62.5592 91.1218 66.1716 90.6362 67.8109C90.2163 69.2325 95.5732 81.5268 96.949 81.2486C97.9911 81.0361 97.4144 76.8267 99.7362 72.6476C100.879 70.5935 100.879 68.0031 100.879 67.1127C100.879 66.2222 97.3638 62.5592 96.4938 62.5592Z" fill="#FFDF5A"/>
<path d="M162.354 70.1584C158.515 71.0792 155.874 72.9967 154.321 74.5095C150.138 78.5873 148.828 83.4443 148.246 85.9082C144.488 101.749 146.951 142.229 148.226 142.386C153.492 143.029 158.125 158.637 166.133 156.082C167.438 155.667 171.763 150.921 175.597 140.008C179.497 128.903 180.564 119.467 181.025 113.477C182.38 95.7487 179.967 87.4261 178.637 83.6315C177.023 79.0275 171.201 68.0335 162.359 70.1584H162.354Z" fill="#FFC71F"/>
<path d="M98.5425 59.1745C99.2659 62.1545 100.5 62.2202 100.879 67.1126C100.93 67.7451 101.112 70.2697 101.279 71.9039C120.552 70.639 120.739 41.9018 120.552 37.0498C113.875 35.7546 96.3168 50.0322 98.5425 59.1694V59.1745Z" fill="#C36252"/>
<path d="M30.6032 187.48L100.869 194.852L133.921 172.763L27.7806 158.875L30.6032 187.48Z" fill="#BFBFBF"/>
<path d="M102.448 197.634L133.921 176.562V172.763L100.869 194.25L102.448 197.634Z" fill="#D0D0D0"/>
<path d="M120.465 14.4041C118.907 10.6045 117.491 7.14891 113.955 4.45732C106.165 -1.47227 95.2747 1.73537 93.7673 2.17554C91.4101 2.86867 84.0754 5.02903 80.7419 11.2976C78.931 14.7026 78.7742 18.4263 78.5719 23.3187C78.4353 26.5921 78.6933 29.2483 78.7894 30.159C79.2042 34.0243 79.6342 33.3514 80.0894 37.4141C80.3524 39.7667 80.2917 40.728 81.177 41.7652C82.0925 42.8428 83.0991 42.9086 83.9995 44.2544C84.6925 45.2916 84.7684 46.268 84.8696 46.951C85.2237 49.3644 86.3365 51.12 88.5572 54.621C90.621 57.8692 91.6478 59.4882 93.5498 60.839C94.1315 61.2539 95.1432 61.8863 96.1548 63.1208C97.2272 64.4261 97.2323 65.099 97.8899 65.8174C99.5237 67.6034 102.928 67.1885 103.965 67.0621C109.251 66.4195 112.868 61.7345 115.25 58.5623C120.774 51.2161 122.089 43.794 122.63 40.5307C123.43 35.6939 123.237 31.955 123.065 28.717C122.818 24.0219 122.585 19.6 120.46 14.4142L120.465 14.4041Z" fill="#EB8E6C"/>
<path d="M117.537 6.52661C101.492 -8.22148 76.928 4.31566 77.0544 21.4518C77.0646 22.8178 76.3513 28.2111 78.5366 29.5012C81.8801 31.4845 87.1459 28.5298 90.0798 27.2549C91.653 26.5719 95.4366 24.5228 98.33 21.4518C98.7145 21.047 99.3164 20.3691 100.283 20.2072C102.286 19.8732 104.213 21.9982 104.84 22.6964C106.939 25.0136 107.531 27.3814 108.098 29.1218C110.349 36.0683 114.957 38.9825 115.043 35.3398C115.114 32.5318 115.711 31.0443 116.56 29.9515C117.178 29.1572 117.618 28.5905 118.295 28.4995C120.845 28.1656 121.912 36.4731 123.222 36.1695C124.254 35.9317 124.684 29.9212 123.936 24.7707C122.636 15.8004 122.034 10.6652 117.532 6.53166L117.537 6.52661Z" fill="#0E1647"/>
<path d="M128.296 50.437C127.284 50.1435 127.375 57.0394 121.224 61.8711C117.173 65.0585 113.53 67.1531 110.925 67.9829C109.636 68.3927 112.989 69.617 114.497 71.7167C119.11 78.1522 120.142 82.5994 120.142 82.5994C120.142 82.5994 123.404 82.2503 132.838 68.4028C135.064 65.1344 136.683 60.4798 137.416 58.1323C137.705 57.2013 137.426 56.1996 136.688 55.5317C135.039 54.0392 131.832 51.464 128.301 50.437H128.296Z" fill="#FFDF5A"/>
<path d="M151.18 138.303C149.915 138.571 148.327 139.624 145.156 141.723C142.12 143.737 138.741 145.973 135.388 149.651C133.916 151.265 133.253 152.277 131.483 153.38C129.844 154.402 129.247 154.265 125.949 155.399C123.733 156.163 120.339 157.326 116.672 159.284C115.625 159.841 114.795 160.337 113.414 160.686C112.822 160.833 110.981 161.242 108.533 160.843C105.943 160.418 105.7 159.583 101.532 157.888C98.5627 156.679 97.0452 156.087 95.5074 156.487C94.9561 156.633 93.8837 157.311 91.7642 158.662C89.8218 159.902 88.8455 160.524 88.6735 160.681C85.8763 163.226 85.0467 168.083 86.721 169.54C87.1914 169.955 87.8086 170.046 88.6735 170.941C89.2856 171.574 89.3413 171.902 89.8117 172.494C89.9938 172.722 91.5315 174.665 93.0693 174.513C94.6728 174.356 95.7351 171.963 96.3269 170.628C96.9137 169.302 96.7417 169.019 97.3032 168.295C98.5576 166.686 100.981 166.089 101.375 166.585C101.603 166.873 101.041 167.708 99.9082 169.383C98.9572 170.794 98.6588 170.992 98.2794 171.872C97.8849 172.798 97.4549 173.79 97.9557 174.67C98.3958 175.449 99.4985 176.026 100.237 175.758C101.031 175.469 100.733 174.442 101.866 173.425C102.018 173.289 102.736 172.672 103.818 172.494C105.002 172.302 105.968 172.742 106.747 173.117C108.29 173.85 108.118 174.341 109.19 174.827C111.694 175.96 114.901 174.296 115.377 174.048C116.48 173.476 116.368 173.248 117.491 172.646C119.666 171.488 121.776 171.437 122.539 171.402C127.502 171.184 136.738 169.13 139.794 168.447C144.731 167.349 148.403 165.487 155.748 161.763C164.286 157.433 168.556 155.267 169.097 152.591C170.407 146.105 158.909 136.649 151.19 138.288L151.18 138.303Z" fill="#EB8E6C"/>
<path d="M98.7853 162.163C97.6623 162.234 96.5545 162.406 95.4872 162.674C94.0506 163.033 93.0946 163.463 92.6393 163.954C91.7086 164.961 91.7389 166.271 91.7541 166.904L91.7642 167.258C91.7996 168.71 91.835 169.975 90.6564 173.076C90.5654 173.314 90.6918 173.582 90.9448 173.673C91.1977 173.764 91.486 173.638 91.5771 173.395C92.8164 170.132 92.781 168.725 92.7456 167.243L92.7354 166.889C92.7203 166.337 92.695 165.315 93.3728 164.582C93.5549 164.384 94.1012 163.995 95.7351 163.585C96.7366 163.332 97.7786 163.17 98.8409 163.104C99.109 163.089 99.3113 162.877 99.3012 162.624C99.2911 162.36 99.0584 162.158 98.7853 162.173V162.163Z" fill="#C36252"/>
<path d="M94.2075 160.139C94.1518 159.871 93.8685 159.699 93.5954 159.775C92.9631 159.947 92.3814 160.21 91.8604 160.564C91.046 161.121 90.6109 161.733 90.1102 162.447C90.0747 162.502 89.1794 163.777 88.6483 165.133C87.9502 166.924 87.7277 169.079 88.0716 170.597C88.1323 170.865 88.4257 171.017 88.6989 170.936C88.9366 170.86 89.0732 170.628 89.0226 170.39C88.7242 169.054 88.9316 167.066 89.5639 165.457C90.0545 164.207 90.9144 162.973 90.9246 162.963C91.4405 162.229 91.7895 161.753 92.432 161.318C92.867 161.025 93.3475 160.807 93.8736 160.666C94.1164 160.6 94.2631 160.367 94.2125 160.134L94.2075 160.139Z" fill="#C36252"/>
<path d="M1.95254 137.595L0 139.77L21.9231 187.941L100.495 195.975L100.869 194.25L102.296 193.319L86.2658 142.341L1.95254 137.595Z" fill="#CBCBCB"/>
<path d="M0 139.77L19.9705 190.116L100.495 195.975L84.3132 144.516L0 139.77Z" fill="#F4F2F0"/>
<path d="M81.4451 144.354C81.4653 151.498 79.9073 160.736 73.4933 168.993C64.1454 181.035 49.9566 183.964 41.15 185.78C32.4394 187.576 24.6748 187.485 18.6755 186.853L19.9654 190.111L100.495 195.97L84.3132 144.511L81.4451 144.349V144.354Z" fill="#F8F9F8"/>
<path d="M9.35803 163.357L13.3086 173.324L35.6465 141.779L25.0593 141.182L9.35803 163.357Z" fill="#F0F0F0"/>
<path d="M102.078 34.1002C100.475 34.2975 98.9016 34.6618 97.3891 35.193C96.4382 35.527 95.5074 35.9267 94.6121 36.3871C94.258 36.5692 94.1315 36.9942 94.3339 37.3281C94.5261 37.6418 94.9409 37.7581 95.2747 37.5861C96.1144 37.1561 96.9845 36.7817 97.8747 36.468C99.286 35.9722 100.763 35.6281 102.265 35.446C102.64 35.4005 102.908 35.0767 102.872 34.7124C102.837 34.3279 102.473 34.0547 102.068 34.1053L102.078 34.1002Z" fill="#49302A"/>
<path d="M86.7311 38.6284C85.9521 38.7852 85.1883 39.0078 84.4599 39.2962C83.3015 39.7515 82.219 40.3637 81.2326 41.1226C80.9848 41.3098 80.9696 41.7247 81.1972 42.0384C81.4148 42.3318 81.7688 42.4279 82.0015 42.2509C82.9272 41.5375 83.9439 40.9658 85.0264 40.5408C85.7093 40.2726 86.4226 40.0652 87.151 39.9185C87.4443 39.8578 87.591 39.534 87.4899 39.1899C87.3837 38.8257 87.0397 38.5727 86.7311 38.6334V38.6284Z" fill="#49302A"/>
<path d="M97.8343 51.1351C97.7179 50.953 97.4549 50.8923 97.2374 51.0036C95.4568 51.9143 94.1163 52.1723 93.4284 51.722C92.8669 51.3578 92.7961 50.5634 92.6443 48.99C92.5938 48.4233 92.5331 47.7808 92.4319 47.0269C92.2296 45.4484 91.9362 43.8749 91.5517 42.3419C91.4961 42.1295 91.2533 42.008 91.0105 42.0738C90.7677 42.1396 90.621 42.3622 90.6716 42.5747C91.0459 44.0824 91.3393 45.6305 91.5366 47.1787C91.6327 47.9224 91.6934 48.5599 91.7439 49.1165C91.9109 50.8619 91.9969 51.8232 92.8568 52.3848C93.7016 52.9363 94.9661 52.8604 96.6405 52.1622C96.9541 52.0307 97.2879 51.8738 97.6319 51.7018C97.8595 51.5854 97.9556 51.3274 97.8292 51.1351H97.8343Z" fill="#C36252"/>
<path d="M97.9961 38.5474C97.3132 38.7548 97.0401 39.7465 97.379 40.7634C97.7179 41.7804 98.5475 42.433 99.2304 42.2256C99.9133 42.0181 100.186 41.0265 99.8475 40.0096C99.5086 38.9926 98.679 38.34 97.9961 38.5474Z" fill="#49302A"/>
<path d="M86.2557 42.1396C85.5728 42.347 85.2996 43.3386 85.6385 44.3556C85.9774 45.3725 86.807 46.0252 87.4899 45.8177C88.1728 45.6103 88.4459 44.6187 88.107 43.6017C87.7681 42.5848 86.9385 41.9321 86.2557 42.1396Z" fill="#49302A"/>
<path d="M101.891 52.6681L99.797 53.6041C98.1833 54.3225 96.4787 54.8437 94.7285 55.1472L93.5145 55.3597C92.9884 55.4508 92.7709 56.0427 93.1351 56.3817C94.2125 57.3733 96.1145 58.4156 98.3705 57.6971C100.642 56.9737 102.569 54.702 102.807 53.2803C102.888 52.8047 102.367 52.4556 101.886 52.6681H101.891Z" fill="white"/>
<path d="M103.803 41.9726C102.099 42.7315 101.117 44.1785 101.618 45.1954C102.114 46.2124 103.904 46.4249 105.609 45.6609C107.314 44.902 108.295 43.455 107.794 42.4381C107.299 41.4211 105.508 41.2086 103.803 41.9726Z" fill="#DD8064"/>
<path d="M117.39 27.9328C115.341 28.0087 114.294 30.8015 114.239 30.9482C112.721 35.1576 116.348 41.5223 118.766 41.4565C120.941 41.3958 123.197 36.1088 121.675 32.0512C121.037 30.3512 119.363 27.862 117.39 27.9328Z" fill="#EB8E6C"/>
<path d="M118.26 37.7379C118.21 37.8395 118.174 37.9055 118.174 37.9156C118.174 37.9156 118.21 37.8395 118.26 37.7379Z" fill="#C36252"/>
<path d="M116.267 32.552C115.645 32.9618 115.291 33.7056 115.291 34.5454C115.291 34.849 115.564 35.0969 115.852 35.0564C116.07 35.0261 116.217 34.8288 116.217 34.596C116.217 34.0749 116.429 33.6196 116.798 33.3767C117.299 33.0428 118.022 33.1895 118.402 33.5133C118.812 33.8675 119.004 34.6314 118.928 35.6079C118.872 36.3263 118.614 36.9891 118.422 37.4192C118.569 37.1105 118.68 36.8778 118.412 37.4394C118.371 37.5305 118.331 37.6165 118.296 37.6823C118.26 37.7531 118.225 37.829 118.184 37.92C117.668 39.0027 118.392 38.8712 118.457 38.851C119.059 38.6638 119.424 37.7227 119.596 37.1358C120.01 35.7344 120.091 33.7511 118.968 32.7898C118.326 32.2384 117.162 31.9702 116.272 32.5571L116.267 32.552Z" fill="#C36252"/>
<path d="M118.291 37.6832C118.336 37.5867 118.372 37.5055 118.407 37.4395C118.407 37.4344 118.412 37.4293 118.417 37.4192C118.367 37.5309 118.311 37.6476 118.265 37.739C118.275 37.7187 118.286 37.7035 118.296 37.6832H118.291Z" fill="#C36252"/>
<path d="M120.253 29.395C119.869 28.9498 119.226 28.206 118.194 27.9986C117.102 27.776 116.257 28.287 115.938 28.4793C114.76 29.1977 114.279 30.4119 114.087 31.2113C114.021 31.4845 114.203 31.7628 114.471 31.8235C114.704 31.8741 114.927 31.7324 114.982 31.4997C115.134 30.8521 115.513 29.8807 116.434 29.3191C116.697 29.1623 117.309 28.7879 118.063 28.9397C118.771 29.0813 119.231 29.6176 119.57 30.0122C120.425 31.0039 120.956 32.2788 121.148 33.8068C121.508 36.6451 120.531 39.3164 119.702 39.7262C119.444 39.8527 119.429 40.1108 119.413 40.4093C119.368 41.2188 119.221 41.9979 118.457 42.2357C118.078 42.3521 117.886 42.3065 117.613 41.75C117.501 41.5173 117.238 41.4009 117.016 41.4869C116.768 41.583 116.667 41.8815 116.793 42.1396C117.112 42.7872 117.663 43.5005 118.776 43.1565C120.223 42.7062 120.309 41.1226 120.344 40.5206C120.344 40.5054 120.344 40.4902 120.344 40.475C121.498 39.6504 122.448 36.7463 122.069 33.7359C121.796 31.5807 120.926 30.1843 120.248 29.395H120.253Z" fill="#C36252"/>
<path d="M116.773 34.8794C116.217 34.596 115.529 34.7782 115.513 34.9552C115.498 35.107 115.994 35.1475 116.495 35.5573C117.456 36.3516 117.436 37.7177 117.623 37.7025C117.759 37.6924 117.855 36.9284 117.643 36.1948C117.547 35.8558 117.35 35.1728 116.768 34.8794H116.773Z" fill="#C36252"/>
</g>
<defs>
<clipPath id="clip0_76_1437">
<rect width="181.424" height="360" fill="white"/>
</clipPath>
</defs>
</svg>
