<svg width="1440" height="512" viewBox="0 0 1440 512" fill="none" xmlns="http://www.w3.org/2000/svg">
<mask id="mask0_76_871" style="mask-type:luminance" maskUnits="userSpaceOnUse" x="0" y="0" width="1440" height="512">
<path d="M1440 0H0V512H1440V0Z" fill="white"/>
</mask>
<g mask="url(#mask0_76_871)">
<g style="mix-blend-mode:multiply" opacity="0.25">
<g style="mix-blend-mode:multiply" opacity="0.5">
<g style="mix-blend-mode:multiply">
<path d="M1228.47 468.026C1371.4 411.492 1475.35 591.687 1506.28 677.727C1514.08 699.438 1522.22 728.793 1538.41 748.986C1546.41 758.971 1556.08 774.38 1563.89 784.504C1570.44 793.001 1580.43 807.418 1585.95 812.68C1595.98 822.235 1606.88 831.312 1607.1 810.454C1607.36 785.344 1604.28 777.622 1598.39 748.17C1573.6 624.187 1566.22 543.107 1479.03 455.537C1478.84 451.237 1472.77 451.153 1470.85 448.407C1427.24 385.965 1310.54 378.061 1258.08 389.654C1015.05 443.375 899.784 632.503 837.965 696.723C825.64 709.525 820.221 717.23 812.371 730.704C805.755 742.056 801.728 748.351 807.352 760.598C812.746 772.342 903.842 596.423 1228.47 468.02L1228.47 468.026Z" fill="#B7D6F2"/>
</g>
</g>
<g style="mix-blend-mode:multiply">
<path d="M52.959 985.847C68.4711 980.604 71.1321 973.401 79.3206 956.408C87.7449 938.93 94.2461 917.527 99.4713 892.17C104.914 865.748 109.698 834.518 112.564 801.903C115.77 765.387 111.863 727.305 112.546 685.522C113.181 646.642 108.283 610.03 113.23 562.598C117.451 522.097 136.471 463.792 159.113 422.16C180.685 382.494 225.661 330.811 245.963 306.596C270.214 277.671 284.48 264.632 283.313 245.104C282.69 234.696 271.387 245.074 265.213 242.661C260.018 240.635 253.716 243.32 244.935 244.378C227.203 246.507 221.186 246.574 200.194 256.468C180.249 265.872 151.36 282.351 131.899 298.849C124.599 305.036 104.067 321.927 95.5766 330.485C59.9803 357.735 35.2697 395.926 11.2062 427.519C-19.9995 468.485 -38.723 518.493 -39.9567 557.549C-41.3174 600.674 -40.5736 629.249 -39.4185 665.384C-38.2452 702.002 -43.0833 738.282 -39.4003 771.405C-35.7415 804.28 -29.6757 837.403 -23.5193 865.07C-17.6833 891.323 -9.94235 914.981 -1.8083 934.273C6.25924 953.402 13.1233 965.661 24.4808 976.413C35.6749 987.015 37.7492 991 52.953 985.86L52.959 985.847Z" fill="#ECE4DB"/>
</g>
<g style="mix-blend-mode:multiply">
<path d="M469.368 645.384C485.159 641.06 488.237 634.021 497.411 617.541C506.845 600.59 514.592 579.604 521.293 554.597C528.272 528.544 534.882 497.641 539.654 465.256C544.994 428.994 543.325 390.743 546.451 349.075C549.36 310.304 546.621 273.468 554.337 226.399C560.923 186.218 583.33 129.123 608.373 88.888C632.231 50.5521 680.158 1.59657 701.845 -21.3905C727.747 -48.8467 742.757 -61.0266 742.733 -80.5906C742.721 -91.0167 730.831 -81.3224 724.808 -84.0922C719.746 -86.4206 713.293 -84.1043 704.47 -83.5661C686.647 -82.4775 680.63 -82.7678 659.1 -74.1197C638.641 -65.901 608.833 -51.1387 588.44 -35.814C580.796 -30.0688 559.303 -14.4054 550.328 -6.36211C513.195 18.7537 486.29 55.4325 460.418 85.5557C426.866 124.623 396.906 283.9 395.944 320.04C394.97 356.665 388.01 392.6 389.751 425.88C391.481 458.912 395.593 492.331 400.111 520.319C404.399 546.868 410.743 570.938 417.728 590.672C424.658 610.242 430.797 622.875 441.501 634.281C452.054 645.517 453.892 649.618 469.368 645.378V645.384Z" fill="#ECE4DB"/>
</g>
<g opacity="0.75">
<g style="mix-blend-mode:multiply">
<path d="M894.909 836.126C903.116 834.85 906.69 831.173 916.221 820.384C926.877 808.325 922.644 814.827 939.269 791.713C1009.32 694.31 1018.61 615.811 976.226 532.155C954.261 488.799 870.138 430.476 831.79 421.731C588.573 366.268 556.654 540.476 568.072 543.264C575.184 545.006 581.328 542.532 590.176 538.91C601.382 534.326 604.902 533.316 618.061 528.296C644.634 518.16 633.719 461.295 667.851 442.414C736.286 404.568 856.205 486.888 882.929 540.337C947.639 669.75 873.047 767.812 875.992 803.518C877.287 819.235 876.833 838.92 894.915 836.114L894.909 836.126Z" fill="#CAC0BF"/>
</g>
</g>
<g style="mix-blend-mode:multiply" opacity="0.55">
<g style="mix-blend-mode:multiply">
<path d="M289.463 208.849C288.447 217.067 334.246 265.213 371.499 283.942C529.191 363.232 606.057 288.647 740.169 361.781C800.463 394.662 885.499 297.35 931.739 270.758C977.979 244.167 1004.61 212.278 1014.23 185.293C1032.91 132.872 1033.15 90.5209 1022.91 43.4764C1018 20.9007 1009.11 11.9381 996.413 -6.40437C986.174 -21.1969 969.355 -30.9214 948.921 -36.6062C943.786 -38.0334 938.912 -36.5397 934.376 -36.5155C927.439 -39.5575 921.785 -43.1195 914.032 -44.9822C895.816 -49.3486 875.527 -49.3244 867.405 -38.6201C862.349 -31.9556 863.818 -25.5511 866.032 -16.3346C868.832 -4.65055 869.074 -1.05223 871.825 12.6033C877.383 40.1865 877.51 48.0242 893.258 84.3886C924.839 157.311 822.888 208.444 754.096 246.199C720.49 264.644 671.244 277.453 628.886 271.671C591.972 266.634 567.273 256.746 538.68 246.483C482.074 226.163 429.932 223.103 376.392 220.236C352.818 218.972 291.695 190.73 289.457 208.843L289.463 208.849Z" fill="#ECE4DB"/>
</g>
</g>
<g style="mix-blend-mode:multiply" opacity="0.69">
<g style="mix-blend-mode:multiply">
<path d="M1552.27 -90.164C1547.58 -98.1409 1542.59 -99.5016 1530.13 -105.18C1516.22 -111.53 1519.68 -109.329 1497 -117.136C1401.42 -150.042 1296.25 -134.505 1242.65 -40.5433C1214.87 8.15825 1227.79 70.1464 1241.44 112.764C1255.08 155.388 1280.13 175.266 1315.41 189.877C1383.94 218.259 1463.95 204.331 1529.46 191.262C1560.9 184.991 1571.21 178.248 1594.89 171.13C1613.99 165.39 1619 158.375 1629.98 145.349C1632.74 142.077 1629.4 140.335 1630.74 137.009C1633.68 133.411 1638.42 130.211 1640.48 125.791C1645.35 115.407 1648.62 105.537 1636.03 99.3382C1628.19 95.4738 1622.77 96.381 1612.55 97.4272C1599.61 98.7516 1598.54 97.1672 1581.33 99.2778C1546.55 103.535 1542.89 165.1 1506.22 179.838C1432.68 209.381 1309.49 140.692 1313.26 45.7382C1315.1 -0.64711 1342.24 -11.043 1370.96 -24.2752C1395.99 -35.8019 1426.09 -31.5202 1446.14 -32.0706C1485.82 -33.1652 1506.43 -43.7304 1537.54 -61.3955C1551.24 -69.1727 1562.62 -72.5957 1552.27 -90.1701L1552.27 -90.164Z" fill="#E7B5B2"/>
</g>
</g>
<g style="mix-blend-mode:multiply" opacity="0.25">
<g style="mix-blend-mode:multiply">
<path d="M-279.672 673.343C-257.29 673.79 -227.965 667.724 -203.478 661.054C-171.813 652.43 -140.136 641.224 -107.605 630.531C-71.507 618.666 -11.1397 613.628 20.1568 603.051C81.8062 582.217 149.564 553.515 196.076 530.135C290.099 482.867 311.646 416.482 420.237 411.765C527.843 407.09 672.877 453.372 719.069 556.956C730.722 583.094 742.878 618.43 767.063 642.742C779.013 654.758 793.448 673.312 805.108 685.498C814.893 695.725 829.813 713.082 838.062 719.413C853.048 730.916 869.328 741.85 869.648 716.734C870.036 686.502 865.445 677.213 856.652 641.756C819.629 492.5 808.598 394.892 678.368 289.47C678.096 284.293 669.025 284.19 666.158 280.888C601.019 205.716 425.989 192.508 348.373 210.161C193.494 245.388 118.225 324.939 2.19531 378.847C-117.82 434.607 -186.763 502.509 -279.098 579.828C-297.507 595.243 -305.599 604.521 -317.325 620.734C-327.207 634.402 -333.218 641.98 -324.824 656.724C-316.769 670.863 -299.545 672.949 -279.66 673.343H-279.672Z" fill="#BADCDA"/>
</g>
<g style="mix-blend-mode:multiply">
<path d="M55.0333 953.227C75.6436 947.578 79.6593 938.398 91.6275 916.886C103.94 894.764 114.046 867.375 122.791 834.736C131.905 800.73 140.523 760.404 146.752 718.137C153.725 670.809 151.541 620.892 155.623 566.517C159.421 515.917 155.841 467.838 165.91 406.419C174.504 353.98 203.75 279.467 236.426 226.961C267.565 176.929 330.11 113.042 358.412 83.046C392.219 47.2199 411.801 31.3207 411.777 5.7876C411.765 -7.81956 396.24 4.83208 388.384 1.22165C381.774 -1.81426 373.356 1.20349 361.835 1.90501C338.57 3.32016 330.726 2.94521 302.623 14.2301C275.923 24.9525 237.018 44.2202 210.409 64.2258C200.43 71.7248 172.388 92.1598 160.673 102.664C112.208 135.443 77.0951 183.31 43.3312 222.625C-0.453629 273.613 -28.6779 337.33 -33.268 388.112C-38.336 444.198 -39.5576 481.476 -40.8094 528.641C-42.0794 576.435 -51.163 623.335 -48.8891 666.769C-46.6333 709.876 -41.263 753.492 -35.3666 790.013C-29.7725 824.66 -21.4933 856.078 -12.3735 881.828C-3.32624 907.367 4.68081 923.859 18.6569 938.743C32.4273 953.408 34.8282 958.76 55.0273 953.227H55.0333Z" fill="#ECE4DB"/>
</g>
<g style="mix-blend-mode:multiply">
<g style="mix-blend-mode:multiply">
<path d="M1835.02 631.439C1833.05 618.66 1826.13 613.683 1805.82 600.572C1783.11 585.912 1788.29 601.932 1751.68 569.354C1555.19 394.475 1451.01 630.761 1251.15 558.928C1161.3 526.633 1091.58 699.226 1043.23 753.105C994.883 806.989 973.607 863.184 972.065 906.968C969.065 992.016 985.575 1056.38 1017.28 1124.81C1032.5 1157.65 1047.37 1168.66 1070.83 1192.8C1089.75 1212.26 1115.02 1222.12 1143.32 1224.77C1150.42 1225.44 1156.04 1221.74 1161.81 1220.38C1171.85 1222.97 1180.47 1226.73 1191.09 1227.29C1216.03 1228.59 1241.86 1222.62 1247.96 1204C1251.76 1192.4 1247.35 1183.12 1240.86 1169.76C1232.66 1152.85 1230.92 1147.45 1222 1127.52C1203.97 1087.27 1200.7 1075.41 1166.2 1024.79C1097.03 923.309 1206.62 815.885 1279.27 738.457C1314.76 700.63 1372.41 666.793 1428.67 663.195C1477.69 660.056 1513.08 667.845 1553.58 675.072C1633.75 689.381 1701.39 678.785 1770.73 667.489C1801.26 662.517 1839.36 659.584 1835.02 631.433L1835.02 631.439Z" fill="#ECE4DB"/>
</g>
</g>
</g>
<g style="mix-blend-mode:multiply" opacity="0.35">
<path d="M1545.56 156.355C1540.09 144.641 1532.06 141.805 1508.88 134.91C1482.97 127.206 1496.35 129.038 1448.16 120.13C1245.05 82.5864 1099.59 124.932 964.79 250.499C894.922 315.583 850.973 429.92 819.671 495.198C788.375 560.476 783.712 620.384 794.507 662.844C815.48 745.315 849.377 802.472 899.004 859.259C922.819 886.515 940.182 892.908 969.465 909.496C993.081 922.88 1020.11 925.244 1048.01 919.856C1055.01 918.501 1059.37 913.379 1064.52 910.458C1074.89 910.125 1084.21 911.317 1094.56 908.873C1118.87 903.134 1141.99 890.156 1142.62 870.574C1143.01 858.376 1136.17 850.701 1126.21 839.695C1113.59 825.761 1110.41 821.062 1096.26 804.437C1067.67 770.855 1061.2 760.392 1013.9 721.482C919.04 643.467 994.109 509.621 1042.12 414.928C1065.58 368.663 1111.43 320.016 1164.42 300.785C1210.59 284.027 1246.74 281.577 1287.65 277.157C1368.62 268.406 1430.57 239.268 1493.96 208.976C1521.87 195.641 1557.61 182.142 1545.56 156.337L1545.56 156.355Z" fill="#EDEBDA"/>
</g>
<g style="mix-blend-mode:multiply">
<path d="M-108.585 203.303C-105.676 208.667 -102.531 207.488 -93.3572 208.794C-83.0944 210.258 -88.0413 208.806 -70.3399 209.078C4.26358 210.209 94.1736 169.981 97.2458 86.2028C98.8364 42.7808 68.1386 12.7786 47.0384 -9.67627C25.9383 -32.1311 0.018158 -36.0197 -21.215 -32.8024C-62.4538 -26.5612 -85.1627 -7.89221 -109.982 19.3402C-121.896 32.4092 -120.487 38.6745 -126.335 51.9067C-131.052 62.5747 -128.022 71.888 -125.258 82.2597C-124.563 84.8662 -121.962 86.1 -120.656 88.3013C-119.797 91.7726 -119.495 96.3628 -117.995 99.5378C-114.469 107.001 -109.68 116.586 -100.53 116.38C-94.8328 116.253 -93.9982 114.137 -89.8435 109.305C-84.5821 103.178 -85.332 105.525 -78.5405 96.8526C-64.8245 79.3387 -66.0643 81.3405 -52.6204 55.0152C-25.6661 2.22546 10.2386 36.3038 33.3043 72.8617C44.571 90.7204 43.4643 109.063 25.4907 121.593C9.83344 132.516 -9.779 134.414 -25.4907 137.154C-56.5997 142.579 -74.2648 159.385 -95.5585 178.048C-104.932 186.267 -114.983 191.486 -108.579 203.303H-108.585Z" fill="#E7B5B2"/>
</g>
<g style="mix-blend-mode:multiply" opacity="0.75">
<g style="mix-blend-mode:multiply">
<path d="M677.328 -218.023C612.806 25.4061 789.161 237.95 1009.49 41.8375C1025.88 27.2506 1087.51 -68.6708 1045.33 -95.9395C1031.25 -105.035 1027.76 -129.861 1013.01 -129.437C995.989 -128.947 924.029 -139.833 937.902 -127.677C985.92 -85.5921 1008.37 -52.578 923.853 22.6907C874.995 66.2033 708.11 97.6147 695.09 -42.2608C687.204 -126.946 739.715 -137.505 718.131 -203.285C709.096 -230.832 694.007 -280.985 677.322 -218.029L677.328 -218.023Z" fill="#B7D6F2"/>
</g>
</g>
</g>
</g>
</svg>
